SplineFontDB: 3.2
FontName: Shehroz
FullName: Shehroz www.shehroz.pk
FamilyName: Shehroz
Weight: Regular
Copyright: 
UComments: "Shehroz Font by www.shehroz.pk"
Version: 001.001
ItalicAngle: 0
UnderlinePosition: -100
UnderlineWidth: 50
Ascent: 800
Descent: 200
InvalidEm: 0
sfntRevision: 0x00010000
LayerCount: 2
Layer: 0 1 "Back" 1
Layer: 1 1 "Fore" 0
XUID: [1021 650 748462635 24577]
StyleMap: 0x0040
FSType: 0
OS2Version: 4
OS2_WeightWidthSlopeOnly: 0
OS2_UseTypoMetrics: 0
CreationTime: 1673096493
ModificationTime: 1673097586
PfmFamily: 17
TTFWeight: 400
TTFWidth: 5
LineGap: 90
VLineGap: 0
Panose: 2 0 5 3 0 0 0 0 0 0
OS2TypoAscent: 800
OS2TypoAOffset: 0
OS2TypoDescent: -200
OS2TypoDOffset: 0
OS2TypoLinegap: 90
OS2WinAscent: 756
OS2WinAOffset: 0
OS2WinDescent: 158
OS2WinDOffset: 0
HheadAscent: 756
HheadAOffset: 0
HheadDescent: -158
HheadDOffset: 0
OS2SubXSize: 650
OS2SubYSize: 700
OS2SubXOff: 0
OS2SubYOff: 140
OS2SupXSize: 650
OS2SupYSize: 700
OS2SupXOff: 0
OS2SupYOff: 480
OS2StrikeYSize: 49
OS2StrikeYPos: 258
OS2CapHeight: 633
OS2XHeight: 446
OS2Vendor: 'CLGR'
OS2CodePages: 00000001.00000000
OS2UnicodeRanges: 00000003.00000000.00000000.00000000
MarkAttachClasses: 1
DEI: 91125
TtTable: prep
PUSHW_1
 511
SCANCTRL
PUSHB_1
 4
SCANTYPE
EndTTInstrs
ShortTable: cvt  2
  33
  633
EndShort
ShortTable: maxp 16
  1
  0
  81
  178
  3
  0
  0
  2
  0
  1
  1
  0
  64
  0
  0
  0
EndShort

StartChar: .notdef
Encoding: 65536 -1 0
Width: 364
GlyphClass: 1
Flags: W
LayerCount: 2
Fore
SplineSet
33 0 m 1,0,-1
 33 666 l 1,1,-1
 298 666 l 1,2,-1
 298 0 l 1,3,-1
 33 0 l 1,0,-1
66 33 m 1,4,-1
 265 33 l 1,5,-1
 265 633 l 1,6,-1
 66 633 l 1,7,-1
 66 33 l 1,4,-1
EndSplineSet
Validated: 1
EndChar

StartChar: exclam
Encoding: 33 33 5
Width: 225
GlyphClass: 1
Flags: W
LayerCount: 2
Fore
SplineSet
122 599 m 0,0,1
 130 608 130 608 134 608.5 c 128,-1,2
 138 609 138 609 147 602 c 0,3,4
 169 583 169 583 169 556 c 0,5,6
 169 545 169 545 164 530 c 0,7,8
 142 467 142 467 139 390 c 0,9,10
 137 349 137 349 133 327 c 0,11,12
 121 280 121 280 114.5 266.5 c 128,-1,13
 108 253 108 253 98 253 c 0,14,15
 93 253 93 253 90 254 c 0,16,17
 78 256 78 256 73 263 c 128,-1,18
 68 270 68 270 68 300 c 0,19,20
 68 321 68 321 71 336 c 0,21,22
 77 364 77 364 81 409.5 c 128,-1,23
 85 455 85 455 93 488 c 0,24,25
 110 569 110 569 111 574 c 0,26,27
 112 584 112 584 122 599 c 0,0,1
59 134 m 0,28,29
 63 138 63 138 73.5 145 c 128,-1,30
 84 152 84 152 89 152 c 0,31,32
 125 136 125 136 125 108 c 0,33,34
 125 95 125 95 116.5 84.5 c 128,-1,35
 108 74 108 74 97 74 c 0,36,37
 84 74 84 74 73 80.5 c 128,-1,38
 62 87 62 87 62 94 c 0,39,40
 62 102 62 102 58 104 c 0,41,42
 54 107 54 107 54 116 c 0,43,44
 54 127 54 127 59 134 c 0,28,29
EndSplineSet
Validated: 1
EndChar

StartChar: quotedbl
Encoding: 34 34 6
AltUni2: 00201e.ffffffff.0 00201d.ffffffff.0 00201c.ffffffff.0 00201e.ffffffff.0 00201d.ffffffff.0 00201c.ffffffff.0
Width: 288
GlyphClass: 1
Flags: W
LayerCount: 2
Fore
SplineSet
178 713 m 0,0,1
 186 721 186 721 193 721 c 0,2,3
 215 721 215 721 224 702.5 c 128,-1,4
 233 684 233 684 234 638 c 0,5,6
 235 616 235 616 235 588 c 0,7,8
 235 553 235 553 226 544 c 0,9,10
 220 538 220 538 217 537.5 c 128,-1,11
 214 537 214 537 207 542 c 0,12,13
 185 555 185 555 175 637 c 0,14,15
 171 670 171 670 171 689 c 0,16,17
 171 706 171 706 178 713 c 0,0,1
61 704 m 0,18,19
 70 711 70 711 84 711 c 128,-1,20
 98 711 98 711 108 697 c 0,21,22
 115 687 115 687 116.5 678.5 c 128,-1,23
 118 670 118 670 118 634 c 0,24,25
 118 553 118 553 97 553 c 0,26,27
 95 553 95 553 87 555 c 0,28,29
 68 562 68 562 61.5 580 c 128,-1,30
 55 598 55 598 53 646 c 0,31,32
 52 659 52 659 52 677 c 0,33,34
 52 698 52 698 61 704 c 0,18,19
EndSplineSet
Validated: 1
EndChar

StartChar: quotesingle
Encoding: 39 39 7
AltUni2: 00201a.ffffffff.0 002019.ffffffff.0 002018.ffffffff.0 00201a.ffffffff.0 002019.ffffffff.0 002018.ffffffff.0
Width: 178
GlyphClass: 1
Flags: W
LayerCount: 2
Fore
SplineSet
75 753 m 0,0,1
 81 756 81 756 85 756 c 2,2,-1
 86 756 l 2,3,4
 91 756 91 756 100.5 746 c 128,-1,5
 110 736 110 736 114 727 c 128,-1,6
 118 718 118 718 122.5 683.5 c 128,-1,7
 127 649 127 649 127 626 c 0,8,9
 127 616 127 616 126 613 c 0,10,11
 122 593 122 593 108 593 c 0,12,13
 98 593 98 593 87.5 606.5 c 128,-1,14
 77 620 77 620 71 643 c 0,15,16
 62 675 62 675 57 686 c 0,17,18
 51 698 51 698 51 711 c 0,19,20
 51 743 51 743 75 753 c 0,0,1
EndSplineSet
Validated: 1
EndChar

StartChar: asterisk
Encoding: 42 42 8
Width: 411
GlyphClass: 1
Flags: W
LayerCount: 2
Fore
SplineSet
166 472 m 0,0,1
 171 483 171 483 186 483 c 0,2,3
 203 483 203 483 216 471 c 0,4,5
 233 457 233 457 233 436 c 0,6,7
 233 426 233 426 230 413 c 0,8,9
 227 401 227 401 227 395 c 0,10,11
 227 385 227 385 235 385 c 0,12,13
 238 385 238 385 246 387 c 0,14,15
 265 392 265 392 302 395 c 0,16,17
 327 398 327 398 335 398 c 0,18,19
 344 398 344 398 350 391 c 0,20,21
 357 382 357 382 357 367 c 0,22,23
 357 351 357 351 345 344 c 0,24,25
 331 336 331 336 305 329 c 0,26,27
 278 322 278 322 278 319 c 128,-1,28
 278 316 278 316 299 302 c 0,29,30
 336 277 336 277 340 258 c 0,31,32
 343 246 343 246 335 238 c 0,33,34
 330 233 330 233 312 233 c 0,35,36
 273 233 273 233 243 244 c 2,37,-1
 223 252 l 1,38,-1
 220 234 l 2,39,40
 218 220 218 220 209.5 210.5 c 128,-1,41
 201 201 201 201 190 201 c 0,42,43
 183 201 183 201 178 194 c 0,44,45
 173 188 173 188 158 184 c 0,46,47
 152 182 152 182 148 183 c 128,-1,48
 144 184 144 184 141.5 186 c 128,-1,49
 139 188 139 188 135 194 c 0,50,51
 127 207 127 207 127 216 c 0,52,53
 127 217 127 217 127.5 220.5 c 128,-1,54
 128 224 128 224 128 226 c 0,55,56
 130 248 130 248 133 256 c 0,57,58
 135 264 135 264 128 264 c 0,59,60
 122 264 122 264 112 258 c 0,61,62
 101 252 101 252 86 250 c 0,63,64
 81 249 81 249 75 249 c 0,65,66
 68 249 68 249 60 261 c 0,67,68
 53 272 53 272 53 283 c 128,-1,69
 53 294 53 294 59 295 c 0,70,71
 62 297 62 297 82 311 c 0,72,73
 106 328 106 328 123 334 c 0,74,75
 143 341 143 341 143 344 c 0,76,77
 143 348 143 348 124 350 c 0,78,79
 67 358 67 358 67 398 c 0,80,81
 67 413 67 413 76.5 423 c 128,-1,82
 86 433 86 433 98 433 c 0,83,84
 106 433 106 433 113 429 c 0,85,86
 119 425 119 425 136.5 418 c 128,-1,87
 154 411 154 411 159 411 c 0,88,89
 161 411 161 411 161 436 c 0,90,91
 161 457 161 457 166 472 c 0,0,1
EndSplineSet
Validated: 1
EndChar

StartChar: plus
Encoding: 43 43 9
Width: 445
GlyphClass: 1
Flags: W
LayerCount: 2
Fore
SplineSet
226 435 m 0,0,1
 226 424 226 424 220 404.5 c 128,-1,2
 214 385 214 385 214 375 c 2,3,-1
 214 361 l 1,4,-1
 245 362 l 2,5,6
 261 363 261 363 309 368 c 0,7,8
 364 375 364 375 376 375 c 0,9,10
 385 375 385 375 388 367 c 0,11,12
 391 358 391 358 387 350 c 0,13,14
 379 337 379 337 342 323 c 128,-1,15
 305 309 305 309 264 304 c 0,16,17
 232 301 232 301 224 298 c 0,18,19
 218 296 218 296 218 258 c 0,20,21
 218 204 218 204 199 188 c 0,22,23
 194 183 194 183 186 183 c 0,24,25
 175 183 175 183 169 194 c 0,26,27
 165 204 165 204 165 247 c 0,28,29
 165 291 165 291 162 294 c 0,30,31
 161 295 161 295 158 295 c 0,32,33
 139 295 139 295 91 286 c 1,34,-1
 86 286 l 2,35,36
 73 286 73 286 64 296 c 128,-1,37
 55 306 55 306 55 320 c 0,38,39
 55 339 55 339 70.5 347 c 128,-1,40
 86 355 86 355 127 358 c 2,41,-1
 162 361 l 1,42,-1
 162 374 l 2,43,44
 162 386 162 386 150 398 c 0,45,46
 140 408 140 408 140 415 c 0,47,48
 140 421 140 421 148 431 c 0,49,50
 154 437 154 437 161 453 c 128,-1,51
 168 469 168 469 179 473 c 0,52,53
 186 477 186 477 192 477 c 0,54,55
 200 477 200 477 212 465 c 0,56,57
 226 451 226 451 226 435 c 0,0,1
EndSplineSet
Validated: 1
EndChar

StartChar: comma
Encoding: 44 44 10
Width: 248
GlyphClass: 1
Flags: W
LayerCount: 2
Fore
SplineSet
97 40 m 0,0,1
 104 50 104 50 120 57.5 c 128,-1,2
 136 65 136 65 152 65 c 0,3,4
 163 65 163 65 168.5 61.5 c 128,-1,5
 174 58 174 58 186 44 c 0,6,7
 198 31 198 31 198 0 c 0,8,9
 198 -18 198 -18 192 -29 c 0,10,11
 188 -36 188 -36 175 -69 c 0,12,13
 169 -87 169 -87 139 -117 c 0,14,15
 112 -146 112 -146 87 -154 c 0,16,17
 74 -158 74 -158 63 -158 c 128,-1,18
 52 -158 52 -158 52 -150 c 0,19,20
 52 -138 52 -138 77 -109 c 0,21,22
 115 -62 115 -62 115 -47 c 0,23,24
 115 -41 115 -41 109 -41 c 0,25,26
 106 -41 106 -41 98 -27 c 128,-1,27
 90 -13 90 -13 88 -12 c 0,28,29
 86 -10 86 -10 86 -4 c 0,30,31
 86 23 86 23 97 40 c 0,0,1
EndSplineSet
Validated: 1
EndChar

StartChar: hyphen
Encoding: 45 45 11
Width: 344
GlyphClass: 1
Flags: W
LayerCount: 2
Fore
SplineSet
218 262 m 0,0,1
 226 264 226 264 235 264 c 0,2,3
 271 264 271 264 283 256 c 0,4,5
 291 251 291 251 291 232 c 0,6,7
 291 215 291 215 285.5 210 c 128,-1,8
 280 205 280 205 257 200 c 0,9,10
 243 198 243 198 226 193.5 c 128,-1,11
 209 189 209 189 194 187 c 0,12,13
 124 180 124 180 116 171 c 0,14,15
 112 165 112 165 101 165 c 0,16,17
 78 165 78 165 63 185 c 0,18,19
 58 192 58 192 55 212 c 0,20,21
 52 233 52 233 59 240 c 0,22,23
 67 248 67 248 71 248 c 128,-1,24
 75 248 75 248 83 249.5 c 128,-1,25
 91 251 91 251 96 251 c 0,26,27
 103 251 103 251 107 250 c 0,28,29
 119 247 119 247 132 247 c 0,30,31
 158 247 158 247 218 262 c 0,0,1
EndSplineSet
Validated: 1
EndChar

StartChar: period
Encoding: 46 46 12
Width: 181
GlyphClass: 1
Flags: W
LayerCount: 2
Fore
SplineSet
72 -44 m 0,0,1
 78 -41 78 -41 87 -41 c 0,2,3
 107 -41 107 -41 120 -52 c 0,4,5
 130 -60 130 -60 130 -89 c 0,6,7
 130 -97 130 -97 129 -100 c 0,8,9
 125 -111 125 -111 114.5 -119.5 c 128,-1,10
 104 -128 104 -128 94 -128 c 0,11,12
 61 -128 61 -128 52 -96 c 0,13,14
 49 -87 49 -87 49 -79 c 0,15,16
 49 -54 49 -54 72 -44 c 0,0,1
EndSplineSet
Validated: 1
EndChar

StartChar: slash
Encoding: 47 47 13
Width: 388
GlyphClass: 1
Flags: W
LayerCount: 2
Fore
SplineSet
280 552 m 128,-1,1
 284 558 284 558 300 558 c 0,2,3
 318 558 318 558 325 551 c 0,4,5
 332 542 332 542 332 526 c 2,6,-1
 332 521 l 2,7,8
 332 506 332 506 320 487 c 0,9,10
 308 466 308 466 308 464 c 0,11,12
 308 463 308 463 296 437 c 0,13,14
 279 400 279 400 266 369 c 0,15,16
 256 346 256 346 198 227 c 0,17,18
 114 57 114 57 103 -19 c 0,19,20
 100 -34 100 -34 91 -38 c 0,21,22
 85 -41 85 -41 81 -41 c 0,23,24
 72 -41 72 -41 63 -27 c 0,25,26
 56 -15 56 -15 56 1 c 0,27,28
 56 63 56 63 160 268 c 0,29,30
 200 347 200 347 216 385 c 0,31,32
 252 471 252 471 262 502 c 0,33,0
 276 546 276 546 280 552 c 128,-1,1
EndSplineSet
Validated: 1
EndChar

StartChar: zero
Encoding: 48 48 14
Width: 368
GlyphClass: 1
Flags: W
LayerCount: 2
Fore
SplineSet
251 419 m 2,0,-1
 251 437 l 2,1,2
 251 467 251 467 246 467 c 0,3,4
 245 467 245 467 240 462 c 0,5,6
 232 454 232 454 214 445 c 0,7,8
 199 437 199 437 183 422 c 128,-1,9
 167 407 167 407 167 401 c 0,10,11
 167 393 167 393 154 369 c 0,12,13
 142 344 142 344 131.5 295 c 128,-1,14
 121 246 121 246 121 218 c 0,15,16
 121 207 121 207 122 204 c 0,17,18
 125 195 125 195 132 195 c 128,-1,19
 139 195 139 195 151 204 c 0,20,21
 170 219 170 219 192.5 244 c 128,-1,22
 215 269 215 269 215 276 c 0,23,24
 215 281 215 281 224 299 c 0,25,26
 248 349 248 349 251 419 c 2,0,-1
212 512 m 0,27,28
 235 539 235 539 265 539 c 0,29,30
 282 539 282 539 297 527 c 0,31,32
 314 514 314 514 314 475 c 0,33,34
 314 456 314 456 311 426 c 0,35,36
 306 358 306 358 275 270 c 0,37,38
 256 214 256 214 236 192 c 0,39,40
 222 177 222 177 196 151 c 128,-1,41
 170 125 170 125 169 125 c 0,42,43
 166 125 166 125 146 115 c 0,44,45
 128 108 128 108 121 108 c 0,46,47
 105 108 105 108 79 131 c 0,48,49
 66 142 66 142 62.5 149 c 128,-1,50
 59 156 59 156 56 177 c 0,51,52
 54 197 54 197 54 201 c 0,53,54
 54 215 54 215 61 242 c 0,55,56
 102 418 102 418 131 462 c 0,57,58
 138 474 138 474 155.5 490 c 128,-1,59
 173 506 173 506 178 506 c 0,60,61
 184 506 184 506 190 503.5 c 128,-1,62
 196 501 196 501 198 501 c 0,63,64
 203 501 203 501 212 512 c 0,27,28
EndSplineSet
Validated: 1
EndChar

StartChar: one
Encoding: 49 49 15
Width: 406
GlyphClass: 1
Flags: W
LayerCount: 2
Fore
SplineSet
282 547 m 0,0,1
 296 558 296 558 300 558 c 0,2,3
 302 558 302 558 310 554 c 0,4,5
 325 546 325 546 325 487 c 0,6,7
 325 449 325 449 318 435 c 0,8,9
 317 433 317 433 286 340 c 0,10,11
 262 274 262 274 242 191 c 0,12,13
 238 177 238 177 224 147 c 128,-1,14
 210 117 210 117 204 109 c 0,15,16
 199 104 199 104 202 102 c 0,17,18
 207 102 207 102 267 115.5 c 128,-1,19
 327 129 327 129 330 131 c 0,20,21
 335 134 335 134 342.5 130.5 c 128,-1,22
 350 127 350 127 350 121 c 0,23,24
 350 114 350 114 337 101.5 c 128,-1,25
 324 89 324 89 310 83 c 0,26,27
 209 42 209 42 169 32 c 0,28,29
 125 20 125 20 114 17 c 0,30,31
 102 14 102 14 93 14 c 0,32,33
 79 14 79 14 67 26 c 0,34,35
 56 37 56 37 56 55 c 0,36,37
 56 70 56 70 64 78 c 128,-1,38
 72 86 72 86 102 86 c 2,39,-1
 131 86 l 1,40,-1
 136 109 l 2,41,42
 137 112 137 112 139.5 123.5 c 128,-1,43
 142 135 142 135 144.5 146 c 128,-1,44
 147 157 147 157 150 165 c 0,45,46
 158 191 158 191 186 274 c 128,-1,47
 214 357 214 357 220 371 c 0,48,49
 232 399 232 399 232 415 c 0,50,51
 232 419 232 419 223 415 c 0,52,53
 217 411 217 411 211 417 c 0,54,55
 209 419 209 419 209 422 c 0,56,57
 209 428 209 428 222 448 c 0,58,59
 248 493 248 493 253 505 c 0,60,61
 269 537 269 537 282 547 c 0,0,1
EndSplineSet
Validated: 1
EndChar

StartChar: two
Encoding: 50 50 16
Width: 482
GlyphClass: 1
Flags: W
LayerCount: 2
Fore
SplineSet
213 517 m 0,0,1
 223 520 223 520 236 520 c 0,2,3
 250 520 250 520 261 519 c 0,4,5
 272 519 272 519 287 504 c 128,-1,6
 302 489 302 489 302 468 c 0,7,8
 302 441 302 441 273 391 c 0,9,10
 267 379 267 379 252 348 c 128,-1,11
 237 317 237 317 225.5 293.5 c 128,-1,12
 214 270 214 270 209 262 c 0,13,14
 206 258 206 258 195 239 c 128,-1,15
 184 220 184 220 177 213 c 0,16,17
 173 209 173 209 165.5 197 c 128,-1,18
 158 185 158 185 160 183 c 0,19,20
 179 184 179 184 201 187 c 0,21,22
 354 208 354 208 400 208 c 0,23,24
 424 208 424 208 426 203 c 0,25,26
 426 202 426 202 426 202 c 1,27,-1
 427 200 l 1,28,29
 427 185 427 185 395 169 c 0,30,31
 367 156 367 156 248 135 c 0,32,33
 214 129 214 129 181 122 c 128,-1,34
 148 115 148 115 131 112 c 0,35,36
 99 107 99 107 95 107 c 0,37,38
 89 107 89 107 76 115 c 0,39,40
 62 124 62 124 63 130 c 0,41,42
 63 136 63 136 60 139 c 0,43,44
 56 141 56 141 56 157 c 0,45,46
 56 172 56 172 71 184 c 0,47,48
 106 210 106 210 141 260 c 0,49,50
 160 289 160 289 198.5 365.5 c 128,-1,51
 237 442 237 442 237 452 c 0,52,53
 237 457 237 457 227 457 c 0,54,55
 218 457 218 457 200 453 c 0,56,57
 181 451 181 451 167 437 c 0,58,59
 155 425 155 425 144 425 c 0,60,61
 121 425 121 425 121 458 c 0,62,63
 121 477 121 477 131 487 c 0,64,65
 139 495 139 495 139 498 c 0,66,67
 139 502 139 502 151 506 c 128,-1,68
 163 510 163 510 173 510 c 0,69,70
 185 510 185 510 189 514 c 0,71,72
 190 516 190 516 194 516.5 c 128,-1,73
 198 517 198 517 203 516 c 128,-1,74
 208 515 208 515 213 517 c 0,0,1
EndSplineSet
Validated: 1
EndChar

StartChar: three
Encoding: 51 51 17
Width: 470
GlyphClass: 1
Flags: W
LayerCount: 2
Fore
SplineSet
241 491 m 0,0,1
 268 498 268 498 297 498 c 0,2,3
 324 498 324 498 353 492 c 0,4,5
 379 487 379 487 388 481.5 c 128,-1,6
 397 476 397 476 407 459 c 0,7,8
 412 449 412 449 412 441 c 0,9,10
 412 425 412 425 389 398 c 2,11,-1
 368 375 l 1,12,-1
 391 354 l 2,13,14
 408 339 408 339 411.5 333 c 128,-1,15
 415 327 415 327 416 309 c 0,16,17
 417 304 417 304 417 294 c 0,18,19
 417 281 417 281 414 275 c 0,20,21
 413 273 413 273 410 266.5 c 128,-1,22
 407 260 407 260 401.5 248.5 c 128,-1,23
 396 237 396 237 392 229 c 0,24,25
 362 165 362 165 320 138 c 0,26,27
 282 111 282 111 211 103 c 0,28,29
 185 101 185 101 162 101 c 0,30,31
 108 101 108 101 88 106 c 0,32,33
 77 109 77 109 66.5 117 c 128,-1,34
 56 125 56 125 56 131 c 0,35,36
 56 141 56 141 66 143 c 128,-1,37
 76 145 76 145 118 147 c 0,38,39
 197 150 197 150 256 173 c 0,40,41
 278 182 278 182 308 212 c 128,-1,42
 338 242 338 242 338 246 c 0,43,44
 338 254 338 254 348 274 c 2,45,-1
 359 296 l 1,46,-1
 348 306 l 2,47,48
 337 315 337 315 320 311 c 128,-1,49
 303 307 303 307 298 302 c 0,50,51
 291 295 291 295 276 295 c 0,52,53
 268 295 268 295 263 298 c 0,54,55
 258 302 258 302 252 315.5 c 128,-1,56
 246 329 246 329 246 339 c 0,57,58
 246 351 246 351 288 388 c 0,59,60
 324 420 324 420 324 425 c 0,61,62
 324 426 324 426 320 428 c 0,63,64
 314 430 314 430 305 430 c 0,65,66
 280 430 280 430 248 421 c 128,-1,67
 216 412 216 412 210 412 c 0,68,69
 202 412 202 412 195 421 c 0,70,71
 187 432 187 432 187 449 c 0,72,73
 187 460 187 460 191 467 c 0,74,75
 198 481 198 481 241 491 c 0,0,1
EndSplineSet
Validated: 1
EndChar

StartChar: four
Encoding: 52 52 18
Width: 365
GlyphClass: 1
Flags: W
LayerCount: 2
Fore
SplineSet
187 542 m 0,0,1
 199 557 199 557 203 558 c 0,2,3
 204 558 204 558 207.5 557.5 c 128,-1,4
 211 557 211 557 213 557 c 0,5,6
 231 555 231 555 237.5 547.5 c 128,-1,7
 244 540 244 540 244 521 c 128,-1,8
 244 502 244 502 227 469 c 0,9,10
 214 444 214 444 202 411 c 0,11,12
 200 407 200 407 186.5 380.5 c 128,-1,13
 173 354 173 354 162 331 c 128,-1,14
 151 308 151 308 151 301 c 0,15,16
 151 300 151 300 153 300 c 0,17,18
 163 300 163 300 194 318 c 0,19,20
 218 334 218 334 224 344 c 0,21,22
 241 369 241 369 248 429 c 0,23,24
 250 449 250 449 260 454 c 0,25,26
 268 458 268 458 275 458 c 0,27,28
 285 458 285 458 295 447 c 0,29,30
 305 437 305 437 308 413 c 0,31,32
 308 411 308 411 308.5 407 c 128,-1,33
 309 403 309 403 309 401 c 0,34,35
 309 385 309 385 297 358 c 0,36,37
 295 354 295 354 291 343 c 128,-1,38
 287 332 287 332 283 320 c 128,-1,39
 279 308 279 308 278 304 c 0,40,41
 226 173 226 173 226 140 c 0,42,43
 226 133 226 133 209.5 97.5 c 128,-1,44
 193 62 193 62 190 62 c 0,45,46
 178 62 178 62 178 99 c 0,47,48
 178 146 178 146 194 204 c 0,49,50
 201 232 201 232 201 233 c 0,51,52
 201 238 201 238 197 238 c 0,53,54
 195 238 195 238 187 233 c 0,55,56
 173 225 173 225 135 219 c 0,57,58
 110 214 110 214 97 214 c 0,59,60
 89 214 89 214 81 218 c 0,61,62
 56 232 56 232 54 251 c 0,63,64
 54 252 54 252 53.5 256 c 128,-1,65
 53 260 53 260 53 261 c 0,66,67
 53 284 53 284 63 294 c 2,68,-1
 89 320 l 2,69,70
 109 340 109 340 110 348 c 0,71,72
 112 359 112 359 115 362 c 0,73,74
 129 380 129 380 151 435 c 0,75,76
 163 467 163 467 168 477 c 0,77,78
 172 486 172 486 176 502 c 128,-1,79
 180 518 180 518 179 523 c 0,80,81
 179 528 179 528 187 542 c 0,0,1
EndSplineSet
Validated: 1
EndChar

StartChar: five
Encoding: 53 53 19
Width: 351
GlyphClass: 1
Flags: W
LayerCount: 2
Fore
SplineSet
229 494 m 128,-1,1
 233 494 233 494 240.5 500.5 c 128,-1,2
 248 507 248 507 252 508 c 128,-1,3
 256 509 256 509 264 509 c 0,4,5
 292 509 292 509 297 470 c 0,6,7
 298 465 298 465 298 457 c 128,-1,8
 298 449 298 449 288 440 c 0,9,10
 277 431 277 431 263 429 c 0,11,12
 223 423 223 423 213 413 c 0,13,14
 207 407 207 407 202 407 c 128,-1,15
 197 407 197 407 186 393 c 128,-1,16
 175 379 175 379 175 373 c 0,17,18
 175 368 175 368 190 370 c 0,19,20
 202 373 202 373 223 373 c 0,21,22
 234 373 234 373 239.5 370 c 128,-1,23
 245 367 245 367 256 355 c 0,24,25
 271 339 271 339 277 320.5 c 128,-1,26
 283 302 283 302 287 262 c 0,27,28
 289 236 289 236 289 226 c 0,29,30
 289 181 289 181 277 154 c 0,31,32
 266 134 266 134 239 120 c 0,33,34
 190 94 190 94 133 94 c 0,35,36
 106 94 106 94 90 99 c 0,37,38
 70 104 70 104 70 112 c 0,39,40
 70 127 70 127 126 143 c 0,41,42
 127 143 127 143 130 144 c 128,-1,43
 133 145 133 145 137.5 146.5 c 128,-1,44
 142 148 142 148 146 149 c 0,45,46
 166 155 166 155 190 168 c 128,-1,47
 214 181 214 181 221 190 c 0,48,49
 229 201 229 201 229 229 c 0,50,51
 229 260 229 260 221 280 c 2,52,-1
 213 301 l 1,53,-1
 193 299 l 2,54,55
 158 295 158 295 134 268 c 0,56,57
 102 233 102 233 92 233 c 0,58,59
 91 233 91 233 79 237 c 0,60,61
 70 241 70 241 62 255 c 128,-1,62
 54 269 54 269 54 280 c 0,63,64
 54 306 54 306 75 327 c 0,65,66
 101 354 101 354 108 401 c 0,67,68
 114 435 114 435 116.5 442.5 c 128,-1,69
 119 450 119 450 126 457 c 0,70,71
 136 466 136 466 159 469 c 0,72,73
 182 473 182 473 203 483 c 0,74,0
 225 494 225 494 229 494 c 128,-1,1
EndSplineSet
Validated: 1
EndChar

StartChar: six
Encoding: 54 54 20
Width: 385
GlyphClass: 1
Flags: W
LayerCount: 2
Fore
SplineSet
268 250 m 128,-1,1
 266 252 266 252 235 254 c 2,2,-1
 224 254 l 2,3,4
 165 254 165 254 151 235 c 0,5,6
 146 227 146 227 146 203 c 0,7,8
 146 171 146 171 153 164 c 128,-1,9
 160 157 160 157 187 157 c 0,10,11
 211 157 211 157 223 163 c 0,12,13
 227 165 227 165 231.5 166.5 c 128,-1,14
 236 168 236 168 238 168 c 2,15,-1
 240 168 l 1,16,-1
 241 167 l 2,17,18
 244 167 244 167 253 180 c 128,-1,19
 262 193 262 193 265 202 c 0,20,21
 270 222 270 222 270 238 c 0,22,0
 270 248 270 248 268 250 c 128,-1,1
282 543 m 0,23,24
 288 546 288 546 301 546 c 0,25,26
 312 546 312 546 315 543 c 0,27,28
 330 533 330 533 330 502 c 0,29,30
 330 488 330 488 324 484 c 0,31,32
 321 482 321 482 321 475 c 128,-1,33
 321 468 321 468 286 440 c 0,34,35
 259 418 259 418 234 393 c 128,-1,36
 209 368 209 368 209 363 c 0,37,38
 209 360 209 360 201 350 c 0,39,40
 195 342 195 342 180.5 317.5 c 128,-1,41
 166 293 166 293 166 290 c 0,42,43
 172 289 172 289 181 289 c 0,44,45
 185 289 185 289 197 289.5 c 128,-1,46
 209 290 209 290 217 290 c 0,47,48
 230 291 230 291 249 291 c 0,49,50
 270 291 270 291 279.5 287 c 128,-1,51
 289 283 289 283 301 270 c 0,52,53
 312 259 312 259 312 228 c 0,54,55
 312 202 312 202 305 175 c 0,56,57
 297 142 297 142 282 129 c 0,58,59
 258 107 258 107 219 94 c 0,60,61
 193 86 193 86 176 86 c 0,62,63
 165 86 165 86 159 89 c 0,64,65
 136 100 136 100 130 103 c 0,66,67
 106 115 106 115 96 130 c 0,68,69
 84 151 84 151 76 179 c 0,70,71
 71 197 71 197 71 214 c 0,72,73
 71 229 71 229 63 229 c 128,-1,74
 55 229 55 229 55 235 c 0,75,76
 55 242 55 242 66.5 255 c 128,-1,77
 78 268 78 268 82 268 c 0,78,79
 84 268 84 268 95 290 c 128,-1,80
 106 312 106 312 106 317 c 0,81,82
 106 320 106 320 113 331 c 0,83,84
 115 334 115 334 123 345 c 128,-1,85
 131 356 131 356 142.5 373.5 c 128,-1,86
 154 391 154 391 166 409 c 0,87,88
 176 426 176 426 226 475 c 0,89,90
 242 491 242 491 260 517 c 0,91,92
 277 541 277 541 282 543 c 0,23,24
EndSplineSet
Validated: 1
EndChar

StartChar: seven
Encoding: 55 55 21
Width: 438
GlyphClass: 1
Flags: W
LayerCount: 2
Fore
SplineSet
319 604 m 0,0,1
 330 610 330 610 344 610 c 0,2,3
 364 610 364 610 372 599 c 0,4,5
 377 592 377 592 381 577 c 0,6,7
 383 572 383 572 383 565 c 0,8,9
 383 557 383 557 375 540 c 0,10,11
 367 522 367 522 352 478.5 c 128,-1,12
 337 435 337 435 337 428 c 0,13,14
 337 424 337 424 356 422 c 0,15,16
 369 421 369 421 372 419.5 c 128,-1,17
 375 418 375 418 376 409 c 0,18,19
 377 397 377 397 368 392 c 0,20,21
 333 374 333 374 325 366.5 c 128,-1,22
 317 359 317 359 310 336 c 0,23,24
 303 315 303 315 247 167 c 0,25,26
 237 139 237 139 227 123 c 0,27,28
 207 86 207 86 188 86 c 0,29,30
 179 86 179 86 171 96 c 0,31,32
 165 102 165 102 165 111 c 0,33,34
 165 125 165 125 184 164 c 0,35,36
 194 182 194 182 204.5 213 c 128,-1,37
 215 244 215 244 220 256 c 0,38,39
 226 267 226 267 236.5 297.5 c 128,-1,40
 247 328 247 328 253 338 c 0,41,42
 258 348 258 348 258 350 c 0,43,44
 258 353 258 353 253 353 c 0,45,46
 252 353 252 353 238 351 c 0,47,48
 228 348 228 348 217 348 c 0,49,50
 189 348 189 348 183 362 c 0,51,52
 179 370 179 370 179 378 c 0,53,54
 179 406 179 406 241 415 c 0,55,56
 268 418 268 418 273 421.5 c 128,-1,57
 278 425 278 425 285 444 c 0,58,59
 303 500 303 500 304 515 c 2,60,-1
 306 535 l 1,61,-1
 287 533 l 2,62,63
 273 532 273 532 246.5 527 c 128,-1,64
 220 522 220 522 196 521 c 0,65,66
 137 517 137 517 104 510 c 0,67,68
 92 508 92 508 88 508 c 0,69,70
 64 508 64 508 56 531 c 0,71,72
 54 537 54 537 54 542 c 0,73,74
 54 570 54 570 69 575 c 0,75,76
 84 579 84 579 138 582 c 0,77,78
 301 592 301 592 319 604 c 0,0,1
EndSplineSet
Validated: 1
EndChar

StartChar: eight
Encoding: 56 56 22
Width: 363
GlyphClass: 1
Flags: W
LayerCount: 2
Fore
SplineSet
239 315 m 0,0,1
 226 328 226 328 222 318 c 0,2,3
 221 315 221 315 214 311 c 128,-1,4
 207 307 207 307 200.5 304 c 128,-1,5
 194 301 194 301 185 297.5 c 128,-1,6
 176 294 176 294 174 293 c 0,7,8
 162 288 162 288 145.5 269.5 c 128,-1,9
 129 251 129 251 129 242 c 128,-1,10
 129 233 129 233 125 231 c 0,11,12
 121 227 121 227 121 213 c 0,13,14
 121 188 121 188 128 178 c 0,15,16
 134 169 134 169 151 169 c 0,17,18
 178 169 178 169 229 221 c 0,19,20
 256 248 256 248 258 266 c 0,21,22
 259 270 259 270 259 277 c 0,23,24
 259 292 259 292 239 315 c 0,0,1
221 496 m 0,25,26
 216 506 216 506 208 506 c 0,27,28
 198 506 198 506 177 494 c 0,29,30
 133 469 133 469 133 431 c 0,31,32
 133 402 133 402 148 380 c 0,33,34
 149 379 149 379 160 384 c 0,35,36
 181 395 181 395 213 460 c 0,37,38
 223 481 223 481 223 488 c 0,39,40
 223 490 223 490 221 496 c 0,25,26
189 567 m 0,41,42
 198 572 198 572 210 572 c 0,43,44
 226 572 226 572 246 559 c 0,45,46
 280 537 280 537 283 489 c 0,47,48
 283 486 283 486 283.5 482.5 c 128,-1,49
 284 479 284 479 284 477 c 0,50,51
 284 462 284 462 263 421 c 0,52,53
 244 384 244 384 244 378 c 0,54,55
 244 374 244 374 249 371 c 0,56,57
 310 326 310 326 310 274 c 0,58,59
 310 237 310 237 281 193 c 0,60,61
 262 165 262 165 232 136 c 128,-1,62
 202 107 202 107 183 100 c 0,63,64
 174 96 174 96 151 96 c 0,65,66
 106 96 106 96 106 106 c 0,67,68
 106 110 106 110 100 110 c 0,69,70
 96 110 96 110 83 123 c 0,71,72
 73 133 73 133 63.5 163.5 c 128,-1,73
 54 194 54 194 54 217 c 0,74,75
 54 254 54 254 69 269 c 0,76,77
 74 274 74 274 74 277 c 0,78,79
 74 281 74 281 92 308 c 0,80,81
 109 334 109 334 109 342 c 0,82,83
 109 349 109 349 102 356 c 0,84,85
 84 380 84 380 84 435 c 2,86,-1
 84 473 l 1,87,-1
 102 500 l 2,88,89
 120 527 120 527 133 535 c 0,90,91
 144 542 144 542 154.5 548 c 128,-1,92
 165 554 165 554 175 559.5 c 128,-1,93
 185 565 185 565 189 567 c 0,41,42
EndSplineSet
Validated: 1
EndChar

StartChar: nine
Encoding: 57 57 23
Width: 394
GlyphClass: 1
Flags: W
LayerCount: 2
Fore
SplineSet
247 471 m 0,0,1
 250 471 250 471 256 479 c 128,-1,2
 262 487 262 487 266 487 c 128,-1,3
 270 487 270 487 274 496.5 c 128,-1,4
 278 506 278 506 278 516 c 0,5,6
 278 520 278 520 276 526 c 0,7,8
 271 534 271 534 244 534 c 0,9,10
 216 534 216 534 214 530 c 128,-1,11
 212 526 212 526 203 526 c 0,12,13
 198 526 198 526 190.5 520 c 128,-1,14
 183 514 183 514 179 514 c 128,-1,15
 175 514 175 514 143 486 c 0,16,17
 123 468 123 468 117 459 c 128,-1,18
 111 450 111 450 109 438 c 0,19,20
 106 420 106 420 108 413 c 0,21,22
 110 407 110 407 118.5 405 c 128,-1,23
 127 403 127 403 130 408 c 128,-1,24
 133 413 133 413 133 408 c 0,25,26
 133 404 133 404 140 404 c 0,27,28
 150 404 150 404 179 417 c 0,29,30
 201 427 201 427 203 427 c 0,31,32
 208 427 208 427 218 437.5 c 128,-1,33
 228 448 228 448 228 452 c 0,34,35
 228 457 228 457 235 464 c 128,-1,36
 242 471 242 471 247 471 c 0,0,1
240 600 m 0,37,38
 241 601 241 601 245 601 c 0,39,40
 266 601 266 601 283 587 c 0,41,42
 306 570 306 570 317 552 c 128,-1,43
 328 534 328 534 332 507 c 0,44,45
 338 472 338 472 338 460 c 0,46,47
 338 446 338 446 322 423 c 0,48,49
 316 413 316 413 308 387 c 0,50,51
 303 369 303 369 286 312 c 128,-1,52
 269 255 269 255 262 231 c 0,53,54
 261 228 261 228 255.5 206 c 128,-1,55
 250 184 250 184 247 172 c 0,56,57
 233 122 233 122 216 83 c 128,-1,58
 199 44 199 44 188 37 c 0,59,60
 184 35 184 35 182 35 c 0,61,62
 169 35 169 35 169 61 c 0,63,64
 169 76 169 76 175 92 c 128,-1,65
 181 108 181 108 188 145 c 0,66,67
 201 213 201 213 222 298 c 0,68,69
 222 302 222 302 234 340 c 0,70,71
 242 361 242 361 242 375 c 0,72,73
 242 380 242 380 240 380 c 128,-1,74
 238 380 238 380 235 375 c 0,75,76
 224 361 224 361 176 344 c 0,77,78
 131 329 131 329 115 329 c 0,79,80
 109 329 109 329 109 331 c 0,81,82
 108 332 108 332 93 340 c 0,83,84
 60 356 60 356 55 423 c 0,85,86
 54 431 54 431 54 443 c 0,87,88
 54 458 54 458 64 479 c 0,89,90
 71 493 71 493 94 517.5 c 128,-1,91
 117 542 117 542 126 546 c 0,92,93
 128 546 128 546 140 556 c 0,94,95
 150 566 150 566 180 580 c 128,-1,96
 210 594 210 594 223 596 c 0,97,98
 238 598 238 598 240 600 c 0,37,38
EndSplineSet
Validated: 1
EndChar

StartChar: colon
Encoding: 58 58 24
Width: 195
GlyphClass: 1
Flags: W
LayerCount: 2
Fore
SplineSet
79 598 m 2,0,-1
 80 598 l 2,1,2
 82 599 82 599 83 599 c 0,3,4
 93 599 93 599 106 589 c 128,-1,5
 119 579 119 579 124 567 c 0,6,7
 127 560 127 560 127 551 c 0,8,9
 127 534 127 534 117 519.5 c 128,-1,10
 107 505 107 505 96 505 c 2,11,-1
 93 505 l 1,12,13
 69 512 69 512 60 523 c 128,-1,14
 51 534 51 534 51 559 c 0,15,16
 51 581 51 581 62 589 c 0,17,18
 72 596 72 596 79 598 c 2,0,-1
70 246 m 0,19,20
 83 256 83 256 93 256 c 0,21,22
 104 256 104 256 119 245.5 c 128,-1,23
 134 235 134 235 138 224 c 0,24,25
 141 217 141 217 141 212 c 0,26,27
 141 205 141 205 134 188 c 0,28,29
 126 165 126 165 111 159 c 0,30,31
 98 153 98 153 83 160 c 0,32,33
 51 178 51 178 51 211 c 0,34,35
 51 234 51 234 70 246 c 0,19,20
EndSplineSet
Validated: 1
EndChar

StartChar: semicolon
Encoding: 59 59 25
Width: 257
GlyphClass: 1
Flags: W
LayerCount: 2
Fore
SplineSet
128 630 m 0,0,1
 134 633 134 633 141 633 c 0,2,3
 158 633 158 633 172.5 616.5 c 128,-1,4
 187 600 187 600 187 579 c 0,5,6
 187 562 187 562 173 548 c 0,7,8
 160 535 160 535 147 535 c 0,9,10
 137 535 137 535 124 546 c 0,11,12
 112 556 112 556 112 563 c 128,-1,13
 112 570 112 570 107 570 c 0,14,15
 104 570 104 570 104 576 c 0,16,17
 104 587 104 587 112.5 606.5 c 128,-1,18
 121 626 121 626 128 630 c 0,0,1
141 262 m 0,19,20
 155 272 155 272 163 272 c 0,21,22
 170 272 170 272 180 263 c 0,23,24
 204 243 204 243 204 200 c 2,25,-1
 204 192 l 2,26,27
 203 154 203 154 189.5 130.5 c 128,-1,28
 176 107 176 107 142 84 c 0,29,30
 103 59 103 59 81 59 c 0,31,32
 68 59 68 59 62 68 c 0,33,34
 55 78 55 78 61 87 c 0,35,36
 74 103 74 103 96 121 c 0,37,38
 137 156 137 156 137 170 c 0,39,40
 137 174 137 174 125 188 c 0,41,42
 115 198 115 198 115 218 c 0,43,44
 115 235 115 235 119.5 242.5 c 128,-1,45
 124 250 124 250 141 262 c 0,19,20
EndSplineSet
Validated: 1
EndChar

StartChar: question
Encoding: 63 63 26
Width: 302
GlyphClass: 1
Flags: W
LayerCount: 2
Fore
SplineSet
129 664 m 0,0,1
 147 670 147 670 164 670 c 0,2,3
 197 670 197 670 219.5 648 c 128,-1,4
 242 626 242 626 246 587 c 0,5,6
 247 582 247 582 247 574 c 0,7,8
 247 553 247 553 235 534 c 128,-1,9
 223 515 223 515 192 485 c 0,10,11
 164 458 164 458 158.5 450.5 c 128,-1,12
 153 443 153 443 153 431 c 0,13,14
 153 416 153 416 157 400 c 0,15,16
 169 356 169 356 169 330 c 0,17,18
 169 318 169 318 166 310 c 0,19,20
 162 298 162 298 153.5 289 c 128,-1,21
 145 280 145 280 138 280 c 0,22,23
 133 280 133 280 119 294 c 0,24,25
 110 304 110 304 105.5 317 c 128,-1,26
 101 330 101 330 98 353.5 c 128,-1,27
 95 377 95 377 93 387 c 0,28,29
 88 414 88 414 88 429 c 0,30,31
 88 473 88 473 124 508 c 0,32,33
 157 538 157 538 166 546 c 0,34,35
 189 568 189 568 189 581 c 0,36,37
 189 591 189 591 182 598 c 0,38,39
 176 605 176 605 164 605 c 0,40,41
 153 605 153 605 138 601 c 0,42,43
 126 598 126 598 119.5 592.5 c 128,-1,44
 113 587 113 587 92 560 c 2,45,-1
 83 549 l 1,46,-1
 70 560 l 2,47,48
 54 573 54 573 54 592 c 0,49,50
 54 613 54 613 74.5 633.5 c 128,-1,51
 95 654 95 654 129 664 c 0,0,1
125 207 m 0,52,53
 130 213 130 213 139 213 c 0,54,55
 153 213 153 213 166.5 200 c 128,-1,56
 180 187 180 187 181 171 c 2,57,-1
 181 157 l 2,58,59
 181 138 181 138 170 131 c 0,60,61
 160 124 160 124 147 124 c 0,62,63
 130 124 130 124 116 135.5 c 128,-1,64
 102 147 102 147 102 163 c 0,65,66
 102 164 102 164 102.5 166 c 128,-1,67
 103 168 103 168 103 169 c 0,68,69
 109 201 109 201 115 201 c 0,70,71
 119 201 119 201 125 207 c 0,52,53
EndSplineSet
Validated: 1
EndChar

StartChar: at
Encoding: 64 64 27
Width: 533
GlyphClass: 1
Flags: W
LayerCount: 2
Fore
SplineSet
330 523 m 0,0,1
 336 526 336 526 338.5 525.5 c 128,-1,2
 341 525 341 525 359 520 c 0,3,4
 400 509 400 509 403 463 c 2,5,-1
 403 453 l 2,6,7
 403 435 403 435 400 426 c 0,8,9
 394 409 394 409 363.5 377 c 128,-1,10
 333 345 333 345 310 332 c 0,11,12
 282 316 282 316 238 312 c 0,13,14
 211 309 211 309 199 309 c 0,15,16
 188 309 188 309 180 312 c 0,17,18
 153 322 153 322 153 346 c 0,19,20
 153 355 153 355 157 366 c 0,21,22
 166 387 166 387 186 387 c 0,23,24
 195 387 195 387 207 384 c 0,25,26
 219 382 219 382 224 382 c 0,27,28
 243 382 243 382 252 394 c 0,29,30
 264 408 264 408 290 408 c 0,31,32
 296 408 296 408 297 407 c 0,33,34
 300 404 300 404 308 404 c 0,35,36
 331 404 331 404 346 416 c 0,37,38
 357 423 357 423 357 440 c 0,39,40
 357 455 357 455 347 459 c 0,41,42
 337 462 337 462 329 459 c 0,43,44
 324 457 324 457 264 449 c 0,45,46
 251 448 251 448 236.5 441.5 c 128,-1,47
 222 435 222 435 222 431 c 128,-1,48
 222 427 222 427 217 427 c 0,49,50
 209 427 209 427 191 417.5 c 128,-1,51
 173 408 173 408 164 398 c 0,52,53
 157 391 157 391 144.5 367.5 c 128,-1,54
 132 344 132 344 128 339 c 0,55,56
 123 334 123 334 123 318 c 0,57,58
 123 303 123 303 127 298 c 0,59,60
 133 291 133 291 169 280 c 128,-1,61
 205 269 205 269 221 269 c 0,62,63
 226 269 226 269 227 270 c 0,64,65
 232 273 232 273 246 275 c 0,66,67
 253 276 253 276 268 282 c 128,-1,68
 283 288 283 288 291 288 c 0,69,70
 298 288 298 288 298 292 c 128,-1,71
 298 296 298 296 301 296 c 0,72,73
 310 296 310 296 334 311 c 0,74,75
 360 327 360 327 389 350 c 0,76,77
 401 361 401 361 417 361 c 0,78,79
 432 361 432 361 442.5 349.5 c 128,-1,80
 453 338 453 338 453 320 c 0,81,82
 453 310 453 310 460 307 c 0,83,84
 467 305 467 305 474 295 c 128,-1,85
 481 285 481 285 476 270 c 0,86,87
 467 240 467 240 428 240 c 0,88,89
 410 240 410 240 396 253 c 2,90,-1
 383 265 l 1,91,-1
 366 256 l 2,92,93
 354 250 354 250 334 235 c 0,94,95
 309 215 309 215 280 211 c 0,96,97
 256 207 256 207 237 198 c 0,98,99
 215 189 215 189 195 189 c 0,100,101
 180 189 180 189 169 190 c 0,102,103
 125 194 125 194 116 198 c 2,104,-1
 94 209 l 2,105,106
 60 224 60 224 60 254 c 0,107,108
 60 265 60 265 56.5 274 c 128,-1,109
 53 283 53 283 53 289 c 0,110,111
 53 296 53 296 56 308 c 0,112,113
 58 316 58 316 60.5 331 c 128,-1,114
 63 346 63 346 64.5 352.5 c 128,-1,115
 66 359 66 359 70 369.5 c 128,-1,116
 74 380 74 380 81 389 c 0,117,118
 91 401 91 401 91 406 c 128,-1,119
 91 411 91 411 100.5 427 c 128,-1,120
 110 443 110 443 118 452 c 0,121,122
 133 468 133 468 182 487 c 128,-1,123
 231 506 231 506 256 506 c 0,124,125
 266 506 266 506 294.5 512.5 c 128,-1,126
 323 519 323 519 330 523 c 0,0,1
EndSplineSet
Validated: 1
EndChar

StartChar: A
Encoding: 65 65 28
Width: 583
GlyphClass: 1
Flags: W
LayerCount: 2
Fore
SplineSet
288 481 m 0,0,1
 288 485 288 485 281 494 c 0,2,3
 276 500 276 500 273 500 c 0,4,5
 267 500 267 500 260 475 c 0,6,7
 255 459 255 459 241 423 c 128,-1,8
 227 387 227 387 216 358 c 128,-1,9
 205 329 205 329 205 320 c 0,10,11
 205 318 205 318 206 317 c 0,12,13
 208 315 208 315 264 315 c 0,14,15
 303 315 303 315 341 316.5 c 128,-1,16
 379 318 379 318 378 319 c 2,17,-1
 327 421 l 2,18,19
 322 432 322 432 305 455 c 0,20,21
 288 475 288 475 288 481 c 0,0,1
259 675 m 0,22,23
 264 679 264 679 271 679 c 0,24,25
 295 679 295 679 304 613 c 0,26,27
 313 553 313 553 355 491 c 0,28,29
 383 449 383 449 414 379 c 0,30,31
 426 355 426 355 435 331 c 0,32,33
 439 321 439 321 442 318.5 c 128,-1,34
 445 316 445 316 455 316 c 0,35,36
 468 316 468 316 477 309.5 c 128,-1,37
 486 303 486 303 486 295 c 0,38,39
 486 286 486 286 478.5 275 c 128,-1,40
 471 264 471 264 463 262 c 0,41,42
 456 261 456 261 455 257 c 128,-1,43
 454 253 454 253 456 239 c 0,44,45
 459 216 459 216 479 168.5 c 128,-1,46
 499 121 499 121 506 121 c 0,47,48
 510 121 510 121 519 98 c 128,-1,49
 528 75 528 75 528 63 c 0,50,51
 528 33 528 33 508 22 c 0,52,53
 502 19 502 19 496 19 c 0,54,55
 477 19 477 19 466 35 c 0,56,57
 456 49 456 49 441.5 81 c 128,-1,58
 427 113 427 113 427 121 c 0,59,60
 427 128 427 128 420 146 c 0,61,62
 398 210 398 210 398 235 c 0,63,64
 398 249 398 249 394 251 c 0,65,66
 392 252 392 252 334 252 c 0,67,68
 289 252 289 252 247 247 c 128,-1,69
 205 242 205 242 200 237 c 0,70,71
 196 233 196 233 187 233 c 0,72,73
 179 233 179 233 174 218 c 0,74,75
 172 211 172 211 159 169 c 0,76,77
 137 94 137 94 134 52 c 0,78,79
 130 -20 130 -20 98 -20 c 0,80,81
 91 -20 91 -20 82 -17 c 0,82,83
 57 -8 57 -8 57 24 c 0,84,85
 57 36 57 36 61.5 55 c 128,-1,86
 66 74 66 74 70 80 c 2,87,-1
 81 110 l 2,88,89
 84 119 84 119 92.5 137.5 c 128,-1,90
 101 156 101 156 104 171 c 0,91,92
 107 182 107 182 113.5 203 c 128,-1,93
 120 224 120 224 122 233 c 0,94,95
 138 300 138 300 151 336 c 0,96,97
 157 354 157 354 162 370.5 c 128,-1,98
 167 387 167 387 169.5 394.5 c 128,-1,99
 172 402 172 402 177.5 416 c 128,-1,100
 183 430 183 430 193 453 c 0,101,102
 212 501 212 501 212 517 c 0,103,104
 212 519 212 519 211.5 524 c 128,-1,105
 211 529 211 529 211 532 c 2,106,-1
 211 545 l 2,107,108
 211 580 211 580 225 596 c 0,109,110
 232 603 232 603 232 608 c 0,111,112
 232 612 232 612 237 617 c 0,113,114
 240 620 240 620 247.5 646 c 128,-1,115
 255 672 255 672 259 675 c 0,22,23
EndSplineSet
Validated: 33
EndChar

StartChar: B
Encoding: 66 66 29
Width: 527
GlyphClass: 1
Flags: W
LayerCount: 2
Fore
SplineSet
331 394 m 0,0,1
 304 402 304 402 246 402 c 0,2,3
 224 402 224 402 222 400 c 0,4,5
 217 397 217 397 187 391 c 0,6,7
 154 386 154 386 133 370 c 0,8,9
 127 366 127 366 127 349 c 0,10,11
 127 343 127 343 127.5 334 c 128,-1,12
 128 325 128 325 129 307.5 c 128,-1,13
 130 290 130 290 131 275 c 0,14,15
 136 188 136 188 141 174 c 0,16,17
 145 162 145 162 145 155 c 0,18,19
 145 152 145 152 143 140 c 0,20,21
 139 116 139 116 139 74 c 0,22,23
 139 50 139 50 141 50 c 0,24,25
 149 50 149 50 173 62 c 0,26,27
 194 71 194 71 216.5 82.5 c 128,-1,28
 239 94 239 94 278 106 c 0,29,30
 324 120 324 120 355 144 c 0,31,32
 372 157 372 157 387.5 188.5 c 128,-1,33
 403 220 403 220 408 249 c 0,34,35
 411 269 411 269 411 293 c 0,36,37
 411 335 411 335 405 341 c 0,38,39
 401 345 401 345 401 352 c 0,40,41
 401 362 401 362 381.5 373.5 c 128,-1,42
 362 385 362 385 331 394 c 0,0,1
215 599 m 0,43,44
 197 607 197 607 173 607 c 0,45,46
 144 607 144 607 141 598 c 0,47,48
 139 591 139 591 134.5 538.5 c 128,-1,49
 130 486 130 486 129 482 c 0,50,51
 126 458 126 458 141 472 c 0,52,53
 144 474 144 474 170 494 c 0,54,55
 234 539 234 539 234 574 c 0,56,57
 234 580 234 580 231 585 c 0,58,59
 226 594 226 594 215 599 c 0,43,44
123 669 m 0,60,61
 147 675 147 675 169 675 c 0,62,63
 241 675 241 675 277 623 c 0,64,65
 291 601 291 601 291 574 c 0,66,67
 291 527 291 527 258 491 c 0,68,69
 246 479 246 479 248 475 c 0,70,71
 249 473 249 473 279 469 c 0,72,73
 337 463 337 463 363 451 c 0,74,75
 369 448 369 448 391 440 c 0,76,77
 439 423 439 423 456 373 c 0,78,79
 472 327 472 327 472 249 c 0,80,81
 472 232 472 232 470 218 c 0,82,83
 465 188 465 188 447 153 c 0,84,85
 440 139 440 139 418 111 c 128,-1,86
 396 83 396 83 385 74 c 128,-1,87
 374 65 374 65 340.5 49.5 c 128,-1,88
 307 34 307 34 299 34 c 0,89,90
 292 34 292 34 270.5 25 c 128,-1,91
 249 16 249 16 244 15 c 0,92,93
 233 11 233 11 208 0 c 0,94,95
 167 -19 167 -19 128 -19 c 0,96,97
 99 -19 99 -19 78 -7 c 128,-1,98
 57 5 57 5 56 18 c 0,99,100
 55 30 55 30 62 30 c 0,101,102
 64 30 64 30 66 29.5 c 128,-1,103
 68 29 68 29 69 29 c 0,104,105
 76 29 76 29 77.5 39 c 128,-1,106
 79 49 79 49 79 91 c 0,107,108
 79 164 79 164 80 179 c 0,109,110
 80 181 80 181 80.5 190 c 128,-1,111
 81 199 81 199 81 205 c 0,112,113
 81 222 81 222 79 252 c 0,114,115
 75 308 75 308 75 380 c 0,116,117
 75 425 75 425 77 441 c 0,118,119
 77 444 77 444 78 454.5 c 128,-1,120
 79 465 79 465 79.5 483 c 128,-1,121
 80 501 80 501 81 515 c 2,122,-1
 84 578 l 1,123,-1
 70 592 l 2,124,125
 55 607 55 607 55 623 c 0,126,127
 55 638 55 638 67 650 c 0,128,129
 78 661 78 661 86 661 c 0,130,131
 91 661 91 661 123 669 c 0,60,61
EndSplineSet
Validated: 1
EndChar

StartChar: C
Encoding: 67 67 30
Width: 546
GlyphClass: 1
Flags: W
LayerCount: 2
Fore
SplineSet
264 601 m 0,0,1
 272 609 272 609 287 609 c 0,2,3
 293 609 293 609 307 607 c 128,-1,4
 321 605 321 605 330.5 591.5 c 128,-1,5
 340 578 340 578 340 563 c 0,6,7
 340 553 340 553 336 546 c 0,8,9
 327 530 327 530 303 530 c 0,10,11
 290 530 290 530 263.5 521.5 c 128,-1,12
 237 513 237 513 223 504 c 0,13,14
 204 492 204 492 170 449 c 0,15,16
 137 412 137 412 133 390 c 0,17,18
 132 380 132 380 127 371 c 0,19,20
 119 355 119 355 119 290 c 0,21,22
 119 262 119 262 134 209 c 0,23,24
 138 195 138 195 153 175.5 c 128,-1,25
 168 156 168 156 179 148 c 0,26,27
 204 132 204 132 225.5 128 c 128,-1,28
 247 124 247 124 306 124 c 0,29,30
 379 124 379 124 392 129 c 0,31,32
 411 135 411 135 442 136 c 2,33,-1
 480 138 l 1,34,-1
 487 127 l 2,35,36
 493 114 493 114 489 101 c 0,37,38
 480 71 480 71 440 65 c 0,39,40
 356 52 356 52 347 48 c 0,41,42
 344 46 344 46 302.5 43.5 c 128,-1,43
 261 41 261 41 238 41 c 0,44,45
 217 41 217 41 179 60 c 0,46,47
 138 81 138 81 127.5 87.5 c 128,-1,48
 117 94 117 94 113 103 c 0,49,50
 108 113 108 113 104 113 c 0,51,52
 101 113 101 113 92 133 c 2,53,-1
 77 163 l 2,54,55
 54 211 54 211 54 290 c 0,56,57
 54 319 54 319 59 352 c 0,58,59
 67 401 67 401 78.5 426.5 c 128,-1,60
 90 452 90 452 121 490 c 0,61,62
 126 497 126 497 133.5 505.5 c 128,-1,63
 141 514 141 514 145 519 c 128,-1,64
 149 524 149 524 150 525 c 0,65,66
 164 544 164 544 192.5 565 c 128,-1,67
 221 586 221 586 240 592 c 0,68,69
 261 598 261 598 264 601 c 0,0,1
EndSplineSet
Validated: 1
EndChar

StartChar: D
Encoding: 68 68 31
Width: 498
GlyphClass: 1
Flags: W
LayerCount: 2
Fore
SplineSet
285 117 m 0,0,1
 288 117 288 117 299 125 c 128,-1,2
 310 133 310 133 312 133 c 128,-1,3
 314 133 314 133 335 152 c 0,4,5
 360 176 360 176 370.5 208.5 c 128,-1,6
 381 241 381 241 381 297 c 2,7,-1
 381 316 l 2,8,9
 381 346 381 346 378.5 356.5 c 128,-1,10
 376 367 376 367 364 392 c 0,11,12
 347 425 347 425 331 440 c 0,13,14
 317 452 317 452 312 460 c 0,15,16
 309 464 309 464 279 488.5 c 128,-1,17
 249 513 249 513 247 515 c 0,18,19
 237 525 237 525 186 533 c 2,20,-1
 162 535 l 1,21,-1
 157 492 l 2,22,23
 155 468 155 468 151.5 439.5 c 128,-1,24
 148 411 148 411 146 387 c 128,-1,25
 144 363 144 363 142.5 334.5 c 128,-1,26
 141 306 141 306 140 289 c 128,-1,27
 139 272 139 272 138 262 c 0,28,29
 136 226 136 226 136 171 c 2,30,-1
 136 122 l 1,31,-1
 137 86 l 1,32,-1
 163 88 l 2,33,34
 180 89 180 89 191 92 c 128,-1,35
 202 95 202 95 209 96 c 0,36,37
 279 106 279 106 279 114 c 0,38,39
 279 117 279 117 285 117 c 0,0,1
101 579 m 2,40,41
 105 584 105 584 112.5 593.5 c 128,-1,42
 120 603 120 603 124 608 c 1,43,-1
 163 606 l 2,44,45
 209 604 209 604 222 599 c 0,46,47
 242 593 242 593 266.5 581 c 128,-1,48
 291 569 291 569 291 565 c 0,49,50
 291 562 291 562 297 562 c 128,-1,51
 303 562 303 562 340.5 524 c 128,-1,52
 378 486 378 486 398 459 c 0,53,54
 420 429 420 429 431 393 c 0,55,56
 440 367 440 367 442 352 c 128,-1,57
 444 337 444 337 444 286 c 0,58,59
 444 212 444 212 440 204 c 0,60,61
 425 172 425 172 416 142 c 0,62,63
 408 121 408 121 407 121 c 0,64,65
 404 121 404 121 395.5 106 c 128,-1,66
 387 91 387 91 385 91 c 0,67,68
 379 87 379 87 379 84 c 0,69,70
 379 78 379 78 363.5 63.5 c 128,-1,71
 348 49 348 49 338 46 c 0,72,73
 335 45 335 45 309.5 33.5 c 128,-1,74
 284 22 284 22 274 22 c 0,75,76
 263 22 263 22 247 18 c 0,77,78
 232 14 232 14 215.5 12.5 c 128,-1,79
 199 11 199 11 175.5 10 c 128,-1,80
 152 9 152 9 137 8 c 0,81,82
 109 6 109 6 105 6 c 0,83,84
 88 6 88 6 77 13 c 0,85,86
 56 25 56 25 56 49 c 0,87,88
 56 58 56 58 59 67 c 0,89,90
 65 85 65 85 65 100 c 0,91,92
 65 122 65 122 71 155 c 0,93,94
 80 211 80 211 89 337 c 0,95,96
 92 389 92 389 95 394 c 0,97,98
 95 395 95 395 99 488 c 2,99,-1
 101 579 l 2,40,41
EndSplineSet
Validated: 1
EndChar

StartChar: E
Encoding: 69 69 32
Width: 536
GlyphClass: 1
Flags: W
LayerCount: 2
Fore
SplineSet
330 596 m 0,0,1
 333 599 333 599 341 596 c 0,2,3
 366 590 366 590 375 580 c 128,-1,4
 384 570 384 570 384 549 c 0,5,6
 384 533 384 533 382 529.5 c 128,-1,7
 380 526 380 526 366 519 c 0,8,9
 351 511 351 511 332 511 c 0,10,11
 316 511 316 511 306 516 c 0,12,13
 294 521 294 521 273 521 c 2,14,-1
 271 521 l 2,15,16
 249 521 249 521 193.5 510 c 128,-1,17
 138 499 138 499 123 492 c 2,18,-1
 108 485 l 1,19,-1
 110 445 l 2,20,21
 116 358 116 358 118 356 c 0,22,23
 119 355 119 355 175 355 c 0,24,25
 283 355 283 355 283 327 c 0,26,27
 283 316 283 316 272 305 c 0,28,29
 264 297 264 297 256 294.5 c 128,-1,30
 248 292 248 292 216 290 c 0,31,32
 178 287 178 287 166 287 c 0,33,34
 165 287 165 287 161.5 286 c 128,-1,35
 158 285 158 285 151.5 283 c 128,-1,36
 145 281 145 281 141 280 c 2,37,-1
 120 275 l 1,38,-1
 120 235 l 2,39,40
 120 223 120 223 119.5 200.5 c 128,-1,41
 119 178 119 178 119 173 c 0,42,43
 119 110 119 110 127 102 c 0,44,45
 130 99 130 99 157 95.5 c 128,-1,46
 184 92 184 92 200 92 c 2,47,-1
 206 92 l 1,48,49
 333 107 333 107 417 111 c 0,50,51
 430 112 430 112 447 112 c 0,52,53
 467 112 467 112 474 104 c 0,54,55
 481 97 481 97 481 77 c 0,56,57
 481 69 481 69 481 66.5 c 128,-1,58
 481 64 481 64 479.5 60.5 c 128,-1,59
 478 57 478 57 475.5 55 c 128,-1,60
 473 53 473 53 468 50 c 0,61,62
 452 41 452 41 424 40 c 0,63,64
 395 40 395 40 392 37 c 0,65,66
 392 36 392 36 387.5 36.5 c 128,-1,67
 383 37 383 37 379 38 c 0,68,69
 376 39 376 39 362 39 c 0,70,71
 308 39 308 39 243 27 c 0,72,73
 209 20 209 20 157 20 c 0,74,75
 141 20 141 20 99 22 c 0,76,77
 70 24 70 24 56 64 c 0,78,79
 49 86 49 86 51 90 c 0,80,81
 59 103 59 103 59 286 c 0,82,83
 59 372 59 372 56 411 c 0,84,85
 52 452 52 452 52 479 c 0,86,87
 52 507 52 507 59 520 c 0,88,89
 65 533 65 533 74 535 c 0,90,91
 81 537 81 537 81 545 c 0,92,93
 81 555 81 555 94 562.5 c 128,-1,94
 107 570 107 570 126 570 c 0,95,96
 149 570 149 570 185 579 c 0,97,98
 218 588 218 588 275 591 c 0,99,100
 329 595 329 595 330 596 c 0,0,1
EndSplineSet
Validated: 1
EndChar

StartChar: F
Encoding: 70 70 33
Width: 521
GlyphClass: 1
Flags: W
LayerCount: 2
Fore
SplineSet
399 637 m 0,0,1
 403 639 403 639 415 639 c 0,2,3
 432 639 432 639 441 634 c 0,4,5
 450 630 450 630 457.5 614 c 128,-1,6
 465 598 465 598 465 585 c 128,-1,7
 465 572 465 572 457 561 c 128,-1,8
 449 550 449 550 439 550 c 0,9,10
 432 550 432 550 416 556 c 0,11,12
 404 561 404 561 369 561 c 0,13,14
 328 561 328 561 263 555 c 0,15,16
 255 554 255 554 224.5 551.5 c 128,-1,17
 194 549 194 549 182 548 c 0,18,19
 140 545 140 545 133 538 c 128,-1,20
 126 531 126 531 124 487 c 0,21,22
 123 466 123 466 123 422 c 0,23,24
 123 343 123 343 127 339 c 0,25,26
 130 336 130 336 165 336 c 0,27,28
 213 336 213 336 228 340 c 0,29,30
 245 345 245 345 271 345 c 0,31,32
 299 345 299 345 310 336 c 0,33,34
 322 327 322 327 322 320 c 0,35,36
 322 318 322 318 318 296 c 0,37,38
 313 273 313 273 300.5 268 c 128,-1,39
 288 263 288 263 238 262 c 0,40,41
 167 261 167 261 137 247 c 0,42,43
 127 243 127 243 130 234 c 0,44,45
 132 227 132 227 132 148 c 0,46,47
 132 24 132 24 128 8 c 0,48,49
 119 -37 119 -37 90 -37 c 0,50,51
 66 -37 66 -37 66 -9 c 0,52,53
 66 6 66 6 72 32 c 0,54,55
 78 56 78 56 78 142 c 0,56,57
 78 211 78 211 74 250 c 0,58,59
 68 312 68 312 68 393 c 0,60,61
 68 496 68 496 58 537 c 0,62,63
 54 552 54 552 54 569 c 0,64,65
 54 598 54 598 64 606 c 0,66,67
 74 613 74 613 85 619 c 0,68,69
 100 627 100 627 109 622 c 0,70,71
 117 617 117 617 190 617 c 0,72,73
 250 617 250 617 270 621 c 128,-1,74
 290 625 290 625 295 625 c 0,75,76
 305 625 305 625 349 630 c 128,-1,77
 393 635 393 635 399 637 c 0,0,1
EndSplineSet
Validated: 1
EndChar

StartChar: G
Encoding: 71 71 34
Width: 464
GlyphClass: 1
Flags: W
LayerCount: 2
Fore
SplineSet
321 701 m 0,0,1
 331 704 331 704 350 704 c 128,-1,2
 369 704 369 704 381 701 c 0,3,4
 391 699 391 699 399.5 687.5 c 128,-1,5
 408 676 408 676 408 665 c 0,6,7
 408 643 408 643 400 639 c 128,-1,8
 392 635 392 635 358 633 c 0,9,10
 318 631 318 631 292 619 c 0,11,12
 271 609 271 609 239 581.5 c 128,-1,13
 207 554 207 554 191 532 c 0,14,15
 186 524 186 524 172.5 508 c 128,-1,16
 159 492 159 492 152 479 c 0,17,18
 148 471 148 471 141.5 461.5 c 128,-1,19
 135 452 135 452 132 444 c 128,-1,20
 129 436 129 436 127 422 c 0,21,22
 124 407 124 407 118 393 c 0,23,24
 112 381 112 381 112 338 c 0,25,26
 112 306 112 306 113.5 296 c 128,-1,27
 115 286 115 286 123 271 c 0,28,29
 133 252 133 252 142.5 245.5 c 128,-1,30
 152 239 152 239 192 226 c 0,31,32
 218 218 218 218 227 212 c 0,33,34
 232 207 232 207 258 207 c 0,35,36
 292 207 292 207 304 214 c 0,37,38
 315 221 315 221 319 258 c 0,39,40
 323 285 323 285 323 308 c 2,41,-1
 323 321 l 1,42,-1
 290 319 l 2,43,44
 263 318 263 318 252.5 314 c 128,-1,45
 242 310 242 310 227 296 c 0,46,47
 214 285 214 285 205 285 c 0,48,49
 189 285 189 285 183 312 c 1,50,-1
 182 314 l 2,51,52
 182 316 182 316 182 317 c 0,53,54
 182 327 182 327 187.5 340.5 c 128,-1,55
 193 354 193 354 200 359 c 0,56,57
 227 381 227 381 296 385 c 0,58,59
 339 388 339 388 355 388 c 0,60,61
 375 388 375 388 385 377 c 0,62,63
 398 361 398 361 398 341 c 0,64,65
 398 332 398 332 395 325 c 0,66,67
 380 284 380 284 380 228 c 0,68,69
 380 202 380 202 381 187 c 0,70,71
 384 143 384 143 384 114 c 0,72,73
 384 65 384 65 376 38 c 0,74,75
 360 -18 360 -18 313 -44 c 0,76,77
 300 -51 300 -51 300 -54 c 0,78,79
 300 -56 300 -56 296 -55 c 128,-1,80
 292 -54 292 -54 292 -56 c 0,81,82
 292 -60 292 -60 277 -64 c 128,-1,83
 262 -68 262 -68 248 -68 c 0,84,85
 246 -68 246 -68 243 -67.5 c 128,-1,86
 240 -67 240 -67 239 -67 c 0,87,88
 224 -63 224 -63 224 -62 c 0,89,90
 224 -58 224 -58 214 -53 c 0,91,92
 205 -48 205 -48 204.5 -41 c 128,-1,93
 204 -34 204 -34 213 -31 c 0,94,95
 224 -27 224 -27 252 -10 c 128,-1,96
 280 7 280 7 293 19 c 0,97,98
 325 49 325 49 325 94 c 0,99,100
 325 101 325 101 323 115 c 0,101,102
 319 143 319 143 314 143 c 2,103,-1
 312 143 l 1,104,105
 280 130 280 130 260 130 c 0,106,107
 232 130 232 130 183 153 c 0,108,109
 162 163 162 163 149 167 c 0,110,111
 86 186 86 186 62 258 c 0,112,113
 54 282 54 282 54 304 c 0,114,115
 54 321 54 321 55 333 c 0,116,117
 61 436 61 436 112 517 c 0,118,119
 125 539 125 539 125 542 c 0,120,121
 125 543 125 543 135 555 c 0,122,123
 197 631 197 631 228 653 c 0,124,125
 283 690 283 690 321 701 c 0,0,1
EndSplineSet
Validated: 1
EndChar

StartChar: H
Encoding: 72 72 35
Width: 474
GlyphClass: 1
Flags: W
LayerCount: 2
Fore
SplineSet
329 640 m 0,0,1
 334 645 334 645 345 645 c 0,2,3
 361 645 361 645 367 635 c 0,4,5
 373 626 373 626 373 607 c 128,-1,6
 373 588 373 588 367 575 c 0,7,8
 360 557 360 557 359 456 c 2,9,-1
 357 351 l 1,10,-1
 383 352 l 1,11,-1
 395 352 l 2,12,13
 411 352 411 352 415 346 c 0,14,15
 417 342 417 342 417 339 c 0,16,17
 417 317 417 317 383 300 c 2,18,-1
 363 290 l 1,19,-1
 360 227 l 2,20,21
 359 208 359 208 357 173 c 128,-1,22
 355 138 355 138 355 131 c 0,23,24
 355 125 355 125 354 114 c 128,-1,25
 353 103 353 103 352.5 95.5 c 128,-1,26
 352 88 352 88 352 84 c 0,27,28
 351 68 351 68 341.5 47 c 128,-1,29
 332 26 332 26 323 20 c 0,30,31
 316 15 316 15 305 15 c 128,-1,32
 294 15 294 15 288 22 c 0,33,34
 278 32 278 32 278 54 c 0,35,36
 278 62 278 62 282 68 c 0,37,38
 287 74 287 74 294.5 128.5 c 128,-1,39
 302 183 302 183 304 229 c 2,40,-1
 307 280 l 1,41,-1
 296 284 l 2,42,43
 282 289 282 289 277 286 c 2,44,-1
 275 286 l 2,45,46
 273 285 273 285 271 285 c 0,47,48
 243 285 243 285 197 296 c 0,49,50
 164 304 164 304 121 306 c 2,51,-1
 109 306 l 1,52,-1
 111 219 l 2,53,54
 113 128 113 128 114 124 c 0,55,56
 116 116 116 116 111 95 c 0,57,58
 107 74 107 74 93 67 c 0,59,60
 80 60 80 60 66 67 c 0,61,62
 50 75 50 75 50 102 c 0,63,64
 50 107 50 107 52 143 c 0,65,66
 54 181 54 181 54 259 c 2,67,-1
 54 315 l 1,68,-1
 54 371 l 2,69,70
 54 443 54 443 56 463 c 0,71,72
 60 480 60 480 60 529 c 0,73,74
 60 537 60 537 59.5 554.5 c 128,-1,75
 59 572 59 572 59 581 c 0,76,77
 59 611 59 611 89 616 c 0,78,79
 92 617 92 617 98 617 c 0,80,81
 126 617 126 617 126 578 c 0,82,83
 126 566 126 566 123 546 c 0,84,85
 114 481 114 481 109 428 c 2,86,-1
 106 396 l 1,87,-1
 120 390 l 2,88,89
 134 385 134 385 170.5 374.5 c 128,-1,90
 207 364 207 364 209 363 c 0,91,92
 258 348 258 348 292 348 c 2,93,-1
 296 348 l 2,94,95
 301 349 301 349 302 362.5 c 128,-1,96
 303 376 303 376 304 445 c 0,97,98
 305 568 305 568 309 598 c 128,-1,99
 313 628 313 628 329 640 c 0,0,1
EndSplineSet
Validated: 1
EndChar

StartChar: I
Encoding: 73 73 36
Width: 430
GlyphClass: 1
Flags: W
LayerCount: 2
Fore
SplineSet
338 630 m 128,-1,1
 345 634 345 634 351 634 c 0,2,3
 368 634 368 634 372 608 c 0,4,5
 375 591 375 591 365 583 c 0,6,7
 358 577 358 577 322 563.5 c 128,-1,8
 286 550 286 550 271 549 c 0,9,10
 264 548 264 548 262.5 545.5 c 128,-1,11
 261 543 261 543 262 530 c 0,12,13
 264 515 264 515 259 501 c 0,14,15
 255 488 255 488 251 435 c 0,16,17
 235 238 235 238 233 221 c 0,18,19
 229 193 229 193 229 119 c 0,20,21
 229 88 229 88 230 83 c 0,22,23
 232 74 232 74 235 71.5 c 128,-1,24
 238 69 238 69 251 69 c 0,25,26
 305 69 305 69 315 59 c 0,27,28
 319 55 319 55 315 39 c 0,29,30
 312 29 312 29 307.5 24.5 c 128,-1,31
 303 20 303 20 290 14 c 0,32,33
 271 6 271 6 255 4 c 0,34,35
 245 3 245 3 233 -1.5 c 128,-1,36
 221 -6 221 -6 211 -7 c 0,37,38
 164 -13 164 -13 136 -29 c 0,39,40
 110 -44 110 -44 93 -44 c 0,41,42
 64 -44 64 -44 58 0 c 0,43,44
 58 2 58 2 57.5 5 c 128,-1,45
 57 8 57 8 57 9 c 0,46,47
 57 19 57 19 71 33 c 0,48,49
 87 49 87 49 102 52 c 0,50,51
 130 57 130 57 143 70 c 128,-1,52
 156 83 156 83 163 112 c 0,53,54
 166 127 166 127 178 245 c 128,-1,55
 190 363 190 363 191 373 c 0,56,57
 195 407 195 407 195 413 c 2,58,-1
 195 463 l 2,59,60
 195 526 195 526 193 530 c 128,-1,61
 191 534 191 534 166 534 c 0,62,63
 117 534 117 534 108 565 c 0,64,65
 104 583 104 583 104 589 c 0,66,67
 104 617 104 617 129 617 c 0,68,69
 139 617 139 617 154 611 c 0,70,71
 165 606 165 606 190 606 c 0,72,73
 228 606 228 606 305 622 c 0,74,0
 331 626 331 626 338 630 c 128,-1,1
EndSplineSet
Validated: 1
EndChar

StartChar: J
Encoding: 74 74 37
Width: 632
GlyphClass: 1
Flags: W
LayerCount: 2
Fore
SplineSet
506 687 m 0,0,1
 509 688 509 688 519 688 c 0,2,3
 560 688 560 688 566 682 c 0,4,5
 575 673 575 673 575 649 c 0,6,7
 575 643 575 643 573 637 c 0,8,9
 570 627 570 627 559 624.5 c 128,-1,10
 548 622 548 622 509 622 c 0,11,12
 460 622 460 622 408 611 c 0,13,14
 402 609 402 609 401.5 607.5 c 128,-1,15
 401 606 401 606 405 595 c 0,16,17
 410 581 410 581 409 575 c 0,18,19
 407 566 407 566 405 526 c 0,20,21
 404 495 404 495 398 456 c 128,-1,22
 392 417 392 417 391 403 c 0,23,24
 390 395 390 395 386 367 c 128,-1,25
 382 339 382 339 380 326 c 0,26,27
 374 290 374 290 374 274 c 0,28,29
 374 262 374 262 370 228.5 c 128,-1,30
 366 195 366 195 365 189 c 0,31,32
 360 129 360 129 321 44 c 0,33,34
 314 28 314 28 307 10 c 0,35,36
 296 -17 296 -17 273 -42.5 c 128,-1,37
 250 -68 250 -68 225 -79 c 0,38,39
 177 -102 177 -102 141 -111 c 0,40,41
 115 -115 115 -115 113 -115 c 0,42,43
 106 -115 106 -115 86 -110 c 0,44,45
 61 -103 61 -103 59 -94 c 0,46,47
 59 -93 59 -93 58.5 -91.5 c 128,-1,48
 58 -90 58 -90 58 -89 c 0,49,50
 58 -83 58 -83 67.5 -77.5 c 128,-1,51
 77 -72 77 -72 109 -57 c 0,52,53
 184 -24 184 -24 198 -11 c 0,54,55
 211 0 211 0 235 37 c 128,-1,56
 259 74 259 74 264 88 c 0,57,58
 269 103 269 103 280 125 c 0,59,60
 306 174 306 174 309 242 c 0,61,62
 312 291 312 291 331 403 c 0,63,64
 346 490 346 490 346 520 c 0,65,66
 346 540 346 540 341 583 c 0,67,68
 340 596 340 596 338 599 c 128,-1,69
 336 602 336 602 328 600 c 0,70,71
 325 599 325 599 311 596 c 128,-1,72
 297 593 297 593 290 592 c 0,73,74
 241 583 241 583 168 581 c 0,75,76
 133 581 133 581 121 609 c 0,77,78
 117 620 117 620 123 635 c 0,79,80
 129 648 129 648 136 652.5 c 128,-1,81
 143 657 143 657 161 657 c 0,82,83
 167 657 167 657 191 655 c 0,84,85
 221 653 221 653 235 653 c 0,86,87
 250 653 250 653 254 654 c 0,88,89
 272 657 272 657 299.5 660 c 128,-1,90
 327 663 327 663 349 667 c 0,91,92
 385 673 385 673 458 681 c 0,93,94
 467 682 467 682 479 683.5 c 128,-1,95
 491 685 491 685 498 686 c 128,-1,96
 505 687 505 687 506 687 c 0,0,1
EndSplineSet
Validated: 1
EndChar

StartChar: K
Encoding: 75 75 38
Width: 626
GlyphClass: 1
Flags: W
LayerCount: 2
Fore
SplineSet
234 288 m 0,0,1
 231 288 231 288 209.5 270 c 128,-1,2
 188 252 188 252 184 252 c 0,3,4
 174 252 174 252 168 243 c 128,-1,5
 162 234 162 234 156 208 c 0,6,7
 148 178 148 178 148 166 c 0,8,9
 148 160 148 160 142 144 c 0,10,11
 135 127 135 127 133 85 c 0,12,13
 131 40 131 40 128 38 c 0,14,15
 125 37 125 37 120 24 c 0,16,17
 114 12 114 12 99 11 c 2,18,-1
 95 11 l 2,19,20
 82 11 82 11 71 19 c 128,-1,21
 60 27 60 27 60 36 c 128,-1,22
 60 45 60 45 57 48 c 0,23,24
 56 50 56 50 56 53 c 0,25,26
 56 67 56 67 62.5 102.5 c 128,-1,27
 69 138 69 138 72 141 c 0,28,29
 73 142 73 142 79 163 c 0,30,31
 92 218 92 218 98 221 c 0,32,33
 101 224 101 224 101 255 c 0,34,35
 101 288 101 288 106 295 c 0,36,37
 124 323 124 323 124 345 c 0,38,39
 124 352 124 352 128 352 c 128,-1,40
 132 352 132 352 132 361 c 0,41,42
 132 371 132 371 137 386 c 0,43,44
 143 402 143 402 151 468.5 c 128,-1,45
 159 535 159 535 160 570 c 0,46,47
 160 605 160 605 166 623 c 0,48,49
 171 638 171 638 171 646 c 0,50,51
 171 652 171 652 183 658.5 c 128,-1,52
 195 665 195 665 206 665 c 0,53,54
 211 665 211 665 213 664 c 0,55,56
 231 654 231 654 231 638 c 0,57,58
 231 630 231 630 236 628 c 128,-1,59
 241 626 241 626 236 623 c 0,60,61
 231 621 231 621 231 609 c 0,62,63
 231 600 231 600 225 564 c 0,64,65
 218 528 218 528 205 412 c 0,66,67
 202 375 202 375 195 375 c 0,68,69
 191 375 191 375 191 363 c 0,70,71
 191 352 191 352 198 352 c 0,72,73
 203 352 203 352 212 360.5 c 128,-1,74
 221 369 221 369 224 377 c 0,75,76
 227 383 227 383 233 383 c 0,77,78
 240 383 240 383 247 401 c 0,79,80
 254 418 254 418 266 426 c 0,81,82
 282 436 282 436 304 457.5 c 128,-1,83
 326 479 326 479 326 485 c 0,84,85
 326 490 326 490 335 497 c 0,86,87
 337 498 337 498 362.5 526 c 128,-1,88
 388 554 388 554 394 556 c 0,89,90
 402 560 402 560 402 563 c 0,91,92
 402 571 402 571 446 613 c 0,93,94
 464 630 464 630 467 641 c 0,95,96
 474 664 474 664 489 669 c 0,97,98
 497 673 497 673 506 673 c 0,99,100
 522 673 522 673 530.5 659.5 c 128,-1,101
 539 646 539 646 539 627 c 0,102,103
 539 597 539 597 522 581 c 0,104,105
 495 554 495 554 489 554 c 0,106,107
 486 554 486 554 477 541 c 0,108,109
 468 529 468 529 457 523 c 0,110,111
 449 520 449 520 423 488 c 0,112,113
 401 459 401 459 393 459 c 0,114,115
 386 459 386 459 382 451 c 0,116,117
 374 433 374 433 337 396 c 0,118,119
 329 388 329 388 329 373 c 2,120,-1
 329 362 l 2,121,122
 331 312 331 312 342 312 c 0,123,124
 346 312 346 312 346 306 c 0,125,126
 346 303 346 303 362 267 c 128,-1,127
 378 231 378 231 378 227 c 128,-1,128
 378 223 378 223 386 216 c 128,-1,129
 394 209 394 209 394 206 c 0,130,131
 394 202 394 202 398 200 c 0,132,133
 403 198 403 198 408 177 c 0,134,135
 418 138 418 138 448 131 c 0,136,137
 450 130 450 130 455 130 c 0,138,139
 491 130 491 130 537 151 c 0,140,141
 557 161 557 161 564 161 c 128,-1,142
 571 161 571 161 571 154 c 0,143,144
 571 138 571 138 556 125 c 0,145,146
 555 124 555 124 545 105.5 c 128,-1,147
 535 87 535 87 533 86 c 0,148,149
 530 83 530 83 527 77 c 0,150,151
 522 67 522 67 480 48 c 0,152,153
 456 37 456 37 433 37 c 0,154,155
 400 37 400 37 377 57 c 0,156,157
 369 64 369 64 361.5 82 c 128,-1,158
 354 100 354 100 354 112 c 0,159,160
 354 119 354 119 349.5 130 c 128,-1,161
 345 141 345 141 342 141 c 128,-1,162
 339 141 339 141 334 158 c 0,163,164
 313 221 313 221 303 227 c 0,165,166
 298 230 298 230 298 237 c 128,-1,167
 298 244 298 244 294 244 c 128,-1,168
 290 244 290 244 290 250 c 128,-1,169
 290 256 290 256 286 258 c 0,170,171
 284 259 284 259 280 267 c 128,-1,172
 276 275 276 275 273 284 c 128,-1,173
 270 293 270 293 266.5 302.5 c 128,-1,174
 263 312 263 312 263 313 c 0,175,176
 260 316 260 316 249 302 c 128,-1,177
 238 288 238 288 234 288 c 0,0,1
EndSplineSet
Validated: 1
EndChar

StartChar: L
Encoding: 76 76 39
Width: 560
GlyphClass: 1
Flags: W
LayerCount: 2
Fore
SplineSet
183 592 m 0,0,1
 196 597 196 597 206 597 c 0,2,3
 218 597 218 597 226 592 c 0,4,5
 238 582 238 582 238 543 c 0,6,7
 238 519 238 519 231 515 c 0,8,9
 225 511 225 511 218.5 490.5 c 128,-1,10
 212 470 212 470 208 452.5 c 128,-1,11
 204 435 204 435 202 435 c 0,12,13
 195 435 195 435 185 338 c 0,14,15
 182 307 182 307 177 291.5 c 128,-1,16
 172 276 172 276 170 245 c 0,17,18
 168 221 168 221 166 206 c 128,-1,19
 164 191 164 191 161 174.5 c 128,-1,20
 158 158 158 158 156 142 c 0,21,22
 152 113 152 113 150 113 c 0,23,24
 146 113 146 113 146 101 c 2,25,-1
 146 88 l 1,26,-1
 193 91 l 2,27,28
 222 92 222 92 253 96 c 0,29,30
 261 97 261 97 339 101 c 0,31,32
 486 110 486 110 492 112 c 0,33,34
 500 114 500 114 503 106 c 0,35,36
 508 99 508 99 497 83 c 0,37,38
 486 66 486 66 479 60 c 128,-1,39
 472 54 472 54 460 52 c 0,40,41
 446 49 446 49 441 45 c 0,42,43
 430 36 430 36 293 24 c 0,44,45
 270 22 270 22 256 19 c 128,-1,46
 242 16 242 16 221 14 c 0,47,48
 203 12 203 12 195 10.5 c 128,-1,49
 187 9 187 9 179.5 6 c 128,-1,50
 172 3 172 3 161 1 c 0,51,52
 142 -3 142 -3 140 -6 c 0,53,54
 136 -10 136 -10 128 -10 c 0,55,56
 118 -10 118 -10 93 -3 c 0,57,58
 79 1 79 1 75 5 c 128,-1,59
 71 9 71 9 66 22 c 0,60,61
 57 43 57 43 57 75 c 0,62,63
 57 99 57 99 63 111 c 0,64,65
 70 129 70 129 74 129 c 0,66,67
 77 129 77 129 83.5 158.5 c 128,-1,68
 90 188 90 188 93 214 c 0,69,70
 95 237 95 237 98 237 c 0,71,72
 100 237 100 237 119 349 c 0,73,74
 122 364 122 364 122 383 c 0,75,76
 122 399 122 399 126 399 c 128,-1,77
 130 399 130 399 145 481 c 0,78,79
 147 492 147 492 150 494 c 0,80,81
 158 500 158 500 164 546 c 0,82,83
 168 574 168 574 170.5 580.5 c 128,-1,84
 173 587 173 587 183 592 c 0,0,1
EndSplineSet
Validated: 1
EndChar

StartChar: M
Encoding: 77 77 40
Width: 572
GlyphClass: 1
Flags: W
LayerCount: 2
Fore
SplineSet
430 563 m 0,0,1
 431 574 431 574 442 582 c 128,-1,2
 453 590 453 590 466 590 c 0,3,4
 489 590 489 590 505 533 c 0,5,6
 515 502 515 502 515 450 c 0,7,8
 515 412 515 412 509 387 c 0,9,10
 503 360 503 360 503 241 c 0,11,12
 503 158 503 158 507 139 c 0,13,14
 508 134 508 134 512 118 c 128,-1,15
 516 102 516 102 518.5 86.5 c 128,-1,16
 521 71 521 71 521 60 c 0,17,18
 521 58 521 58 520.5 55 c 128,-1,19
 520 52 520 52 520 51 c 0,20,21
 518 40 518 40 508 31 c 128,-1,22
 498 22 498 22 487 22 c 0,23,24
 480 22 480 22 476.5 26 c 128,-1,25
 473 30 473 30 468 43 c 0,26,27
 449 91 449 91 445 116.5 c 128,-1,28
 441 142 441 142 441 215 c 0,29,30
 441 327 441 327 451 423 c 0,31,32
 453 453 453 453 453 463 c 2,33,-1
 453 470 l 1,34,-1
 450 480 l 1,35,-1
 443 470 l 2,36,37
 436 461 436 461 436 456 c 0,38,39
 436 455 436 455 422 435 c 0,40,41
 407 414 407 414 396 393 c 0,42,43
 367 343 367 343 332 321 c 0,44,45
 317 312 317 312 303 312 c 0,46,47
 281 312 281 312 275 331 c 0,48,49
 270 341 270 341 256 348 c 0,50,51
 237 359 237 359 222 375 c 0,52,53
 205 392 205 392 204 391 c 0,54,55
 200 383 200 383 177 268 c 0,56,57
 171 238 171 238 156 191 c 0,58,59
 152 176 152 176 148.5 161.5 c 128,-1,60
 145 147 145 147 142 136.5 c 128,-1,61
 139 126 139 126 132 108 c 0,62,63
 122 80 122 80 122 71 c 128,-1,64
 122 62 122 62 109.5 53.5 c 128,-1,65
 97 45 97 45 85 45 c 2,66,-1
 81 45 l 1,67,68
 56 51 56 51 56 77 c 0,69,70
 56 96 56 96 68 121 c 0,71,72
 88 165 88 165 96 191 c 0,73,74
 119 262 119 262 137.5 346 c 128,-1,75
 156 430 156 430 156 465 c 2,76,-1
 156 471 l 2,77,78
 154 498 154 498 158 500 c 0,79,80
 162 504 162 504 162 510 c 0,81,82
 162 519 162 519 172.5 528.5 c 128,-1,83
 183 538 183 538 193 538 c 128,-1,84
 203 538 203 538 208 533 c 0,85,86
 212 527 212 527 222.5 502 c 128,-1,87
 233 477 233 477 233 472 c 0,88,89
 233 465 233 465 249 442.5 c 128,-1,90
 265 420 265 420 273 416 c 0,91,92
 284 411 284 411 305 408 c 2,93,-1
 326 403 l 1,94,-1
 339 417 l 2,95,96
 352 432 352 432 352 438 c 0,97,98
 352 442 352 442 362 456 c 0,99,100
 369 465 369 465 386 494.5 c 128,-1,101
 403 524 403 524 412 535 c 0,102,103
 427 554 427 554 430 563 c 0,0,1
EndSplineSet
Validated: 1
EndChar

StartChar: N
Encoding: 78 78 41
Width: 633
GlyphClass: 1
Flags: W
LayerCount: 2
Fore
SplineSet
540 604 m 0,0,1
 552 609 552 609 555 608.5 c 128,-1,2
 558 608 558 608 566 600 c 0,3,4
 577 589 577 589 577 560 c 0,5,6
 577 546 577 546 574 528 c 0,7,8
 570 509 570 509 558 415 c 0,9,10
 549 347 549 347 529 281 c 0,11,12
 509 223 509 223 509 159 c 2,13,-1
 509 150 l 2,14,15
 510 143 510 143 510 133 c 0,16,17
 510 120 510 120 503 106 c 0,18,19
 494 90 494 90 491 90 c 0,20,21
 487 90 487 90 485 83 c 0,22,23
 479 67 479 67 468 54.5 c 128,-1,24
 457 42 457 42 448 42 c 0,25,26
 443 42 443 42 433 52 c 0,27,28
 424 61 424 61 424 71 c 128,-1,29
 424 81 424 81 425 89 c 128,-1,30
 426 97 426 97 426 108 c 0,31,32
 426 122 426 122 414 144 c 0,33,34
 397 176 397 176 390 194 c 0,35,36
 383 210 383 210 356 247 c 128,-1,37
 329 284 329 284 324 284 c 0,38,39
 321 284 321 284 309 303 c 0,40,41
 254 389 254 389 245 395 c 0,42,43
 242 397 242 397 229 422 c 0,44,45
 216 446 216 446 212 446 c 0,46,47
 210 446 210 446 208 440 c 0,48,49
 204 426 204 426 196 399 c 0,50,51
 188 373 188 373 168 290 c 0,52,53
 146 202 146 202 132 147 c 0,54,55
 126 128 126 128 122 89 c 0,56,57
 119 56 119 56 111 43 c 128,-1,58
 103 30 103 30 86 30 c 0,59,60
 70 30 70 30 62 43 c 0,61,62
 56 54 56 54 56 62 c 0,63,64
 56 73 56 73 66 104 c 0,65,66
 108 248 108 248 128 346 c 0,67,68
 138 394 138 394 146 417 c 0,69,70
 159 456 159 456 160 498 c 0,71,72
 161 541 161 541 166.5 556.5 c 128,-1,73
 172 572 172 572 188 577 c 0,74,75
 203 582 203 582 214 571 c 0,76,77
 227 559 227 559 260 492 c 0,78,79
 280 451 280 451 319 398 c 0,80,81
 336 375 336 375 336 373 c 0,82,83
 336 370 336 370 364 338 c 0,84,85
 427 267 427 267 444 231 c 0,86,87
 446 226 446 226 449 223.5 c 128,-1,88
 452 221 452 221 453 222 c 0,89,90
 459 224 459 224 498 393 c 0,91,92
 500 402 500 402 515 504 c 0,93,94
 517 520 517 520 517 532 c 0,95,96
 517 536 517 536 516.5 542 c 128,-1,97
 516 548 516 548 516 550 c 2,98,-1
 516 558 l 2,99,100
 516 594 516 594 540 604 c 0,0,1
EndSplineSet
Validated: 1
EndChar

StartChar: O
Encoding: 79 79 42
Width: 564
GlyphClass: 1
Flags: W
LayerCount: 2
Fore
SplineSet
373 544 m 0,0,1
 368 549 368 549 351 551 c 2,2,-1
 346 551 l 2,3,4
 332 551 332 551 311 538 c 0,5,6
 292 526 292 526 279 516 c 0,7,8
 253 491 253 491 243 491 c 0,9,10
 242 491 242 491 240.5 491.5 c 128,-1,11
 239 492 239 492 238 492 c 0,12,13
 228 495 228 495 218 488 c 0,14,15
 211 483 211 483 191 455.5 c 128,-1,16
 171 428 171 428 162 409 c 0,17,18
 151 387 151 387 151 373 c 0,19,20
 151 369 151 369 146 354 c 128,-1,21
 141 339 141 339 141 334 c 0,22,23
 139 321 139 321 135 317 c 0,24,25
 128 308 128 308 128 262 c 0,26,27
 128 243 128 243 129 235 c 0,28,29
 133 202 133 202 148.5 186 c 128,-1,30
 164 170 164 170 203 156 c 0,31,32
 220 149 220 149 236 149 c 0,33,34
 280 149 280 149 319 173 c 0,35,36
 339 185 339 185 340 185 c 0,37,38
 343 185 343 185 368 212 c 0,39,40
 405 250 405 250 419 302 c 0,41,42
 429 333 429 333 429 334 c 0,43,44
 448 382 448 382 448 429 c 0,45,46
 448 443 448 443 445 452 c 0,47,48
 434 488 434 488 409 519 c 0,49,50
 401 529 401 529 391 534 c 0,51,52
 375 542 375 542 373 544 c 0,0,1
366 121 m 128,-1,54
 364 121 364 121 355.5 113.5 c 128,-1,55
 347 106 347 106 344 106 c 0,56,57
 342 106 342 106 330 100 c 0,58,59
 319 95 319 95 291 84 c 0,60,61
 262 74 262 74 246 74 c 0,62,63
 234 74 234 74 225 75 c 0,64,65
 175 78 175 78 131 99 c 0,66,67
 115 107 115 107 101.5 118 c 128,-1,68
 88 129 88 129 88 135 c 128,-1,69
 88 141 88 141 81 150 c 0,70,71
 73 161 73 161 64.5 192 c 128,-1,72
 56 223 56 223 56 244 c 0,73,74
 56 260 56 260 65.5 293 c 128,-1,75
 75 326 75 326 76 336 c 0,76,77
 88 418 88 418 138 495 c 0,78,79
 155 520 155 520 155 525 c 0,80,81
 155 528 155 528 188 559 c 2,82,-1
 221 590 l 1,83,-1
 240 588 l 2,84,85
 242 588 242 588 246 587.5 c 128,-1,86
 250 587 250 587 251 587 c 0,87,88
 261 587 261 587 278 599 c 0,89,90
 287 605 287 605 296 609.5 c 128,-1,91
 305 614 305 614 308.5 615.5 c 128,-1,92
 312 617 312 617 327 620.5 c 128,-1,93
 342 624 342 624 346 625 c 0,94,95
 352 627 352 627 363 627 c 0,96,97
 384 627 384 627 406 609 c 0,98,99
 423 594 423 594 428 594 c 0,100,101
 432 594 432 594 448.5 577 c 128,-1,102
 465 560 465 560 465 556 c 0,103,104
 465 554 465 554 477 538 c 0,105,106
 488 524 488 524 495 495 c 0,107,108
 503 460 503 460 504 459 c 0,109,110
 508 451 508 451 508 432 c 0,111,112
 508 378 508 378 482 308 c 0,113,114
 479 301 479 301 472 282 c 128,-1,115
 465 263 465 263 462 256 c 0,116,117
 441 197 441 197 396 149 c 0,118,53
 368 121 368 121 366 121 c 128,-1,54
EndSplineSet
Validated: 1
EndChar

StartChar: P
Encoding: 80 80 43
Width: 468
GlyphClass: 1
Flags: W
LayerCount: 2
Fore
SplineSet
265 402 m 0,0,1
 265 405 265 405 277 411 c 128,-1,2
 289 417 289 417 289 419 c 128,-1,3
 289 421 289 421 297 425 c 0,4,5
 302 426 302 426 305 430.5 c 128,-1,6
 308 435 308 435 311 442 c 128,-1,7
 314 449 314 449 316 453 c 0,8,9
 328 474 328 474 334 484 c 2,10,-1
 345 503 l 1,11,-1
 337 512 l 2,12,13
 330 519 330 519 308.5 525 c 128,-1,14
 287 531 287 531 284 532 c 0,15,16
 267 539 267 539 221 539 c 0,17,18
 182 539 182 539 176 533 c 0,19,20
 175 533 175 533 175.5 527 c 128,-1,21
 176 521 176 521 178 515 c 0,22,23
 181 506 181 506 181 500 c 128,-1,24
 181 494 181 494 173 468 c 0,25,26
 150 399 150 399 150 367 c 0,27,28
 150 362 150 362 157 365 c 0,29,30
 160 366 160 366 190 375 c 0,31,32
 255 394 255 394 257 400 c 0,33,34
 258 402 258 402 260 402 c 128,-1,35
 262 402 262 402 263.5 401.5 c 128,-1,36
 265 401 265 401 265 402 c 0,0,1
55 85 m 0,37,38
 55 96 55 96 60.5 108.5 c 128,-1,39
 66 121 66 121 66 133 c 0,40,41
 66 140 66 140 71 187 c 0,42,43
 83 313 83 313 87 334 c 0,44,45
 94 374 94 374 96 391 c 0,46,47
 97 403 97 403 100.5 414.5 c 128,-1,48
 104 426 104 426 105 439 c 0,49,50
 106 451 106 451 113 503 c 0,51,52
 116 530 116 530 123 537 c 0,53,54
 128 542 128 542 128 544 c 128,-1,55
 128 546 128 546 120 555 c 0,56,57
 111 566 111 566 111 574 c 0,58,59
 111 595 111 595 157 601 c 0,60,61
 189 605 189 605 232 605 c 0,62,63
 312 605 312 605 327 593 c 0,64,65
 330 590 330 590 353 582 c 0,66,67
 410 561 410 561 410 504 c 0,68,69
 410 479 410 479 396 453 c 0,70,71
 390 444 390 444 378 414 c 0,72,73
 367 386 367 386 344 367 c 0,74,75
 321 347 321 347 292 339 c 0,76,77
 260 330 260 330 255 328 c 0,78,79
 245 323 245 323 208 315.5 c 128,-1,80
 171 308 171 308 157 308 c 0,81,82
 141 308 141 308 137.5 299 c 128,-1,83
 134 290 134 290 130 240 c 0,84,85
 121 122 121 122 115.5 91.5 c 128,-1,86
 110 61 110 61 97 52 c 0,87,88
 90 46 90 46 85 46 c 0,89,90
 79 46 79 46 67 58 c 0,91,92
 55 69 55 69 55 85 c 0,37,38
EndSplineSet
Validated: 1
EndChar

StartChar: Q
Encoding: 81 81 44
Width: 563
GlyphClass: 1
Flags: W
LayerCount: 2
Fore
SplineSet
343 536 m 0,0,1
 330 546 330 546 317 546 c 0,2,3
 306 546 306 546 271 516 c 0,4,5
 263 510 263 510 260 510 c 0,6,7
 248 510 248 510 206.5 451 c 128,-1,8
 165 392 165 392 143 344 c 0,9,10
 131 320 131 320 124 301 c 0,11,12
 120 293 120 293 120 268 c 0,13,14
 120 241 120 241 125 224 c 0,15,16
 129 213 129 213 147 197 c 128,-1,17
 165 181 165 181 186 171 c 0,18,19
 195 166 195 166 215 166 c 0,20,21
 243 166 243 166 270 177 c 2,22,-1
 289 185 l 1,23,-1
 287 210 l 2,24,25
 287 212 287 212 286.5 216 c 128,-1,26
 286 220 286 220 286 222 c 0,27,28
 286 243 286 243 294 251.5 c 128,-1,29
 302 260 302 260 322 260 c 0,30,31
 341 260 341 260 351 235 c 2,32,-1
 356 223 l 1,33,-1
 368 235 l 2,34,35
 387 253 387 253 402.5 300.5 c 128,-1,36
 418 348 418 348 418 385 c 0,37,38
 418 399 418 399 415 408 c 0,39,40
 406 440 406 440 381.5 483 c 128,-1,41
 357 526 357 526 343 536 c 0,0,1
315 608 m 128,-1,43
 317 610 317 610 327 610 c 0,44,45
 350 610 350 610 359 604 c 0,46,47
 372 597 372 597 389.5 575.5 c 128,-1,48
 407 554 407 554 420 529 c 0,49,50
 438 497 438 497 443 492 c 0,51,52
 464 467 464 467 470 395 c 0,53,54
 471 384 471 384 471 366 c 0,55,56
 471 333 471 333 456 282 c 0,57,58
 440 226 440 226 428.5 205.5 c 128,-1,59
 417 185 417 185 391 165 c 0,60,61
 357 140 357 140 357 122 c 0,62,63
 357 117 357 117 358 115 c 0,64,65
 367 78 367 78 397 48 c 0,66,67
 411 34 411 34 426.5 28.5 c 128,-1,68
 442 23 442 23 476 20 c 0,69,70
 506 17 506 17 506 10 c 0,71,72
 506 5 506 5 486 -17 c 2,73,-1
 467 -38 l 1,74,-1
 436 -37 l 2,75,76
 408 -36 408 -36 392 -28.5 c 128,-1,77
 376 -21 376 -21 356 -1 c 0,78,79
 334 21 334 21 319 62 c 2,80,-1
 303 104 l 1,81,-1
 284 103 l 2,82,83
 273 102 273 102 235 93 c 0,84,85
 218 88 218 88 196 88 c 0,86,87
 154 88 154 88 119 123 c 2,88,-1
 98 142 l 2,89,90
 82 158 82 158 69.5 189 c 128,-1,91
 57 220 57 220 56 248 c 2,92,-1
 56 255 l 2,93,94
 56 312 56 312 89 376 c 0,95,96
 126 450 126 450 138 454 c 0,97,98
 141 456 141 456 141 462 c 0,99,100
 141 475 141 475 178 519 c 0,101,102
 197 543 197 543 197 552 c 128,-1,103
 197 561 197 561 207 572.5 c 128,-1,104
 217 584 217 584 228 587 c 0,105,106
 230 588 230 588 251.5 592.5 c 128,-1,107
 273 597 273 597 293 601.5 c 128,-1,42
 313 606 313 606 315 608 c 128,-1,43
EndSplineSet
Validated: 1
EndChar

StartChar: R
Encoding: 82 82 45
Width: 626
GlyphClass: 1
Flags: W
LayerCount: 2
Fore
SplineSet
372 500 m 0,0,1
 365 529 365 529 285 529 c 0,2,3
 257 529 257 529 239 524 c 0,4,5
 234 523 234 523 238 517 c 0,6,7
 241 512 241 512 245 490 c 0,8,9
 245 487 245 487 245.5 483 c 128,-1,10
 246 479 246 479 246 477 c 0,11,12
 246 464 246 464 229 439 c 0,13,14
 199 391 199 391 199 375 c 0,15,16
 199 372 199 372 205 372 c 0,17,18
 218 372 218 372 260 386 c 0,19,20
 306 401 306 401 333 420 c 0,21,22
 354 435 354 435 365 458 c 0,23,24
 377 482 377 482 375 485 c 0,25,26
 375 486 375 486 374.5 488.5 c 128,-1,27
 374 491 374 491 373 494.5 c 128,-1,28
 372 498 372 498 372 500 c 0,0,1
215 588 m 0,29,30
 264 601 264 601 302 601 c 0,31,32
 323 601 323 601 346 596 c 0,33,34
 366 592 366 592 385.5 581 c 128,-1,35
 405 570 405 570 410 561 c 0,36,37
 412 556 412 556 421 538 c 0,38,39
 432 518 432 518 432 482 c 0,40,41
 432 466 432 466 429 456 c 0,42,43
 422 429 422 429 396 394.5 c 128,-1,44
 370 360 370 360 349 349 c 0,45,46
 338 344 338 344 338 340 c 0,47,48
 338 338 338 338 317 331.5 c 128,-1,49
 296 325 296 325 296 323 c 0,50,51
 296 318 296 318 305 299.5 c 128,-1,52
 314 281 314 281 320 276 c 0,53,54
 326 270 326 270 326 267 c 0,55,56
 326 256 326 256 366.5 214 c 128,-1,57
 407 172 407 172 424 166 c 0,58,59
 437 161 437 161 456 161 c 0,60,61
 478 161 478 161 524 169 c 0,62,63
 549 174 549 174 561 174 c 0,64,65
 568 174 568 174 569 172 c 0,66,67
 571 168 571 168 571 167 c 0,68,69
 571 163 571 163 559 139 c 0,70,71
 549 121 549 121 543.5 116.5 c 128,-1,72
 538 112 538 112 514 105 c 0,73,74
 477 92 477 92 445 92 c 0,75,76
 421 92 421 92 401 99 c 0,77,78
 377 108 377 108 340 145 c 0,79,80
 303 184 303 184 302 186 c 0,81,82
 300 191 300 191 286 210 c 128,-1,83
 272 229 272 229 270 233 c 0,84,85
 257 263 257 263 242 273.5 c 128,-1,86
 227 284 227 284 196 285 c 2,87,-1
 170 286 l 1,88,-1
 163 264 l 2,89,90
 160 255 160 255 154.5 236.5 c 128,-1,91
 149 218 149 218 144 203.5 c 128,-1,92
 139 189 139 189 135 179 c 0,93,94
 132 173 132 173 125 151 c 0,95,96
 110 109 110 109 110 108 c 0,97,98
 99 70 99 70 81 70 c 0,99,100
 56 70 56 70 56 106 c 0,101,102
 56 133 56 133 69 169 c 0,103,104
 86 220 86 220 94 235 c 0,105,106
 108 265 108 265 139 367 c 0,107,108
 154 415 154 415 163 443 c 0,109,110
 164 447 164 447 168.5 464.5 c 128,-1,111
 173 482 173 482 177 490 c 0,112,113
 183 501 183 501 182 505.5 c 128,-1,114
 181 510 181 510 171 512 c 0,115,116
 151 516 151 516 151 543 c 0,117,118
 151 561 151 561 162.5 569 c 128,-1,119
 174 577 174 577 215 588 c 0,29,30
EndSplineSet
Validated: 1
EndChar

StartChar: S
Encoding: 83 83 46
Width: 406
GlyphClass: 1
Flags: W
LayerCount: 2
Fore
SplineSet
207 619 m 0,0,1
 230 627 230 627 263 627 c 0,2,3
 327 627 327 627 345 604 c 0,4,5
 352 595 352 595 352 576 c 0,6,7
 352 561 352 561 347 551 c 0,8,9
 340 538 340 538 336 538 c 0,10,11
 331 538 331 538 326 533 c 0,12,13
 316 525 316 525 308 525 c 0,14,15
 290 525 290 525 290 546 c 0,16,17
 290 553 290 553 288 555 c 128,-1,18
 286 557 286 557 277 559 c 0,19,20
 271 560 271 560 259 560 c 0,21,22
 209 560 209 560 174 523 c 0,23,24
 165 513 165 513 156 497 c 128,-1,25
 147 481 147 481 147 474 c 0,26,27
 147 466 147 466 167 452 c 128,-1,28
 187 438 187 438 211 429 c 0,29,30
 236 420 236 420 270 399 c 0,31,32
 290 389 290 389 306 373 c 0,33,34
 323 356 323 356 326 356 c 0,35,36
 331 356 331 356 339 340 c 128,-1,37
 347 324 347 324 350 307 c 0,38,39
 352 293 352 293 352 288 c 0,40,41
 352 265 352 265 336 207 c 0,42,43
 329 180 329 180 296 147.5 c 128,-1,44
 263 115 263 115 227 98 c 0,45,46
 210 90 210 90 196 90 c 0,47,48
 185 90 185 90 177 91 c 0,49,50
 147 95 147 95 139 95 c 0,51,52
 129 95 129 95 107 108 c 0,53,54
 92 116 92 116 86 123 c 128,-1,55
 80 130 80 130 71 148 c 0,56,57
 56 180 56 180 56 213 c 0,58,59
 56 249 56 249 73 252 c 0,60,61
 80 254 80 254 83 244 c 0,62,63
 88 232 88 232 105 212 c 128,-1,64
 122 192 122 192 135 183 c 0,65,66
 154 170 154 170 179 170 c 0,67,68
 208 170 208 170 228 186 c 0,69,70
 268 217 268 217 281 244 c 0,71,72
 287 258 287 258 287 274 c 0,73,74
 287 286 287 286 283 292 c 128,-1,75
 279 298 279 298 262 315 c 0,76,77
 240 335 240 335 232 341 c 128,-1,78
 224 347 224 347 211 352 c 0,79,80
 169 368 169 368 133.5 391.5 c 128,-1,81
 98 415 98 415 89 434 c 0,82,83
 83 448 83 448 83 461 c 0,84,85
 83 487 83 487 112 538 c 0,86,87
 121 553 121 553 143 577.5 c 128,-1,88
 165 602 165 602 169 602 c 0,89,90
 174 602 174 602 178 606 c 128,-1,91
 182 610 182 610 207 619 c 0,0,1
EndSplineSet
Validated: 1
EndChar

StartChar: T
Encoding: 84 84 47
Width: 565
GlyphClass: 1
Flags: W
LayerCount: 2
Fore
SplineSet
484 562 m 0,0,1
 478 562 478 562 470 558.5 c 128,-1,2
 462 555 462 555 452 555 c 0,3,4
 436 554 436 554 420 550 c 128,-1,5
 404 546 404 546 383.5 539 c 128,-1,6
 363 532 363 532 352 529 c 2,7,-1
 325 520 l 1,8,-1
 320 502 l 2,9,10
 314 482 314 482 311 476 c 0,11,12
 307 469 307 469 291.5 390 c 128,-1,13
 276 311 276 311 271 278 c 0,14,15
 250 121 250 121 224 90 c 0,16,17
 214 78 214 78 201 78 c 0,18,19
 185 78 185 78 183 98 c 0,20,21
 183 103 183 103 196 171.5 c 128,-1,22
 209 240 209 240 211 258 c 0,23,24
 215 295 215 295 222 326 c 0,25,26
 227 347 227 347 229 364 c 128,-1,27
 231 381 231 381 235 399 c 0,28,29
 247 471 247 471 247 487 c 2,30,-1
 247 496 l 1,31,-1
 209 495 l 1,32,-1
 192 495 l 2,33,34
 164 495 164 495 148 501 c 0,35,36
 124 509 124 509 118 509 c 0,37,38
 74 514 74 514 62 532 c 0,39,40
 56 542 56 542 56 557 c 0,41,42
 56 578 56 578 65 588 c 0,43,44
 75 600 75 600 87 600 c 0,45,46
 95 600 95 600 112 590 c 0,47,48
 155 564 155 564 214 564 c 0,49,50
 279 564 279 564 346 595 c 0,51,52
 350 597 350 597 355.5 599 c 128,-1,53
 361 601 361 601 364 602.5 c 128,-1,54
 367 604 367 604 368 604 c 0,55,56
 380 606 380 606 420 617 c 128,-1,57
 460 628 460 628 465 629 c 0,58,59
 475 631 475 631 481 631 c 0,60,61
 497 631 497 631 504 625 c 0,62,63
 509 622 509 622 509 599 c 0,64,65
 509 562 509 562 484 562 c 0,0,1
EndSplineSet
Validated: 1
EndChar

StartChar: U
Encoding: 85 85 48
Width: 497
GlyphClass: 1
Flags: W
LayerCount: 2
Fore
SplineSet
247 165 m 0,0,1
 247 166 247 166 258.5 181.5 c 128,-1,2
 270 197 270 197 270 198 c 0,3,4
 270 201 270 201 278 211 c 0,5,6
 287 224 287 224 291 240 c 0,7,8
 296 260 296 260 299 260 c 128,-1,9
 302 260 302 260 304 273 c 0,10,11
 307 282 307 282 316.5 305 c 128,-1,12
 326 328 326 328 328 335 c 0,13,14
 338 370 338 370 338 406 c 0,15,16
 338 417 338 417 353 477 c 0,17,18
 362 508 362 508 362 526 c 0,19,20
 362 548 362 548 367 581 c 0,21,22
 372 618 372 618 381 627 c 128,-1,23
 390 636 390 636 401 636 c 128,-1,24
 412 636 412 636 422 629 c 0,25,26
 431 623 431 623 437 599 c 0,27,28
 441 573 441 573 441 568 c 0,29,30
 441 552 441 552 429 523 c 0,31,32
 401 456 401 456 401 421 c 0,33,34
 401 407 401 407 379 319 c 0,35,36
 376 304 376 304 370 289 c 128,-1,37
 364 274 364 274 361 264 c 0,38,39
 351 220 351 220 341 199 c 0,40,41
 317 148 317 148 314 142 c 0,42,43
 311 137 311 137 306 129 c 2,44,-1
 302 123 l 2,45,46
 302 119 302 119 281.5 102.5 c 128,-1,47
 261 86 261 86 249 80 c 0,48,49
 224 68 224 68 193 68 c 0,50,51
 152 68 152 68 129 87 c 0,52,53
 126 89 126 89 113 95.5 c 128,-1,54
 100 102 100 102 90 109 c 128,-1,55
 80 116 80 116 80 121 c 0,56,57
 80 129 80 129 77 129 c 0,58,59
 67 129 67 129 60.5 187 c 128,-1,60
 54 245 54 245 54 284 c 0,61,62
 57 287 57 287 62 369 c 0,63,64
 67 469 67 469 70 483 c 0,65,66
 70 485 70 485 73 490 c 0,67,68
 75 492 75 492 79 521 c 0,69,70
 82 547 82 547 101 584 c 0,71,72
 113 608 113 608 131 608 c 0,73,74
 141 608 141 608 147 599 c 0,75,76
 155 588 155 588 155 578 c 0,77,78
 155 577 155 577 154.5 573.5 c 128,-1,79
 154 570 154 570 154 568 c 0,80,81
 152 550 152 550 148 544 c 0,82,83
 140 534 140 534 131.5 496 c 128,-1,84
 123 458 123 458 122 421 c 0,85,86
 117 319 117 319 117 276 c 0,87,88
 117 229 117 229 121 214 c 0,89,90
 129 184 129 184 140.5 173 c 128,-1,91
 152 162 152 162 186 153 c 2,92,-1
 216 145 l 1,93,-1
 231 154 l 2,94,95
 247 163 247 163 247 165 c 0,0,1
EndSplineSet
Validated: 1
EndChar

StartChar: V
Encoding: 86 86 49
Width: 629
GlyphClass: 1
Flags: W
LayerCount: 2
Fore
SplineSet
456 497 m 0,0,1
 456 494 456 494 444 481.5 c 128,-1,2
 432 469 432 469 432 467 c 0,3,4
 432 464 432 464 420 450 c 0,5,6
 405 432 405 432 399 417 c 0,7,8
 391 394 391 394 383 385 c 0,9,10
 378 378 378 378 361.5 336 c 128,-1,11
 345 294 345 294 341 287 c 0,12,13
 335 280 335 280 326.5 255.5 c 128,-1,14
 318 231 318 231 316 217 c 0,15,16
 316 209 316 209 310 195 c 0,17,18
 304 183 304 183 304 159 c 0,19,20
 302 133 302 133 298 125 c 0,21,22
 294 112 294 112 295 109 c 0,23,24
 297 103 297 103 279 85 c 0,25,26
 261 66 261 66 246 66 c 0,27,28
 237 66 237 66 223 74 c 0,29,30
 202 87 202 87 202 116 c 0,31,32
 202 142 202 142 219 185 c 0,33,34
 222 194 222 194 222 216 c 0,35,36
 222 255 222 255 215 282 c 128,-1,37
 208 309 208 309 204 334 c 0,38,39
 200 378 200 378 157.5 451.5 c 128,-1,40
 115 525 115 525 86 539 c 0,41,42
 56 554 56 554 56 583 c 0,43,44
 56 602 56 602 71 617 c 0,45,46
 80 626 80 626 90 626 c 0,47,48
 104 626 104 626 126 607 c 0,49,50
 147 588 147 588 147 583 c 0,51,52
 147 579 147 579 151 573 c 0,53,54
 172 548 172 548 204 494 c 0,55,56
 206 490 206 490 211 483 c 0,57,58
 245 426 245 426 256 384 c 2,59,-1
 268 335 l 2,60,61
 275 304 275 304 277 304 c 0,62,63
 289 304 289 304 337 431 c 0,64,65
 344 449 344 449 355 465 c 0,66,67
 362 475 362 475 375.5 501.5 c 128,-1,68
 389 528 389 528 389 532 c 0,69,70
 389 534 389 534 398 547 c 0,71,72
 427 590 427 590 434 590 c 0,73,74
 444 590 444 590 481 623 c 0,75,76
 493 633 493 633 497 633 c 0,77,78
 500 633 500 633 522 655 c 128,-1,79
 544 677 544 677 557 677 c 0,80,81
 571 677 571 677 571 650 c 0,82,83
 571 630 571 630 565 620 c 0,84,85
 560 611 560 611 542 592.5 c 128,-1,86
 524 574 524 574 519 574 c 0,87,88
 516 574 516 574 514 565 c 0,89,90
 510 557 510 557 502 554 c 0,91,92
 493 550 493 550 478 526 c 0,93,94
 461 502 461 502 459 502 c 0,95,96
 456 502 456 502 456 497 c 0,0,1
EndSplineSet
Validated: 1
EndChar

StartChar: W
Encoding: 87 87 50
Width: 717
GlyphClass: 1
Flags: W
LayerCount: 2
Fore
SplineSet
416 85 m 0,0,1
 416 90 416 90 410 97.5 c 128,-1,2
 404 105 404 105 404 108 c 0,3,4
 404 112 404 112 386.5 128.5 c 128,-1,5
 369 145 369 145 364 145 c 0,6,7
 361 145 361 145 361 150 c 128,-1,8
 361 155 361 155 351 165 c 0,9,10
 320 193 320 193 289 250 c 0,11,12
 282 264 282 264 278 264 c 0,13,14
 275 264 275 264 266 252.5 c 128,-1,15
 257 241 257 241 251 230 c 0,16,17
 250 228 250 228 246.5 214.5 c 128,-1,18
 243 201 243 201 239.5 189.5 c 128,-1,19
 236 178 236 178 233 175 c 0,20,21
 229 173 229 173 231 169 c 2,22,-1
 232 168 l 2,23,24
 232 166 232 166 232 165 c 0,25,26
 232 152 232 152 219.5 119 c 128,-1,27
 207 86 207 86 197 75 c 0,28,29
 190 66 190 66 174 66 c 0,30,31
 161 66 161 66 151 74 c 128,-1,32
 141 82 141 82 139 82 c 0,33,34
 132 82 132 82 132 115 c 0,35,36
 132 133 132 133 134 141 c 0,37,38
 136 153 136 153 136 157 c 0,39,40
 136 173 136 173 114 258 c 0,41,42
 102 304 102 304 90.5 354 c 128,-1,43
 79 404 79 404 71 436 c 0,44,45
 61 469 61 469 57 507 c 0,46,47
 56 515 56 515 56 526 c 0,48,49
 56 538 56 538 64 546 c 0,50,51
 74 554 74 554 80 554 c 0,52,53
 90 554 90 554 99 543 c 0,54,55
 117 524 117 524 121 479 c 0,56,57
 129 366 129 366 140 349 c 0,58,59
 141 348 141 348 158 283 c 0,60,61
 182 190 182 190 189 190 c 0,62,63
 192 190 192 190 203 219 c 0,64,65
 221 270 221 270 224 300 c 0,66,67
 225 319 225 319 238 343.5 c 128,-1,68
 251 368 251 368 260 370 c 0,69,70
 266 372 266 372 275 372 c 128,-1,71
 284 372 284 372 299 366 c 0,72,73
 324 354 324 354 331 314 c 0,74,75
 332 304 332 304 334.5 297.5 c 128,-1,76
 337 291 337 291 341 282.5 c 128,-1,77
 345 274 345 274 348 267 c 0,78,79
 355 248 355 248 387 215 c 0,80,81
 453 149 453 149 464 149 c 0,82,83
 470 149 470 149 488 195 c 0,84,85
 509 247 509 247 541 338 c 0,86,87
 549 360 549 360 560 410.5 c 128,-1,88
 571 461 571 461 578 481 c 0,89,90
 588 510 588 510 591 530 c 0,91,92
 597 558 597 558 601.5 568.5 c 128,-1,93
 606 579 606 579 616 583 c 0,94,95
 628 590 628 590 631 590 c 0,96,97
 635 590 635 590 645 576 c 128,-1,98
 655 562 655 562 658 552 c 0,99,100
 661 544 661 544 661 540 c 0,101,102
 661 534 661 534 654 521 c 0,103,104
 644 502 644 502 643 502 c 0,105,106
 637 498 637 498 627.5 469 c 128,-1,107
 618 440 618 440 615 415 c 0,108,109
 607 357 607 357 584 300 c 0,110,111
 575 280 575 280 553 214 c 128,-1,112
 531 148 531 148 531 142 c 0,113,114
 531 135 531 135 522 115 c 0,115,116
 511 90 511 90 507 78 c 0,117,118
 496 40 496 40 473 36 c 0,119,120
 458 34 458 34 447 38 c 0,121,122
 438 41 438 41 427 58 c 128,-1,123
 416 75 416 75 416 85 c 0,0,1
EndSplineSet
Validated: 1
EndChar

StartChar: X
Encoding: 88 88 51
Width: 667
GlyphClass: 1
Flags: W
LayerCount: 2
Fore
SplineSet
66 600 m 0,0,1
 69 605 69 605 84 605 c 0,2,3
 94 605 94 605 99 602 c 0,4,5
 103 599 103 599 126.5 563 c 128,-1,6
 150 527 150 527 160 510 c 0,7,8
 169 491 169 491 172 490 c 0,9,10
 174 489 174 489 193 461 c 0,11,12
 217 425 217 425 241 401 c 0,13,14
 270 372 270 372 290 350 c 0,15,16
 307 333 307 333 307 337 c 128,-1,17
 307 341 307 341 355 413 c 0,18,19
 402 484 402 484 411 505 c 0,20,21
 426 537 426 537 447 537 c 0,22,23
 451 537 451 537 453 536 c 0,24,25
 475 530 475 530 475 494 c 0,26,27
 475 477 475 477 467 463 c 0,28,29
 458 447 458 447 454 447 c 128,-1,30
 450 447 450 447 418.5 403.5 c 128,-1,31
 387 360 387 360 377 340 c 2,32,-1
 363 312 l 1,33,-1
 352 290 l 1,34,-1
 362 281 l 2,35,36
 370 274 370 274 411 245 c 0,37,38
 504 177 504 177 565 86 c 0,39,40
 585 58 585 58 595 48 c 0,41,42
 609 34 609 34 611 15 c 2,43,-1
 611 8 l 2,44,45
 611 -26 611 -26 584 -26 c 2,46,-1
 578 -26 l 2,47,48
 563 -24 563 -24 558 -21 c 0,49,50
 545 -10 545 -10 505 59 c 0,51,52
 467 122 467 122 383 190 c 0,53,54
 333 231 333 231 332 233 c 0,55,56
 328 245 328 245 316 228 c 0,57,58
 315 225 315 225 313 222 c 0,59,60
 305 205 305 205 293 187 c 0,61,62
 292 185 292 185 262 131 c 0,63,64
 236 83 236 83 194 26 c 0,65,66
 181 7 181 7 174 -15 c 0,67,68
 172 -22 172 -22 168.5 -34.5 c 128,-1,69
 165 -47 165 -47 164 -50 c 0,70,71
 158 -69 158 -69 139 -69 c 0,72,73
 126 -69 126 -69 113 -57 c 0,74,75
 101 -45 101 -45 101 -35 c 0,76,77
 101 -26 101 -26 102 -19 c 0,78,79
 105 8 105 8 121 35 c 0,80,81
 145 71 145 71 154 81 c 0,82,83
 167 96 167 96 183 116 c 0,84,85
 196 134 196 134 234.5 201 c 128,-1,86
 273 268 273 268 273 277 c 128,-1,87
 273 286 273 286 250 308 c 0,88,89
 224 334 224 334 224 336 c 2,90,-1
 192 376 l 2,91,92
 157 415 157 415 115 481 c 0,93,94
 98 507 98 507 86 521 c 0,95,96
 60 551 60 551 60 564 c 0,97,98
 60 574 60 574 58 574 c 0,99,100
 51 574 51 574 60 591 c 0,101,102
 63 597 63 597 66 600 c 0,0,1
EndSplineSet
Validated: 1
EndChar

StartChar: Y
Encoding: 89 89 52
Width: 498
GlyphClass: 1
Flags: W
LayerCount: 2
Fore
SplineSet
393 644 m 0,0,1
 400 651 400 651 408 651 c 128,-1,2
 416 651 416 651 430 642 c 0,3,4
 440 635 440 635 441 609 c 2,5,-1
 441 598 l 2,6,7
 441 583 441 583 432 574 c 0,8,9
 422 566 422 566 422 559 c 0,10,11
 422 554 422 554 403.5 523 c 128,-1,12
 385 492 385 492 379 488 c 128,-1,13
 373 484 373 484 366 460 c 0,14,15
 364 454 364 454 354 427 c 128,-1,16
 344 400 344 400 337 381.5 c 128,-1,17
 330 363 330 363 321.5 336 c 128,-1,18
 313 309 313 309 306.5 284.5 c 128,-1,19
 300 260 300 260 297 240 c 0,20,21
 297 237 297 237 294.5 230.5 c 128,-1,22
 292 224 292 224 288.5 213.5 c 128,-1,23
 285 203 285 203 283 195 c 0,24,25
 251 93 251 93 241 69 c 0,26,27
 228 39 228 39 224 6 c 0,28,29
 216 -49 216 -49 185 -55 c 0,30,31
 182 -56 182 -56 177 -56 c 0,32,33
 162 -56 162 -56 153 -44 c 128,-1,34
 144 -32 144 -32 144 -11 c 0,35,36
 144 9 144 9 149 14 c 0,37,38
 164 26 164 26 218 181 c 0,39,40
 239 241 239 241 241 252 c 0,41,42
 241 254 241 254 250 284.5 c 128,-1,43
 259 315 259 315 259 321 c 0,44,45
 259 329 259 329 240 354.5 c 128,-1,46
 221 380 221 380 201 399 c 0,47,48
 195 405 195 405 180 419 c 128,-1,49
 165 433 165 433 160 438 c 0,50,51
 145 452 145 452 121.5 478 c 128,-1,52
 98 504 98 504 86 516 c 0,53,54
 56 546 56 546 56 563 c 0,55,56
 56 574 56 574 63 588 c 0,57,58
 75 613 75 613 87 613 c 0,59,60
 95 613 95 613 103 606 c 0,61,62
 114 598 114 598 146 538 c 0,63,64
 152 527 152 527 206.5 476 c 128,-1,65
 261 425 261 425 279 414 c 2,66,-1
 290 407 l 1,67,-1
 298 428 l 2,68,69
 300 433 300 433 302.5 439.5 c 128,-1,70
 305 446 305 446 307 451 c 128,-1,71
 309 456 309 456 309 459 c 0,72,73
 310 462 310 462 315 473 c 128,-1,74
 320 484 320 484 323.5 494 c 128,-1,75
 327 504 327 504 327 508 c 0,76,77
 327 516 327 516 344 556 c 0,78,79
 377 631 377 631 393 644 c 0,0,1
EndSplineSet
Validated: 1
EndChar

StartChar: Z
Encoding: 90 90 53
Width: 693
GlyphClass: 1
Flags: W
LayerCount: 2
Fore
SplineSet
579 106 m 0,0,1
 579 109 579 109 597 130 c 128,-1,2
 615 151 615 151 615 155 c 0,3,4
 615 160 615 160 622.5 163 c 128,-1,5
 630 166 630 166 635 163 c 0,6,7
 639 162 639 162 639 146 c 0,8,9
 639 103 639 103 624 71 c 0,10,11
 615 52 615 52 594.5 31.5 c 128,-1,12
 574 11 574 11 554 1 c 0,13,14
 536 -7 536 -7 530 -7 c 0,15,16
 527 -7 527 -7 515 -5 c 0,17,18
 501 -3 501 -3 493 -3 c 128,-1,19
 485 -3 485 -3 482 -4 c 0,20,21
 475 -6 475 -6 446 -6 c 0,22,23
 403 -6 403 -6 378 -2 c 0,24,25
 356 1 356 1 325 1 c 0,26,27
 290 1 290 1 262 -3 c 128,-1,28
 234 -7 234 -7 234 -13 c 0,29,30
 234 -17 234 -17 225 -17 c 0,31,32
 215 -17 215 -17 205 -29 c 0,33,34
 190 -44 190 -44 173 -44 c 0,35,36
 158 -44 158 -44 147 -33 c 128,-1,37
 136 -22 136 -22 134 -6 c 0,38,39
 132 4 132 4 130 9 c 0,40,41
 126 14 126 14 126 25 c 0,42,43
 126 40 126 40 132 50 c 0,44,45
 147 75 147 75 154 75 c 2,46,-1
 155 75 l 2,47,48
 156 74 156 74 157 75.5 c 128,-1,49
 158 77 158 77 158 79 c 0,50,51
 158 84 158 84 166 88 c 0,52,53
 171 89 171 89 182.5 101 c 128,-1,54
 194 113 194 113 197 114 c 0,55,56
 207 118 207 118 244 172 c 0,57,58
 255 189 255 189 284.5 247.5 c 128,-1,59
 314 306 314 306 324 331 c 0,60,61
 335 358 335 358 349 381 c 0,62,63
 411 488 411 488 415 510 c 2,64,-1
 417 521 l 1,65,-1
 388 524 l 2,66,67
 355 527 355 527 325 527 c 0,68,69
 319 527 319 527 291.5 526.5 c 128,-1,70
 264 526 264 526 241 526 c 2,71,-1
 154 526 l 1,72,-1
 154 516 l 2,73,74
 154 509 154 509 151.5 507.5 c 128,-1,75
 149 506 149 506 138 506 c 0,76,77
 123 506 123 506 123 500 c 0,78,79
 123 495 123 495 111.5 494 c 128,-1,80
 100 493 100 493 97 498 c 0,81,82
 95 502 95 502 84 502 c 0,83,84
 61 502 61 502 58 521 c 0,85,86
 57 524 57 524 57 530 c 0,87,88
 57 554 57 554 70 567 c 0,89,90
 85 581 85 581 307 584 c 0,91,92
 426 585 426 585 444 591 c 0,93,94
 453 594 453 594 460 594 c 0,95,96
 472 594 472 594 485 577 c 0,97,98
 495 562 495 562 495 543 c 0,99,100
 495 531 495 531 491 527 c 0,101,102
 486 522 486 522 481 510 c 128,-1,103
 476 498 476 498 470 492 c 0,104,105
 462 482 462 482 458 471 c 0,106,107
 457 465 457 465 440 438 c 0,108,109
 427 417 427 417 398 363 c 128,-1,110
 369 309 369 309 369 306 c 0,111,112
 369 304 369 304 344 251 c 128,-1,113
 319 198 319 198 313 189 c 0,114,115
 309 184 309 184 302 167 c 0,116,117
 284 130 284 130 249 81 c 0,118,119
 242 70 242 70 242 68 c 0,120,121
 242 67 242 67 292 67 c 0,122,123
 368 67 368 67 400 66 c 2,124,-1
 423 66 l 2,125,126
 481 66 481 66 512 82 c 0,127,128
 518 85 518 85 535.5 88 c 128,-1,129
 553 91 553 91 566 95 c 128,-1,130
 579 99 579 99 579 106 c 0,0,1
EndSplineSet
Validated: 1
EndChar

StartChar: a
Encoding: 97 97 54
Width: 516
GlyphClass: 1
Flags: W
LayerCount: 2
Fore
SplineSet
273 363 m 0,0,1
 275 374 275 374 274 376.5 c 128,-1,2
 273 379 273 379 269 379 c 0,3,4
 205 374 205 374 145 270 c 0,5,6
 121 230 121 230 121 214 c 0,7,8
 121 206 121 206 128 204 c 0,9,10
 129 204 129 204 131.5 203.5 c 128,-1,11
 134 203 134 203 135 203 c 0,12,13
 145 203 145 203 159 208 c 128,-1,14
 173 213 173 213 190 221 c 128,-1,15
 207 229 207 229 212 231 c 0,16,17
 244 243 244 243 253 254.5 c 128,-1,18
 262 266 262 266 263 298 c 0,19,20
 264 316 264 316 268 334 c 128,-1,21
 272 352 272 352 273 363 c 0,0,1
180 408 m 0,22,23
 193 420 193 420 223.5 433 c 128,-1,24
 254 446 254 446 275 446 c 2,25,-1
 276 446 l 2,26,27
 284 446 284 446 304 438.5 c 128,-1,28
 324 431 324 431 336 423 c 128,-1,29
 348 415 348 415 352 409.5 c 128,-1,30
 356 404 356 404 358 391 c 0,31,32
 360 379 360 379 360 375 c 0,33,34
 360 364 360 364 354 342 c 0,35,36
 338 280 338 280 328 258 c 0,37,38
 312 220 312 220 312 184 c 0,39,40
 312 166 312 166 318 158 c 0,41,42
 323 152 323 152 334 150.5 c 128,-1,43
 345 149 345 149 390 148 c 0,44,45
 460 147 460 147 460 138 c 0,46,47
 460 134 460 134 452 123 c 0,48,49
 440 107 440 107 427 100 c 128,-1,50
 414 93 414 93 388 88 c 0,51,52
 355 82 355 82 330 82 c 0,53,54
 275 82 275 82 257 110 c 0,55,56
 247 124 247 124 247 158 c 2,57,-1
 247 173 l 2,58,59
 247 187 247 187 245 187 c 0,60,61
 244 187 244 187 240 183 c 0,62,63
 232 176 232 176 197.5 156.5 c 128,-1,64
 163 137 163 137 159 137 c 0,65,66
 154 137 154 137 150 133 c 128,-1,67
 146 129 146 129 123 127 c 0,68,69
 121 127 121 127 117 126.5 c 128,-1,70
 113 126 113 126 111 126 c 0,71,72
 55 126 55 126 55 184 c 0,73,74
 55 224 55 224 79 270 c 0,75,76
 85 280 85 280 85 287 c 0,77,78
 85 292 85 292 89 292 c 128,-1,79
 93 292 93 292 93 300 c 128,-1,80
 93 308 93 308 97 310 c 0,81,82
 105 318 105 318 115 333 c 0,83,84
 125 349 125 349 144 371 c 0,85,86
 161 390 161 390 161 392 c 0,87,88
 161 395 161 395 164 395 c 0,89,90
 165 395 165 395 180 408 c 0,22,23
EndSplineSet
Validated: 1
EndChar

StartChar: b
Encoding: 98 98 55
Width: 389
GlyphClass: 1
Flags: W
LayerCount: 2
Fore
SplineSet
267 208 m 0,0,1
 267 212 267 212 270.5 219.5 c 128,-1,2
 274 227 274 227 274 232 c 0,3,4
 274 236 274 236 273 238 c 0,5,6
 271 249 271 249 256 248 c 0,7,8
 193 245 193 245 162 182 c 0,9,10
 152 162 152 162 152 159 c 0,11,12
 152 158 152 158 155 158 c 0,13,14
 187 158 187 158 237 180 c 0,15,16
 267 192 267 192 267 208 c 0,0,1
254 110 m 0,17,18
 246 110 246 110 240.5 106 c 128,-1,19
 235 102 235 102 226 102 c 0,20,21
 193 102 193 102 145 87 c 2,22,-1
 112 77 l 1,23,-1
 90 88 l 2,24,25
 54 107 54 107 54 135 c 0,26,27
 54 149 54 149 60 173 c 0,28,29
 76 234 76 234 82 318 c 0,30,31
 84 345 84 345 88 365 c 0,32,33
 98 422 98 422 98 467 c 0,34,35
 98 481 98 481 93.5 492.5 c 128,-1,36
 89 504 89 504 84 504 c 2,37,-1
 83 504 l 2,38,39
 76 501 76 501 80 509 c 0,40,41
 80 511 80 511 81 512 c 0,42,43
 84 519 84 519 99 528 c 128,-1,44
 114 537 114 537 130 542 c 0,45,46
 138 545 138 545 142 545 c 0,47,48
 148 545 148 545 158 526 c 0,49,50
 166 510 166 510 166 493 c 0,51,52
 166 478 166 478 160 475 c 0,53,54
 154 471 154 471 143 387 c 128,-1,55
 132 303 132 303 132 264 c 2,56,-1
 132 246 l 1,57,-1
 147 265 l 2,58,59
 164 284 164 284 204.5 301.5 c 128,-1,60
 245 319 245 319 272 319 c 0,61,62
 279 319 279 319 282 318 c 0,63,64
 335 307 335 307 335 224 c 0,65,66
 335 198 335 198 323 175 c 0,67,68
 308 147 308 147 304 143 c 0,69,70
 293 131 293 131 277 120.5 c 128,-1,71
 261 110 261 110 254 110 c 0,17,18
EndSplineSet
Validated: 1
EndChar

StartChar: c
Encoding: 99 99 56
Width: 496
GlyphClass: 1
Flags: W
LayerCount: 2
Fore
SplineSet
140 398 m 0,0,1
 140 400 140 400 152 406 c 128,-1,2
 164 412 164 412 181.5 419 c 128,-1,3
 199 426 199 426 204 429 c 0,4,5
 216 435 216 435 220.5 435 c 128,-1,6
 225 435 225 435 233 431 c 0,7,8
 241 428 241 428 247.5 414 c 128,-1,9
 254 400 254 400 254 386 c 0,10,11
 254 380 254 380 253 377 c 0,12,13
 249 349 249 349 224 349 c 0,14,15
 222 349 222 349 219 349.5 c 128,-1,16
 216 350 216 350 215 350 c 0,17,18
 198 353 198 353 185 346 c 0,19,20
 171 339 171 339 157.5 325 c 128,-1,21
 144 311 144 311 144 304 c 0,22,23
 144 296 144 296 138 284 c 0,24,25
 126 262 126 262 126 221 c 0,26,27
 126 210 126 210 128 196 c 0,28,29
 133 171 133 171 143.5 162 c 128,-1,30
 154 153 154 153 185 149 c 0,31,32
 201 146 201 146 227 146 c 0,33,34
 290 146 290 146 352 159 c 0,35,36
 365 162 365 162 411 167 c 2,37,-1
 442 170 l 1,38,-1
 442 160 l 2,39,40
 442 136 442 136 420 121 c 0,41,42
 353 77 353 77 230 77 c 2,43,-1
 218 77 l 2,44,45
 208 77 208 77 186 77.5 c 128,-1,46
 164 78 164 78 158 78 c 0,47,48
 120 79 120 79 101 91.5 c 128,-1,49
 82 104 82 104 68 139 c 0,50,51
 54 175 54 175 54 207 c 0,52,53
 54 231 54 231 61 251 c 0,54,55
 69 275 69 275 69 276 c 0,56,57
 69 278 69 278 77 298 c 0,58,59
 81 308 81 308 87 329 c 0,60,61
 89 341 89 341 105 363 c 128,-1,62
 121 385 121 385 131 390 c 0,63,64
 140 395 140 395 140 398 c 0,0,1
EndSplineSet
Validated: 1
EndChar

StartChar: d
Encoding: 100 100 57
Width: 326
GlyphClass: 1
Flags: W
LayerCount: 2
Fore
SplineSet
199 193 m 2,0,-1
 199 225 l 1,1,-1
 186 225 l 2,2,3
 159 225 159 225 159 211 c 0,4,5
 159 205 159 205 155 205 c 128,-1,6
 151 205 151 205 151 200 c 0,7,8
 151 194 151 194 144 187 c 0,9,10
 135 178 135 178 129 165 c 2,11,-1
 122 149 l 1,12,-1
 132 139 l 2,13,14
 142 130 142 130 167 129 c 2,15,-1
 194 127 l 1,16,-1
 196 144 l 2,17,18
 199 174 199 174 199 193 c 2,0,-1
231 478 m 0,19,20
 244 487 244 487 248 487 c 0,21,22
 254 487 254 487 262 476 c 128,-1,23
 270 465 270 465 272 454 c 2,24,-1
 272 446 l 2,25,26
 272 430 272 430 269 413 c 0,27,28
 265 394 265 394 265 380 c 0,29,30
 265 361 265 361 262 325 c 0,31,32
 259 287 259 287 253 141 c 2,33,-1
 251 104 l 1,34,-1
 236 91 l 2,35,36
 205 64 205 64 152 56 c 2,37,-1
 118 50 l 1,38,-1
 96 63 l 2,39,40
 77 74 77 74 68 88 c 0,41,42
 67 90 67 90 63 95 c 128,-1,43
 59 100 59 100 58.5 101.5 c 128,-1,44
 58 103 58 103 56.5 107 c 128,-1,45
 55 111 55 111 55 114.5 c 128,-1,46
 55 118 55 118 54.5 124 c 128,-1,47
 54 130 54 130 54 140 c 0,48,49
 54 175 54 175 66 195 c 0,50,51
 101 256 101 256 102 257 c 0,52,53
 108 263 108 263 108 267 c 0,54,55
 108 272 108 272 124 286.5 c 128,-1,56
 140 301 140 301 150 305 c 0,57,58
 159 308 159 308 185 312 c 2,59,-1
 208 314 l 1,60,-1
 207 334 l 2,61,62
 207 338 207 338 205 361.5 c 128,-1,63
 203 385 203 385 203 397 c 0,64,65
 203 414 203 414 206 417 c 0,66,67
 210 423 210 423 208 428 c 2,68,-1
 208 430 l 2,69,70
 207 432 207 432 207 433 c 0,71,72
 207 443 207 443 215 457 c 128,-1,73
 223 471 223 471 231 478 c 0,19,20
EndSplineSet
Validated: 1
EndChar

StartChar: e
Encoding: 101 101 58
Width: 492
GlyphClass: 1
Flags: W
LayerCount: 2
Fore
SplineSet
230 300 m 1,0,-1
 230 332 l 1,1,-1
 183 332 l 1,2,-1
 183 300 l 1,3,-1
 230 300 l 1,0,-1
202 387 m 0,4,5
 234 390 234 390 243 390 c 0,6,7
 255 390 255 390 263 382 c 0,8,9
 280 363 280 363 280 326 c 0,10,11
 280 300 280 300 271 278 c 0,12,13
 264 263 264 263 257 257.5 c 128,-1,14
 250 252 250 252 234 250 c 0,15,16
 223 249 223 249 210 246 c 128,-1,17
 197 243 197 243 179 242 c 0,18,19
 155 240 155 240 150 235 c 0,20,21
 147 232 147 232 141 238 c 0,22,23
 136 243 136 243 132 243 c 0,24,25
 127 243 127 243 121 223 c 0,26,27
 117 207 117 207 117 200 c 0,28,29
 117 181 117 181 131 167 c 0,30,31
 146 153 146 153 175 149 c 128,-1,32
 204 145 204 145 298 143 c 0,33,34
 408 141 408 141 424 139 c 0,35,36
 437 138 437 138 437 130 c 0,37,38
 437 118 437 118 406 102 c 128,-1,39
 375 86 375 86 341 82 c 0,40,41
 290 76 290 76 245 76 c 0,42,43
 101 76 101 76 73 123 c 0,44,45
 54 152 54 152 54 190 c 0,46,47
 54 198 54 198 55 201 c 128,-1,48
 56 204 56 204 65 250.5 c 128,-1,49
 74 297 74 297 80 308 c 0,50,51
 116 378 116 378 202 387 c 0,4,5
EndSplineSet
Validated: 1
EndChar

StartChar: f
Encoding: 102 102 59
Width: 421
GlyphClass: 1
Flags: W
LayerCount: 2
Fore
SplineSet
310 580 m 0,0,1
 327 585 327 585 333 585 c 0,2,3
 341 585 341 585 346 581 c 0,4,5
 361 569 361 569 361 541 c 0,6,7
 361 510 361 510 324 492 c 0,8,9
 270 466 270 466 270 452 c 0,10,11
 270 447 270 447 266 447 c 0,12,13
 263 447 263 447 256 429 c 0,14,15
 246 406 246 406 246 353 c 0,16,17
 246 336 246 336 249 336 c 0,18,19
 251 336 251 336 283 340 c 0,20,21
 300 343 300 343 316 343 c 0,22,23
 364 343 364 343 364 328 c 0,24,25
 364 320 364 320 356.5 307 c 128,-1,26
 349 294 349 294 341 290 c 0,27,28
 332 286 332 286 302 280 c 128,-1,29
 272 274 272 274 263 265 c 128,-1,30
 254 256 254 256 250 256 c 128,-1,31
 246 256 246 256 246 250 c 0,32,33
 246 245 246 245 238 233 c 0,34,35
 223 211 223 211 221 111 c 0,36,37
 220 56 220 56 195 24 c 0,38,39
 176 2 176 2 157 2 c 0,40,41
 145 2 145 2 136 11 c 0,42,43
 126 22 126 22 126 30 c 0,44,45
 126 37 126 37 137 47 c 0,46,47
 151 60 151 60 155 74 c 128,-1,48
 159 88 159 88 159 121 c 0,49,50
 159 156 159 156 165 190 c 0,51,52
 170 217 170 217 170 222 c 0,53,54
 170 231 170 231 159 231 c 0,55,56
 146 231 146 231 136 230 c 0,57,58
 108 227 108 227 91 227 c 0,59,60
 71 227 71 227 65 232.5 c 128,-1,61
 59 238 59 238 57 255 c 0,62,63
 55 266 55 266 57 270 c 128,-1,64
 59 274 59 274 66 279 c 0,65,66
 77 288 77 288 83 288 c 0,67,68
 94 288 94 288 122.5 296.5 c 128,-1,69
 151 305 151 305 158 311 c 0,70,71
 161 313 161 313 170 316.5 c 128,-1,72
 179 320 179 320 183 324 c 128,-1,73
 187 328 187 328 187 337 c 0,74,75
 188 369 188 369 195.5 417 c 128,-1,76
 203 465 203 465 210 478 c 0,77,78
 216 490 216 490 244.5 520 c 128,-1,79
 273 550 273 550 278 550 c 0,80,81
 280 550 280 550 283.5 563.5 c 128,-1,82
 287 577 287 577 290 577 c 2,83,-1
 291 577 l 2,84,85
 296 575 296 575 310 580 c 0,0,1
EndSplineSet
Validated: 1
EndChar

StartChar: g
Encoding: 103 103 60
Width: 367
GlyphClass: 1
Flags: W
LayerCount: 2
Fore
SplineSet
235 288 m 0,0,1
 235 297 235 297 232 297 c 0,2,3
 227 297 227 297 209 290 c 0,4,5
 195 285 195 285 182.5 273.5 c 128,-1,6
 170 262 170 262 170 256 c 128,-1,7
 170 250 170 250 184 250 c 0,8,9
 200 250 200 250 213 256 c 0,10,11
 235 266 235 266 235 288 c 0,0,1
149 -116 m 0,12,13
 145 -116 145 -116 136.5 -122.5 c 128,-1,14
 128 -129 128 -129 123 -129 c 0,15,16
 110 -129 110 -129 104 -130 c 2,17,-1
 100 -130 l 2,18,19
 86 -130 86 -130 72 -122 c 128,-1,20
 58 -114 58 -114 58 -102 c 0,21,22
 58 -95 58 -95 62 -90 c 0,23,24
 68 -80 68 -80 74 -80 c 0,25,26
 81 -80 81 -80 115 -64 c 0,27,28
 160 -43 160 -43 194 -16 c 128,-1,29
 228 11 228 11 237 33 c 0,30,31
 243 48 243 48 243 82 c 2,32,-1
 243 99 l 2,33,34
 243 173 243 173 237 182 c 0,35,36
 236 185 236 185 227 185 c 0,37,38
 210 185 210 185 201 178 c 0,39,40
 199 176 199 176 175 176 c 0,41,42
 137 176 137 176 125 180 c 0,43,44
 100 187 100 187 100 240 c 0,45,46
 100 263 100 263 107 278 c 128,-1,47
 114 293 114 293 137 322 c 0,48,49
 157 347 157 347 175 352 c 0,50,51
 185 354 185 354 195 360 c 128,-1,52
 205 366 205 366 214 367 c 0,53,54
 228 369 228 369 234 369 c 0,55,56
 276 369 276 369 294 332 c 0,57,58
 303 312 303 312 303 300 c 0,59,60
 303 289 303 289 310 270 c 0,61,62
 315 259 315 259 315 250 c 0,63,64
 315 239 315 239 310 224 c 0,65,66
 304 200 304 200 304 171 c 0,67,68
 304 146 304 146 305 129 c 0,69,70
 307 63 307 63 307 56 c 0,71,72
 307 18 307 18 292 -9 c 0,73,74
 259 -67 259 -67 218 -88 c 0,75,76
 160 -116 160 -116 149 -116 c 0,12,13
EndSplineSet
Validated: 1
EndChar

StartChar: h
Encoding: 104 104 61
Width: 416
GlyphClass: 1
Flags: W
LayerCount: 2
Fore
SplineSet
167 479 m 0,0,1
 176 485 176 485 185 485 c 0,2,3
 199 485 199 485 208.5 472.5 c 128,-1,4
 218 460 218 460 218 441 c 0,5,6
 218 417 218 417 198 392 c 0,7,8
 196 390 196 390 190 362 c 0,9,10
 189 354 189 354 185.5 335 c 128,-1,11
 182 316 182 316 182 315 c 0,12,13
 179 303 179 303 179 296 c 0,14,15
 179 290 179 290 183 290 c 0,16,17
 185 290 185 290 195 295 c 0,18,19
 206 302 206 302 219 297 c 0,20,21
 232 293 232 293 237 288 c 128,-1,22
 242 283 242 283 250 269 c 0,23,24
 261 247 261 247 261 207 c 0,25,26
 261 196 261 196 259 174 c 0,27,28
 255 147 255 147 258 144 c 0,29,30
 259 143 259 143 271 143 c 0,31,32
 315 143 315 143 342 149 c 0,33,34
 345 150 345 150 350 150 c 0,35,36
 361 150 361 150 361 143 c 128,-1,37
 361 136 361 136 347.5 119 c 128,-1,38
 334 102 334 102 334 100 c 0,39,40
 334 93 334 93 301.5 80.5 c 128,-1,41
 269 68 269 68 244 65 c 0,42,43
 242 65 242 65 238.5 64.5 c 128,-1,44
 235 64 235 64 234 64 c 0,45,46
 224 64 224 64 208 72 c 0,47,48
 198 78 198 78 194.5 83 c 128,-1,49
 191 88 191 88 187 102 c 0,50,51
 183 114 183 114 183 125 c 0,52,53
 183 134 183 134 186 146 c 0,54,55
 190 163 190 163 190 177 c 0,56,57
 190 179 190 179 195 192.5 c 128,-1,58
 200 206 200 206 200 211 c 0,59,60
 200 214 200 214 199 215 c 128,-1,61
 198 216 198 216 196 216 c 0,62,63
 187 216 187 216 170.5 199.5 c 128,-1,64
 154 183 154 183 154 173 c 0,65,66
 154 169 154 169 148 163 c 128,-1,67
 142 157 142 157 140 143 c 0,68,69
 130 76 130 76 90 76 c 2,70,-1
 86 76 l 2,71,72
 74 77 74 77 70.5 79.5 c 128,-1,73
 67 82 67 82 62 91 c 0,74,75
 55 104 55 104 55 127 c 0,76,77
 55 142 55 142 59 145 c 0,78,79
 63 147 63 147 63 171 c 128,-1,80
 63 195 63 195 70 195 c 0,81,82
 73 195 73 195 78 190 c 128,-1,83
 83 185 83 185 84 193 c 0,84,85
 84 199 84 199 81 201 c 0,86,87
 72 205 72 205 75 208 c 0,88,89
 78 210 78 210 84 208 c 2,90,-1
 86 208 l 1,91,-1
 88 207 l 2,92,93
 92 207 92 207 94 211.5 c 128,-1,94
 96 216 96 216 103 239 c 0,95,96
 123 305 123 305 135 362 c 0,97,98
 136 365 136 365 137 372 c 128,-1,99
 138 379 138 379 138.5 384 c 128,-1,100
 139 389 139 389 141 394.5 c 128,-1,101
 143 400 143 400 145.5 403 c 128,-1,102
 148 406 148 406 151 406 c 0,103,104
 156 406 156 406 157 411 c 128,-1,105
 158 416 158 416 158 439 c 0,106,107
 158 472 158 472 167 479 c 0,0,1
EndSplineSet
Validated: 1
EndChar

StartChar: i
Encoding: 105 105 62
Width: 289
GlyphClass: 1
Flags: W
LayerCount: 2
Fore
SplineSet
121 442 m 0,0,1
 121 445 121 445 128 445 c 0,2,3
 148 445 148 445 155 435 c 0,4,5
 160 430 160 430 160 413 c 0,6,7
 160 394 160 394 153 383 c 0,8,9
 147 374 147 374 128 371 c 0,10,11
 126 371 126 371 124 370.5 c 128,-1,12
 122 370 122 370 120 370 c 0,13,14
 95 370 95 370 89 398 c 0,15,16
 88 401 88 401 88 406 c 0,17,18
 88 418 88 418 94.5 427.5 c 128,-1,19
 101 437 101 437 111 437 c 128,-1,20
 121 437 121 437 121 442 c 0,0,1
90 290 m 0,21,22
 92 304 92 304 103 312.5 c 128,-1,23
 114 321 114 321 127 321 c 0,24,25
 147 321 147 321 156 302 c 0,26,27
 159 294 159 294 159 282 c 0,28,29
 159 259 159 259 152 247 c 0,30,31
 140 222 140 222 130 184 c 0,32,33
 130 183 130 183 130 182 c 2,34,-1
 129 180 l 1,35,36
 129 162 129 162 177 159 c 2,37,-1
 191 159 l 2,38,39
 209 159 209 159 212 162 c 0,40,41
 215 167 215 167 224 167 c 2,42,-1
 227 167 l 2,43,44
 235 167 235 167 235 158 c 128,-1,45
 235 149 235 149 226 134 c 0,46,47
 205 100 205 100 185 96 c 0,48,49
 172 94 172 94 170 90 c 0,50,51
 169 89 169 89 157 89 c 0,52,53
 122 89 122 89 106 93 c 0,54,55
 85 98 85 98 64 139 c 0,56,57
 55 157 55 157 55 172 c 0,58,59
 55 184 55 184 63 202 c 0,60,61
 72 230 72 230 75 240 c 0,62,63
 79 256 79 256 83 267.5 c 128,-1,64
 87 279 87 279 90 290 c 0,21,22
EndSplineSet
Validated: 1
EndChar

StartChar: j
Encoding: 106 106 63
Width: 392
GlyphClass: 1
Flags: W
LayerCount: 2
Fore
SplineSet
227 554 m 128,-1,1
 236 556 236 556 250 556 c 0,2,3
 284 556 284 556 297 525 c 0,4,5
 302 512 302 512 302 493 c 0,6,7
 302 458 302 458 292 443 c 0,8,9
 276 418 276 418 243 418 c 0,10,11
 226 418 226 418 213 431 c 0,12,13
 199 445 199 445 199 453 c 0,14,15
 199 464 199 464 191 474 c 0,16,17
 185 483 185 483 185 495 c 0,18,19
 185 518 185 518 203 537 c 0,20,0
 218 552 218 552 227 554 c 128,-1,1
288 404 m 0,21,22
 297 413 297 413 302 413 c 0,23,24
 310 413 310 413 318 391.5 c 128,-1,25
 326 370 326 370 330 367 c 0,26,27
 338 361 338 361 338 338 c 0,28,29
 338 305 338 305 326 284 c 0,30,31
 316 266 316 266 313 234 c 0,32,33
 300 61 300 61 282 25 c 0,34,35
 243 -52 243 -52 185 -86 c 0,36,37
 105 -134 105 -134 88 -134 c 0,38,39
 82 -134 82 -134 74 -131 c 0,40,41
 65 -127 65 -127 63 -123 c 128,-1,42
 61 -119 61 -119 59 -104 c 0,43,44
 58 -99 58 -99 58 -92 c 0,45,46
 58 -73 58 -73 71 -73 c 0,47,48
 78 -73 78 -73 117 -50.5 c 128,-1,49
 156 -28 156 -28 172 -14 c 0,50,51
 215 21 215 21 228 59 c 0,52,53
 240 96 240 96 244 121 c 128,-1,54
 248 146 248 146 259 260 c 0,55,56
 266 337 266 337 277 355 c 0,57,58
 285 368 285 368 285 384 c 0,59,60
 285 391 285 391 283 392 c 0,61,62
 279 394 279 394 288 404 c 0,21,22
EndSplineSet
Validated: 1
EndChar

StartChar: k
Encoding: 107 107 64
Width: 594
GlyphClass: 1
Flags: W
LayerCount: 2
Fore
SplineSet
232 498 m 0,0,1
 246 505 246 505 251 505 c 0,2,3
 255 505 255 505 263.5 497.5 c 128,-1,4
 272 490 272 490 272 486 c 0,5,6
 272 485 272 485 274 467 c 0,7,8
 274 466 274 466 274.5 463 c 128,-1,9
 275 460 275 460 275 458 c 0,10,11
 275 445 275 445 263 421 c 0,12,13
 236 363 236 363 211 290 c 0,14,15
 193 242 193 242 190 235 c 0,16,17
 180 212 180 212 180 207 c 0,18,19
 180 206 180 206 182 206 c 128,-1,20
 184 206 184 206 188 206.5 c 128,-1,21
 192 207 192 207 197 208 c 0,22,23
 233 214 233 214 297 264 c 0,24,25
 312 275 312 275 331 279 c 0,26,27
 343 281 343 281 345 281 c 0,28,29
 352 281 352 281 359 272 c 0,30,31
 368 261 368 261 366 245 c 0,32,33
 360 212 360 212 331 202 c 0,34,35
 316 198 316 198 293 184 c 0,36,37
 271 171 271 171 270 171 c 0,38,39
 268 171 268 171 258 164 c 128,-1,40
 248 157 248 157 253 151 c 0,41,42
 259 144 259 144 279.5 135.5 c 128,-1,43
 300 127 300 127 311 127 c 0,44,45
 324 127 324 127 324 123 c 128,-1,46
 324 119 324 119 339 119 c 0,47,48
 347 119 347 119 375 123 c 0,49,50
 385 125 385 125 415.5 129 c 128,-1,51
 446 133 446 133 471 137.5 c 128,-1,52
 496 142 496 142 509 147 c 0,53,54
 524 152 524 152 531 145 c 2,55,-1
 539 137 l 1,56,-1
 529 128 l 2,57,58
 519 120 519 120 519 113 c 0,59,60
 519 107 519 107 516 107 c 0,61,62
 514 107 514 107 497 94 c 0,63,64
 472 73 472 73 403 59 c 0,65,66
 361 51 361 51 331 51 c 0,67,68
 274 51 274 51 243 72 c 0,69,70
 232 79 232 79 229 79 c 0,71,72
 224 79 224 79 221 84 c 0,73,74
 216 93 216 93 201 101.5 c 128,-1,75
 186 110 186 110 177 110 c 0,76,77
 172 110 172 110 172 107 c 0,78,79
 172 103 172 103 156 96 c 0,80,81
 145 91 145 91 142.5 88 c 128,-1,82
 140 85 140 85 140 75 c 0,83,84
 140 59 140 59 130 29 c 0,85,86
 122 4 122 4 114.5 -4.5 c 128,-1,87
 107 -13 107 -13 92 -13 c 0,88,89
 82 -13 82 -13 71.5 -6.5 c 128,-1,90
 61 0 61 0 59 8 c 0,91,92
 57 18 57 18 57 25 c 0,93,94
 57 45 57 45 65 59 c 0,95,96
 81 90 81 90 88 117 c 0,97,98
 92 134 92 134 117 198 c 0,99,100
 127 225 127 225 127 236 c 0,101,102
 127 237 127 237 126.5 240 c 128,-1,103
 126 243 126 243 126 245 c 0,104,105
 126 266 126 266 136 266 c 0,106,107
 141 266 141 266 152.5 288 c 128,-1,108
 164 310 164 310 164 320 c 0,109,110
 164 325 164 325 168 333 c 0,111,112
 185 362 185 362 185 389 c 0,113,114
 185 394 185 394 184 396 c 0,115,116
 180 407 180 407 190 410 c 128,-1,117
 200 413 200 413 200 431 c 0,118,119
 200 451 200 451 209.5 471.5 c 128,-1,120
 219 492 219 492 232 498 c 0,0,1
EndSplineSet
Validated: 1
EndChar

StartChar: l
Encoding: 108 108 65
Width: 516
GlyphClass: 1
Flags: W
LayerCount: 2
Fore
SplineSet
330 86 m 0,0,1
 330 84 330 84 316 76 c 128,-1,2
 302 68 302 68 302 67 c 0,3,4
 302 63 302 63 297 63 c 0,5,6
 290 63 290 63 280 57 c 0,7,8
 266 50 266 50 230 50 c 2,9,-1
 213 50 l 2,10,11
 192 50 192 50 182 59 c 0,12,13
 171 70 171 70 168 82 c 0,14,15
 158 119 158 119 158 137 c 0,16,17
 158 163 158 163 155 163 c 128,-1,18
 152 163 152 163 141.5 149 c 128,-1,19
 131 135 131 135 131 131 c 0,20,21
 131 129 131 129 116 110 c 0,22,23
 100 92 100 92 95 80 c 0,24,25
 88 67 88 67 78 67 c 0,26,27
 61 67 61 67 56 97 c 1,28,-1
 56 103 l 2,29,30
 56 117 56 117 62.5 131.5 c 128,-1,31
 69 146 69 146 79 151 c 0,32,33
 87 157 87 157 87 162 c 0,34,35
 87 165 87 165 93 169 c 0,36,37
 99 170 99 170 105 183 c 0,38,39
 109 191 109 191 122 206.5 c 128,-1,40
 135 222 135 222 140 230 c 0,41,42
 149 245 149 245 158 252 c 0,43,44
 166 260 166 260 166 273 c 0,45,46
 166 282 166 282 171.5 290 c 128,-1,47
 177 298 177 298 182 298 c 0,48,49
 184 298 184 298 190 320 c 0,50,51
 195 341 195 341 201 347 c 0,52,53
 206 352 206 352 206 365 c 0,54,55
 206 375 206 375 215 404.5 c 128,-1,56
 224 434 224 434 225 442 c 0,57,58
 227 463 227 463 234 480 c 0,59,60
 242 500 242 500 242 504 c 0,61,62
 242 511 242 511 253 522 c 0,63,64
 262 532 262 532 280 532 c 0,65,66
 288 531 288 531 291 530 c 128,-1,67
 294 529 294 529 296.5 526.5 c 128,-1,68
 299 524 299 524 301 517 c 0,69,70
 304 506 304 506 304 487 c 0,71,72
 304 431 304 431 289 401 c 0,73,74
 286 395 286 395 286 386 c 0,75,76
 286 378 286 378 280 374 c 0,77,78
 276 370 276 370 268.5 354 c 128,-1,79
 261 338 261 338 256 335 c 0,80,81
 252 331 252 331 240 294 c 0,82,83
 219 239 219 239 219 178 c 0,84,85
 219 156 219 156 224 146 c 0,86,87
 229 138 229 138 247 138 c 0,88,89
 282 138 282 138 358 165 c 0,90,91
 388 176 388 176 389 178 c 0,92,93
 392 184 392 184 431 194 c 0,94,95
 446 198 446 198 454 190 c 0,96,97
 461 183 461 183 461 178 c 0,98,99
 461 170 461 170 409 145 c 0,100,101
 386 133 386 133 374 120 c 0,102,103
 359 105 359 105 345 98 c 0,104,105
 330 91 330 91 330 86 c 0,0,1
EndSplineSet
Validated: 1
EndChar

StartChar: m
Encoding: 109 109 66
Width: 640
GlyphClass: 1
Flags: W
LayerCount: 2
Fore
SplineSet
370 371 m 0,0,1
 379 377 379 377 392 377 c 0,2,3
 400 377 400 377 411 374 c 0,4,5
 434 367 434 367 434 313 c 0,6,7
 434 278 434 278 420 255 c 0,8,9
 413 244 413 244 415 235 c 0,10,11
 416 228 416 228 418.5 226 c 128,-1,12
 421 224 421 224 431 225 c 0,13,14
 440 225 440 225 455.5 230.5 c 128,-1,15
 471 236 471 236 490 243.5 c 128,-1,16
 509 251 509 251 518 254 c 0,17,18
 542 261 542 261 555 269 c 0,19,20
 568 276 568 276 572 277 c 128,-1,21
 576 278 576 278 580 273 c 0,22,23
 585 269 585 269 584.5 265.5 c 128,-1,24
 584 262 584 262 577 253 c 0,25,26
 571 246 571 246 544 219 c 0,27,28
 519 195 519 195 463 168 c 128,-1,29
 407 141 407 141 383 141 c 0,30,31
 382 141 382 141 380 142 c 2,32,-1
 378 142 l 1,33,34
 354 149 354 149 343 174 c 0,35,36
 337 187 337 187 337 210 c 0,37,38
 337 245 337 245 349 264 c 0,39,40
 359 282 359 282 359 285 c 0,41,42
 359 286 359 286 358 286 c 0,43,44
 352 286 352 286 324 259 c 0,45,46
 295 232 295 232 295 225 c 0,47,48
 295 216 295 216 280 187 c 128,-1,49
 265 158 265 158 256 150 c 0,50,51
 245 139 245 139 229 139 c 0,52,53
 214 139 214 139 202.5 149.5 c 128,-1,54
 191 160 191 160 191 176 c 0,55,56
 191 183 191 183 201.5 205 c 128,-1,57
 212 227 212 227 221 238 c 0,58,59
 225 242 225 242 227.5 248 c 128,-1,60
 230 254 230 254 229.5 258 c 128,-1,61
 229 262 229 262 227 262 c 0,62,63
 216 262 216 262 183 232 c 128,-1,64
 150 202 150 202 142 183 c 0,65,66
 122 136 122 136 92 129 c 0,67,68
 91 129 91 129 89 128.5 c 128,-1,69
 87 128 87 128 86 128 c 0,70,71
 73 128 73 128 64 138 c 128,-1,72
 55 148 55 148 55 162 c 0,73,74
 55 174 55 174 61 184 c 0,75,76
 100 258 100 258 108 305 c 0,77,78
 113 329 113 329 128 346 c 0,79,80
 144 362 144 362 150 362 c 0,81,82
 162 362 162 362 172.5 349 c 128,-1,83
 183 336 183 336 183 322 c 0,84,85
 183 316 183 316 180 310 c 0,86,87
 178 307 178 307 178 303 c 0,88,89
 178 301 178 301 180 301 c 0,90,91
 188 301 188 301 232 335 c 0,92,93
 263 359 263 359 280 359 c 0,94,95
 291 359 291 359 296 356.5 c 128,-1,96
 301 354 301 354 309 344 c 2,97,-1
 322 329 l 1,98,-1
 329 338 l 2,99,100
 338 350 338 350 370 371 c 0,0,1
EndSplineSet
Validated: 1
EndChar

StartChar: n
Encoding: 110 110 67
Width: 467
GlyphClass: 1
Flags: W
LayerCount: 2
Fore
SplineSet
103 344 m 0,0,1
 112 353 112 353 117 349 c 2,2,-1
 118 346 l 2,3,4
 118 342 118 342 124 342 c 0,5,6
 129 342 129 342 140.5 330.5 c 128,-1,7
 152 319 152 319 152 314 c 2,8,-1
 152 302 l 2,9,10
 154 296 154 296 155.5 296 c 128,-1,11
 157 296 157 296 167 302 c 0,12,13
 181 310 181 310 197 318 c 0,14,15
 214 326 214 326 214 330 c 128,-1,16
 214 334 214 334 220 334 c 128,-1,17
 226 334 226 334 226 338 c 0,18,19
 226 341 226 341 230 341.5 c 128,-1,20
 234 342 234 342 240 340.5 c 128,-1,21
 246 339 246 339 251 335 c 0,22,23
 269 320 269 320 274.5 311 c 128,-1,24
 280 302 280 302 281 285 c 0,25,26
 281 260 281 260 274 240 c 0,27,28
 260 200 260 200 260 172 c 0,29,30
 260 167 260 167 261 166 c 2,31,-1
 263 166 l 2,32,33
 271 166 271 166 334.5 196 c 128,-1,34
 398 226 398 226 404 226 c 0,35,36
 412 226 412 226 412 219 c 0,37,38
 412 204 412 204 383.5 172.5 c 128,-1,39
 355 141 355 141 322 122 c 0,40,41
 262 87 262 87 235 87 c 0,42,43
 225 87 225 87 218 91 c 0,44,45
 212 94 212 94 205 112 c 0,46,47
 200 125 200 125 200 140 c 0,48,49
 200 158 200 158 202 173 c 0,50,51
 206 216 206 216 209 233 c 0,52,53
 213 252 213 252 210 253 c 2,54,-1
 208 253 l 2,55,56
 200 253 200 253 179 226 c 128,-1,57
 158 199 158 199 144 170 c 0,58,59
 140 161 140 161 134 148.5 c 128,-1,60
 128 136 128 136 124.5 129 c 128,-1,61
 121 122 121 122 120 120 c 0,62,63
 116 107 116 107 105.5 97 c 128,-1,64
 95 87 95 87 85 87 c 0,65,66
 70 87 70 87 63.5 93.5 c 128,-1,67
 57 100 57 100 56 118 c 0,68,69
 55 123 55 123 55 130 c 0,70,71
 55 144 55 144 64 159 c 0,72,73
 89 204 89 204 89 271 c 2,74,-1
 89 280 l 1,75,-1
 89 294 l 2,76,77
 89 314 89 314 93 322 c 0,78,79
 99 334 99 334 99 336 c 0,80,81
 99 340 99 340 103 344 c 0,0,1
EndSplineSet
Validated: 1
EndChar

StartChar: o
Encoding: 111 111 68
Width: 340
GlyphClass: 1
Flags: W
LayerCount: 2
Fore
SplineSet
216 358 m 0,0,1
 213 358 213 358 203 360 c 0,2,3
 197 362 197 362 194.5 359.5 c 128,-1,4
 192 357 192 357 191 347 c 0,5,6
 189 336 189 336 180.5 324 c 128,-1,7
 172 312 172 312 166 312 c 2,8,-1
 164 312 l 1,9,-1
 163 312 l 2,10,11
 157 312 157 312 143.5 296 c 128,-1,12
 130 280 130 280 125 268 c 0,13,14
 121 257 121 257 121 235 c 0,15,16
 121 202 121 202 129 196 c 0,17,18
 136 191 136 191 143 191 c 0,19,20
 154 191 154 191 182 207 c 0,21,22
 190 212 190 212 200 221.5 c 128,-1,23
 210 231 210 231 210 235 c 0,24,25
 210 238 210 238 223 255 c 0,26,27
 232 266 232 266 234 273 c 128,-1,28
 236 280 236 280 236 300 c 0,29,30
 236 322 236 322 230 340 c 128,-1,31
 224 358 224 358 216 358 c 0,0,1
90 337 m 0,32,33
 90 340 90 340 98 348 c 128,-1,34
 106 356 106 356 106 358 c 0,35,36
 106 362 106 362 119.5 376 c 128,-1,37
 133 390 133 390 137 390 c 0,38,39
 142 390 142 390 147 397 c 0,40,41
 162 418 162 418 198 425 c 0,42,43
 218 429 218 429 219 429 c 0,44,45
 222 429 222 429 224 425 c 0,46,47
 226 422 226 422 235 422 c 128,-1,48
 244 422 244 422 252.5 408 c 128,-1,49
 261 394 261 394 266 373 c 0,50,51
 268 362 268 362 274.5 342 c 128,-1,52
 281 322 281 322 283 294 c 0,53,54
 286 268 286 268 286 258 c 128,-1,55
 286 248 286 248 281 231 c 0,56,57
 275 214 275 214 249.5 181 c 128,-1,58
 224 148 224 148 214 145 c 0,59,60
 210 144 210 144 200 135.5 c 128,-1,61
 190 127 190 127 185 127 c 0,62,63
 178 127 178 127 178 123 c 0,64,65
 178 120 178 120 160 113 c 0,66,67
 147 108 147 108 130 108 c 0,68,69
 109 108 109 108 104 115 c 0,70,71
 103 118 103 118 84 127 c 0,72,73
 66 136 66 136 60 147 c 128,-1,74
 54 158 54 158 54 182 c 0,75,76
 54 258 54 258 62 276 c 0,77,78
 64 279 64 279 68.5 291 c 128,-1,79
 73 303 73 303 77.5 313.5 c 128,-1,80
 82 324 82 324 85 327 c 0,81,82
 90 332 90 332 90 337 c 0,32,33
EndSplineSet
Validated: 1
EndChar

StartChar: p
Encoding: 112 112 69
Width: 491
GlyphClass: 1
Flags: W
LayerCount: 2
Fore
SplineSet
324 343 m 0,0,1
 310 349 310 349 289 349 c 0,2,3
 266 349 266 349 246.5 342.5 c 128,-1,4
 227 336 227 336 227 327 c 0,5,6
 227 316 227 316 210 277 c 0,7,8
 203 263 203 263 203 259 c 0,9,10
 203 254 203 254 191 220 c 0,11,12
 184 198 184 198 169.5 144.5 c 128,-1,13
 155 91 155 91 155 85 c 0,14,15
 155 83 155 83 158 83 c 0,16,17
 179 83 179 83 232 116 c 0,18,19
 246 125 246 125 248.5 129 c 128,-1,20
 251 133 251 133 251 146 c 0,21,22
 251 180 251 180 283 180 c 0,23,24
 294 180 294 180 298.5 184 c 128,-1,25
 303 188 303 188 312 206 c 0,26,27
 326 232 326 232 335 241 c 0,28,29
 370 279 370 279 370 298 c 0,30,31
 370 307 370 307 356.5 320 c 128,-1,32
 343 333 343 333 324 343 c 0,0,1
239 547 m 0,33,34
 239 551 239 551 243 555.5 c 128,-1,35
 247 560 247 560 247 565 c 0,36,37
 247 572 247 572 258.5 582 c 128,-1,38
 270 592 270 592 279 594 c 0,39,40
 280 594 280 594 282.5 594.5 c 128,-1,41
 285 595 285 595 286 595 c 0,42,43
 301 595 301 595 307 566 c 0,44,45
 310 552 310 552 310 545 c 0,46,47
 310 536 310 536 304 517 c 0,48,49
 298 499 298 499 298 484 c 0,50,51
 298 482 298 482 298 479.5 c 128,-1,52
 298 477 298 477 298 475.5 c 128,-1,53
 298 474 298 474 298 472.5 c 128,-1,54
 298 471 298 471 297.5 470.5 c 128,-1,55
 297 470 297 470 295.5 468.5 c 128,-1,56
 294 467 294 467 292 465.5 c 128,-1,57
 290 464 290 464 287 462 c 0,58,59
 279 457 279 457 269 441 c 128,-1,60
 259 425 259 425 259 417 c 0,61,62
 259 414 259 414 288 414 c 0,63,64
 352 414 352 414 404 363 c 0,65,66
 434 333 434 333 434 302 c 0,67,68
 434 266 434 266 394 210 c 0,69,70
 348 145 348 145 321 111 c 0,71,72
 309 98 309 98 278.5 74.5 c 128,-1,73
 248 51 248 51 243 51 c 0,74,75
 241 51 241 51 229 45 c 0,76,77
 220 40 220 40 204 40 c 0,78,79
 186 40 186 40 174 45 c 0,80,81
 165 49 165 49 159 49 c 0,82,83
 154 49 154 49 152 43 c 128,-1,84
 150 37 150 37 146 15 c 0,85,86
 138 -26 138 -26 102 -96 c 0,87,88
 88 -125 88 -125 83 -131.5 c 128,-1,89
 78 -138 78 -138 70 -138 c 0,90,91
 61 -138 61 -138 59.5 -135.5 c 128,-1,92
 58 -133 58 -133 58 -117 c 0,93,94
 60 -71 60 -71 72 -55 c 0,95,96
 76 -50 76 -50 91 14 c 128,-1,97
 106 78 106 78 106 87 c 128,-1,98
 106 96 106 96 110 111 c 0,99,100
 115 128 115 128 115 140 c 0,101,102
 115 155 115 155 139 230 c 0,103,104
 161 301 161 301 169 340 c 0,105,106
 176 367 176 367 183 378 c 0,107,108
 191 389 191 389 191 413 c 128,-1,109
 191 437 191 437 205 466 c 0,110,111
 239 541 239 541 239 547 c 0,33,34
EndSplineSet
Validated: 1
EndChar

StartChar: q
Encoding: 113 113 70
Width: 549
GlyphClass: 1
Flags: W
LayerCount: 2
Fore
SplineSet
122 292 m 0,0,1
 122 318 122 318 108 296 c 0,2,3
 104 291 104 291 104 278 c 0,4,5
 104 262 104 262 110 248 c 128,-1,6
 116 234 116 234 124 234 c 0,7,8
 131 234 131 234 131 245 c 0,9,10
 131 253 131 253 126.5 271 c 128,-1,11
 122 289 122 289 122 292 c 0,0,1
444 439 m 0,12,13
 454 453 454 453 468 453 c 128,-1,14
 482 453 482 453 488 441 c 0,15,16
 492 432 492 432 492 416 c 0,17,18
 492 387 492 387 479 376 c 0,19,20
 469 368 469 368 469 363 c 0,21,22
 469 359 469 359 459 349 c 0,23,24
 448 338 448 338 442 326 c 0,25,26
 407 264 407 264 398 253 c 128,-1,27
 389 242 389 242 389 238 c 128,-1,28
 389 234 389 234 380 221 c 0,29,30
 372 210 372 210 368 198 c 0,31,32
 366 186 366 186 361 186 c 0,33,34
 357 186 357 186 357 169 c 0,35,36
 357 153 357 153 353 141 c 0,37,38
 349 131 349 131 344 131 c 0,39,40
 341 131 341 131 341 137 c 0,41,42
 341 152 341 152 328 128 c 0,43,44
 302 79 302 79 300 75 c 0,45,46
 292 59 292 59 284 51 c 0,47,48
 278 46 278 46 278 38 c 128,-1,49
 278 30 278 30 266 16 c 128,-1,50
 254 2 254 2 254 -1 c 0,51,52
 254 -7 254 -7 244 -14 c 0,53,54
 233 -23 233 -23 228 -34 c 0,55,56
 215 -60 215 -60 190 -75 c 0,57,58
 172 -86 172 -86 169 -79 c 0,59,60
 166 -73 166 -73 158 -73 c 0,61,62
 146 -73 146 -73 141.5 -58.5 c 128,-1,63
 137 -44 137 -44 137 3 c 0,64,65
 137 46 137 46 138 75 c 2,66,-1
 140 145 l 1,67,-1
 121 147 l 2,68,69
 102 149 102 149 99 154 c 0,70,71
 97 159 97 159 93 159 c 128,-1,72
 89 159 89 159 75 175 c 0,73,74
 55 198 55 198 55 251 c 0,75,76
 55 268 55 268 56 278 c 0,77,78
 58 323 58 323 69 344 c 0,79,80
 87 381 87 381 98 393.5 c 128,-1,81
 109 406 109 406 126 408 c 0,82,83
 128 408 128 408 130.5 408.5 c 128,-1,84
 133 409 133 409 134 409 c 0,85,86
 141 409 141 409 153 391 c 0,87,88
 166 372 166 372 166 366 c 0,89,90
 166 361 166 361 174 327 c 2,91,-1
 184 277 l 2,92,93
 186 259 186 259 192 253 c 0,94,95
 205 238 205 238 205 210 c 0,96,97
 205 203 205 203 203 191 c 0,98,99
 198 168 198 168 198 103 c 0,100,101
 198 56 198 56 201 52 c 0,102,103
 202 51 202 51 204 51 c 0,104,105
 214 51 214 51 237 84 c 0,106,107
 248 99 248 99 252 100 c 128,-1,108
 256 101 256 101 267 122 c 0,109,110
 273 134 273 134 289.5 161 c 128,-1,111
 306 188 306 188 313 202 c 0,112,113
 337 249 337 249 355 280 c 0,114,115
 370 305 370 305 377 320 c 0,116,117
 382 332 382 332 389.5 341 c 128,-1,118
 397 350 397 350 403 363 c 0,119,120
 411 382 411 382 420 391 c 0,121,122
 429 398 429 398 431 411 c 0,123,124
 436 428 436 428 444 439 c 0,12,13
EndSplineSet
Validated: 1
EndChar

StartChar: r
Encoding: 114 114 71
Width: 428
GlyphClass: 1
Flags: W
LayerCount: 2
Fore
SplineSet
312 466 m 0,0,1
 327 473 327 473 343 473 c 0,2,3
 348 473 348 473 356 471 c 0,4,5
 372 466 372 466 372 440 c 0,6,7
 372 439 372 439 371.5 437 c 128,-1,8
 371 435 371 435 371 434 c 0,9,10
 366 412 366 412 336 408 c 0,11,12
 320 406 320 406 296 389 c 128,-1,13
 272 372 272 372 255 352 c 0,14,15
 210 297 210 297 150 163 c 0,16,17
 138 136 138 136 131.5 126.5 c 128,-1,18
 125 117 125 117 114 111 c 0,19,20
 102 105 102 105 89 112 c 0,21,22
 68 124 68 124 68 152 c 0,23,24
 68 169 68 169 77 187 c 0,25,26
 97 224 97 224 97 270 c 2,27,-1
 97 286 l 2,28,29
 96 314 96 314 94 320 c 128,-1,30
 92 326 92 326 81 335 c 0,31,32
 55 357 55 357 55 386 c 0,33,34
 55 413 55 413 77 425 c 0,35,36
 90 434 90 434 100 434 c 0,37,38
 107 434 107 434 117 429 c 0,39,40
 129 424 129 424 142 391 c 128,-1,41
 155 358 155 358 155 334 c 0,42,43
 155 302 155 302 162 302 c 0,44,45
 164 302 164 302 184 341 c 0,46,47
 202 377 202 377 238 413 c 0,48,49
 277 451 277 451 312 466 c 0,0,1
EndSplineSet
Validated: 1
EndChar

StartChar: s
Encoding: 115 115 72
Width: 398
GlyphClass: 1
Flags: W
LayerCount: 2
Fore
SplineSet
285 445 m 0,0,1
 295 447 295 447 302 447 c 0,2,3
 327 447 327 447 336 436 c 0,4,5
 343 427 343 427 343 417 c 0,6,7
 343 416 343 416 342.5 412 c 128,-1,8
 342 408 342 408 342 406 c 0,9,10
 340 384 340 384 334 379.5 c 128,-1,11
 328 375 328 375 302 372 c 0,12,13
 265 370 265 370 227 350 c 0,14,15
 195 333 195 333 195 322 c 0,16,17
 195 316 195 316 210.5 302.5 c 128,-1,18
 226 289 226 289 240 282 c 0,19,20
 250 277 250 277 272.5 253.5 c 128,-1,21
 295 230 295 230 295 224 c 128,-1,22
 295 218 295 218 298 218 c 128,-1,23
 301 218 301 218 301 202 c 0,24,25
 301 161 301 161 293 147 c 0,26,27
 285 131 285 131 267 116 c 128,-1,28
 249 101 249 101 232 96 c 0,29,30
 191 86 191 86 136 86 c 0,31,32
 89 86 89 86 77 94 c 0,33,34
 69 99 69 99 62.5 110.5 c 128,-1,35
 56 122 56 122 56 130 c 0,36,37
 56 136 56 136 66 146 c 0,38,39
 74 154 74 154 85 154 c 0,40,41
 87 154 87 154 105 152 c 0,42,43
 107 152 107 152 113 151.5 c 128,-1,44
 119 151 119 151 122 151 c 0,45,46
 188 151 188 151 215 167 c 0,47,48
 226 174 226 174 226 181 c 0,49,50
 226 189 226 189 216 190 c 0,51,52
 207 192 207 192 207 201 c 0,53,54
 207 207 207 207 205 208.5 c 128,-1,55
 203 210 203 210 196 210 c 0,56,57
 184 210 184 210 182 204 c 1,58,59
 181 209 181 209 180 214 c 0,60,61
 180 225 180 225 178.5 227.5 c 128,-1,62
 177 230 177 230 170 230 c 0,63,64
 160 230 160 230 160 242 c 128,-1,65
 160 254 160 254 154 254 c 128,-1,66
 148 254 148 254 148 261 c 0,67,68
 148 269 148 269 135 272 c 0,69,70
 121 276 121 276 116 293 c 0,71,72
 113 304 113 304 113 311 c 0,73,74
 113 325 113 325 129 349 c 0,75,76
 144 371 144 371 172 389 c 0,77,78
 180 394 180 394 194 402.5 c 128,-1,79
 208 411 208 411 211 413 c 0,80,81
 251 436 251 436 285 445 c 0,0,1
EndSplineSet
Validated: 1
EndChar

StartChar: t
Encoding: 116 116 73
Width: 404
GlyphClass: 1
Flags: W
LayerCount: 2
Fore
SplineSet
144 466 m 0,0,1
 144 473 144 473 154 506 c 128,-1,2
 164 539 164 539 164 545 c 128,-1,3
 164 551 164 551 170 565 c 0,4,5
 176 574 176 574 180 597 c 0,6,7
 186 630 186 630 206 640 c 0,8,9
 210 642 210 642 213 642 c 0,10,11
 230 642 230 642 233 627 c 0,12,13
 235 621 235 621 235 607 c 0,14,15
 235 582 235 582 226 563 c 0,16,17
 202 512 202 512 196 483 c 0,18,19
 195 479 195 479 194 472.5 c 128,-1,20
 193 466 193 466 192 462 c 128,-1,21
 191 458 191 458 191 457 c 0,22,23
 191 453 191 453 212 453 c 0,24,25
 239 453 239 453 302 460 c 0,26,27
 326 463 326 463 339 463 c 2,28,-1
 343 463 l 2,29,30
 347 460 347 460 347 454 c 0,31,32
 347 442 347 442 335 430 c 0,33,34
 323 419 323 419 307 416 c 0,35,36
 278 412 278 412 271 401 c 0,37,38
 269 399 269 399 246 393.5 c 128,-1,39
 223 388 223 388 206 387 c 0,40,41
 167 384 167 384 163 362 c 0,42,43
 162 354 162 354 153 318 c 0,44,45
 147 296 147 296 147 289 c 128,-1,46
 147 282 147 282 150 276 c 0,47,48
 155 265 155 265 151 260 c 0,49,50
 148 256 148 256 144 256 c 128,-1,51
 140 256 140 256 135 223.5 c 128,-1,52
 130 191 130 191 130 167 c 0,53,54
 130 155 130 155 131 151 c 0,55,56
 133 142 133 142 145 144 c 0,57,58
 180 151 180 151 180 159 c 0,59,60
 180 163 180 163 184 163 c 0,61,62
 198 163 198 163 266 229 c 0,63,64
 280 241 280 241 283 241 c 0,65,66
 287 241 287 241 287 233 c 0,67,68
 287 215 287 215 241 167 c 0,69,70
 227 153 227 153 220 139 c 0,71,72
 215 129 215 129 196.5 108.5 c 128,-1,73
 178 88 178 88 167 80 c 0,74,75
 145 63 145 63 117 61 c 0,76,77
 106 61 106 61 93 67.5 c 128,-1,78
 80 74 80 74 80 80 c 0,79,80
 80 84 80 84 73 89 c 0,81,82
 67 93 67 93 67 120 c 0,83,84
 67 139 67 139 78.5 204.5 c 128,-1,85
 90 270 90 270 99 302 c 0,86,87
 104 322 104 322 108 340 c 0,88,89
 112 360 112 360 114 363 c 0,90,91
 116 368 116 368 115 368 c 128,-1,92
 114 368 114 368 106 367 c 0,93,94
 93 362 93 362 91 361 c 0,95,96
 87 356 87 356 73 360 c 0,97,98
 58 363 58 363 56 378 c 0,99,100
 54 394 54 394 54 400 c 0,101,102
 54 421 54 421 65.5 430.5 c 128,-1,103
 77 440 77 440 107 441 c 0,104,105
 130 442 130 442 137 446.5 c 128,-1,106
 144 451 144 451 144 466 c 0,0,1
EndSplineSet
Validated: 1
EndChar

StartChar: u
Encoding: 117 117 74
Width: 360
GlyphClass: 1
Flags: W
LayerCount: 2
Fore
SplineSet
94 423 m 0,0,1
 105 434 105 434 118 434 c 0,2,3
 134 434 134 434 145.5 418.5 c 128,-1,4
 157 403 157 403 157 381 c 0,5,6
 157 362 157 362 146 343 c 0,7,8
 144 339 144 339 122 246 c 0,9,10
 118 230 118 230 118 221 c 0,11,12
 118 214 118 214 123 214 c 2,13,-1
 124 214 l 2,14,15
 126 215 126 215 127 215 c 0,16,17
 133 217 133 217 155.5 234 c 128,-1,18
 178 251 178 251 182 258 c 0,19,20
 183 260 183 260 187 284 c 0,21,22
 192 326 192 326 204 340 c 0,23,24
 209 346 209 346 221 370.5 c 128,-1,25
 233 395 233 395 233 400 c 0,26,27
 233 404 233 404 243.5 415 c 128,-1,28
 254 426 254 426 264 431 c 0,29,30
 268 434 268 434 273 434 c 0,31,32
 282 434 282 434 295 416 c 0,33,34
 304 404 304 404 304 394 c 0,35,36
 304 385 304 385 303 378 c 0,37,38
 302 353 302 353 288 330 c 0,39,40
 272 301 272 301 269 292 c 0,41,42
 264 278 264 278 260 274 c 0,43,44
 252 264 252 264 252 221 c 0,45,46
 252 213 252 213 253 211 c 0,47,48
 255 204 255 204 269 197 c 0,49,50
 278 192 278 192 280.5 189 c 128,-1,51
 283 186 283 186 284 176 c 0,52,53
 285 161 285 161 273 149 c 0,54,55
 262 138 262 138 247 138 c 0,56,57
 234 138 234 138 222 146 c 0,58,59
 208 154 208 154 204 165 c 0,60,61
 198 181 198 181 188 173 c 0,62,63
 187 172 187 172 181 167.5 c 128,-1,64
 175 163 175 163 171 160 c 0,65,66
 144 141 144 141 136 134 c 0,67,68
 110 114 110 114 90 114 c 0,69,70
 69 114 69 114 60 134 c 0,71,72
 54 146 54 146 54 188 c 0,73,74
 54 210 54 210 55.5 221 c 128,-1,75
 57 232 57 232 60.5 244.5 c 128,-1,76
 64 257 64 257 66 270 c 0,77,78
 78 321 78 321 80 360 c 0,79,80
 80 369 80 369 80.5 381 c 128,-1,81
 81 393 81 393 81.5 399 c 128,-1,82
 82 405 82 405 82 406 c 0,83,84
 82 411 82 411 94 423 c 0,0,1
EndSplineSet
Validated: 1
EndChar

StartChar: v
Encoding: 118 118 75
Width: 439
GlyphClass: 1
Flags: W
LayerCount: 2
Fore
SplineSet
213 212 m 0,0,1
 213 210 213 210 208.5 198 c 128,-1,2
 204 186 204 186 204 183 c 0,3,4
 205 179 205 179 198 165 c 128,-1,5
 191 151 191 151 186 146 c 128,-1,6
 181 141 181 141 181 131 c 128,-1,7
 181 121 181 121 169 109 c 0,8,9
 160 100 160 100 153 100 c 0,10,11
 145 100 145 100 128 104 c 0,12,13
 119 105 119 105 112 115.5 c 128,-1,14
 105 126 105 126 103 140 c 2,15,-1
 103 146 l 2,16,17
 103 178 103 178 114 191 c 0,18,19
 123 200 123 200 108 215 c 0,20,21
 93 228 93 228 100 235 c 0,22,23
 101 237 101 237 104 237 c 0,24,25
 110 237 110 237 109.5 242.5 c 128,-1,26
 109 248 109 248 103 263 c 0,27,28
 100 269 100 269 75 344 c 0,29,30
 56 402 56 402 56 412 c 0,31,32
 56 416 56 416 58 424 c 0,33,34
 63 438 63 438 68.5 443 c 128,-1,35
 74 448 74 448 87 450 c 128,-1,36
 100 452 100 452 111 440 c 0,37,38
 122 429 122 429 122 423 c 0,39,40
 126 361 126 361 137 340 c 0,41,42
 145 323 145 323 148 311 c 0,43,44
 149 303 149 303 159 283.5 c 128,-1,45
 169 264 169 264 171 264 c 128,-1,46
 173 264 173 264 181 278.5 c 128,-1,47
 189 293 189 293 189 296 c 0,48,49
 189 302 189 302 195 307 c 0,50,51
 201 313 201 313 221 337.5 c 128,-1,52
 241 362 241 362 248 369 c 0,53,54
 291 405 291 405 315 442 c 0,55,56
 324 457 324 457 330.5 461 c 128,-1,57
 337 465 337 465 356 465 c 0,58,59
 370 464 370 464 376 451 c 0,60,61
 383 437 383 437 383 425 c 0,62,63
 383 398 383 398 334 365 c 0,64,65
 319 355 319 355 287.5 324.5 c 128,-1,66
 256 294 256 294 256 290 c 0,67,68
 256 283 256 283 235 250 c 0,69,70
 213 213 213 213 213 212 c 0,0,1
EndSplineSet
Validated: 1
EndChar

StartChar: w
Encoding: 119 119 76
Width: 544
GlyphClass: 1
Flags: W
LayerCount: 2
Fore
SplineSet
447 446 m 128,-1,1
 454 450 454 450 461 450 c 0,2,3
 481 450 481 450 487 419 c 0,4,5
 487 418 487 418 487.5 415 c 128,-1,6
 488 412 488 412 488 410 c 0,7,8
 488 400 488 400 478 381 c 0,9,10
 474 374 474 374 464.5 351.5 c 128,-1,11
 455 329 455 329 447.5 312.5 c 128,-1,12
 440 296 440 296 438 296 c 0,13,14
 435 296 435 296 435 290 c 0,15,16
 435 286 435 286 400 250.5 c 128,-1,17
 365 215 365 215 359 213 c 0,18,19
 353 210 353 210 345 202 c 0,20,21
 294 155 294 155 277 145 c 0,22,23
 250 129 250 129 222 129 c 0,24,25
 213 129 213 129 203 138 c 128,-1,26
 193 147 193 147 188 158 c 0,27,28
 182 171 182 171 173 171 c 0,29,30
 160 171 160 171 134 146 c 0,31,32
 109 121 109 121 93 121 c 0,33,34
 79 121 79 121 69 135 c 0,35,36
 59 147 59 147 57 159 c 0,37,38
 54 171 54 171 54 191 c 0,39,40
 54 251 54 251 70 308 c 0,41,42
 78 336 78 336 78 344 c 0,43,44
 78 357 78 357 85 378 c 0,45,46
 92 400 92 400 104 406 c 0,47,48
 112 410 112 410 120 410 c 0,49,50
 134 410 134 410 142.5 399 c 128,-1,51
 151 388 151 388 151 370 c 2,52,-1
 151 362 l 1,53,54
 147 341 147 341 141 330 c 0,55,56
 134 317 134 317 124 279.5 c 128,-1,57
 114 242 114 242 114 227 c 0,58,59
 114 221 114 221 116 221 c 0,60,61
 119 221 119 221 170 272 c 0,62,63
 222 324 222 324 228 327 c 0,64,65
 236 331 236 331 244 331 c 0,66,67
 266 331 266 331 271 297 c 0,68,69
 271 294 271 294 271.5 290 c 128,-1,70
 272 286 272 286 272 285 c 0,71,72
 272 274 272 274 259 253 c 0,73,74
 245 228 245 228 245 220 c 0,75,76
 245 213 245 213 252 213 c 0,77,78
 260 213 260 213 262 218 c 0,79,80
 264 224 264 224 297 248 c 0,81,82
 329 271 329 271 359 303 c 0,83,84
 379 325 379 325 388 339 c 128,-1,85
 397 353 397 353 414 391 c 0,86,87
 429 424 429 424 434.5 433 c 128,-1,0
 440 442 440 442 447 446 c 128,-1,1
EndSplineSet
Validated: 1
EndChar

StartChar: x
Encoding: 120 120 77
Width: 430
GlyphClass: 1
Flags: W
LayerCount: 2
Fore
SplineSet
199 403 m 0,0,1
 201 403 201 403 217 391 c 128,-1,2
 233 379 233 379 236 379 c 128,-1,3
 239 379 239 379 254 399 c 0,4,5
 268 418 268 418 284 429 c 0,6,7
 298 439 298 439 315 439 c 0,8,9
 324 439 324 439 329 434 c 0,10,11
 337 424 337 424 337 405 c 0,12,13
 337 397 337 397 336 393 c 0,14,15
 334 380 334 380 312 363 c 0,16,17
 291 347 291 347 291 344 c 0,18,19
 291 339 291 339 329 306 c 0,20,21
 375 267 375 267 375 248 c 0,22,23
 375 239 375 239 371 230 c 0,24,25
 363 213 363 213 360 213 c 0,26,27
 358 213 358 213 354 212.5 c 128,-1,28
 350 212 350 212 349 212 c 2,29,-1
 343 212 l 2,30,31
 327 212 327 212 291 248 c 128,-1,32
 255 284 255 284 251 284 c 0,33,34
 248 284 248 284 241 271 c 0,35,36
 233 255 233 255 220 237 c 0,37,38
 200 208 200 208 171 151 c 0,39,40
 143 96 143 96 121 77 c 0,41,42
 101 60 101 60 86 60 c 0,43,44
 72 60 72 60 61 78 c 0,45,46
 56 88 56 88 56 91 c 0,47,48
 56 95 56 95 61 110 c 0,49,50
 65 122 65 122 65 129 c 0,51,52
 65 138 65 138 57 152 c 0,53,54
 53 160 53 160 56 170 c 0,55,56
 60 181 60 181 58 181 c 1,57,-1
 58 182 l 2,58,59
 59 183 59 183 61.5 186 c 128,-1,60
 64 189 64 189 66 191 c 0,61,62
 75 200 75 200 82 200 c 0,63,64
 92 200 92 200 101 184 c 0,65,66
 104 178 104 178 107.5 173.5 c 128,-1,67
 111 169 111 169 112 170 c 0,68,69
 115 170 115 170 132 201 c 0,70,71
 150 233 150 233 159 248 c 0,72,73
 161 252 161 252 165 258 c 128,-1,74
 169 264 169 264 172 268.5 c 128,-1,75
 175 273 175 273 176 276 c 0,76,77
 182 289 182 289 189 298 c 0,78,79
 199 312 199 312 199 315 c 0,80,81
 199 323 199 323 156 336 c 0,82,83
 127 344 127 344 127 378 c 0,84,85
 127 405 127 405 143 415 c 0,86,87
 150 419 150 419 163 419 c 0,88,89
 189 419 189 419 193 410 c 0,90,91
 195 403 195 403 199 403 c 0,0,1
EndSplineSet
Validated: 1
EndChar

StartChar: y
Encoding: 121 121 78
Width: 500
GlyphClass: 1
Flags: W
LayerCount: 2
Fore
SplineSet
213 308 m 0,0,1
 207 308 207 308 201.5 314 c 128,-1,2
 196 320 196 320 189 320 c 0,3,4
 181 320 181 320 174 325.5 c 128,-1,5
 167 331 167 331 167 337 c 128,-1,6
 167 343 167 343 161 347 c 0,7,8
 157 350 157 350 157 361 c 0,9,10
 157 377 157 377 164 390 c 0,11,12
 168 398 168 398 179 404.5 c 128,-1,13
 190 411 190 411 200 411 c 0,14,15
 214 411 214 411 262 356 c 0,16,17
 304 308 304 308 313 308 c 0,18,19
 320 308 320 308 327 320 c 0,20,21
 338 336 338 336 338 340 c 0,22,23
 338 343 338 343 351 358 c 0,24,25
 366 375 366 375 379 393 c 0,26,27
 400 423 400 423 417 423 c 0,28,29
 427 423 427 423 435 414 c 0,30,31
 444 405 444 405 444 387 c 0,32,33
 444 378 444 378 441 377 c 0,34,35
 437 375 437 375 437 368 c 0,36,37
 437 362 437 362 413 332 c 0,38,39
 391 306 391 306 382.5 287 c 128,-1,40
 374 268 374 268 370 241 c 0,41,42
 366 213 366 213 353 196 c 0,43,44
 338 177 338 177 328 143 c 0,45,46
 291 27 291 27 254 -37 c 0,47,48
 253 -39 253 -39 249 -47.5 c 128,-1,49
 245 -56 245 -56 241.5 -63 c 128,-1,50
 238 -70 238 -70 235 -71 c 0,51,52
 230 -76 230 -76 230 -80 c 0,53,54
 230 -87 230 -87 211.5 -110 c 128,-1,55
 193 -133 193 -133 188 -133 c 0,56,57
 181 -133 181 -133 169 -139 c 128,-1,58
 157 -145 157 -145 148 -145 c 0,59,60
 141 -145 141 -145 138 -144 c 0,61,62
 131 -142 131 -142 114 -139.5 c 128,-1,63
 97 -137 97 -137 84.5 -134 c 128,-1,64
 72 -131 72 -131 69 -128 c 0,65,66
 58 -120 58 -120 58 -90 c 0,67,68
 58 -84 58 -84 60 -74 c 0,69,70
 63 -62 63 -62 67 -58 c 128,-1,71
 71 -54 71 -54 83 -54 c 0,72,73
 96 -54 96 -54 134 -60 c 0,74,75
 135 -60 135 -60 136.5 -60.5 c 128,-1,76
 138 -61 138 -61 139 -61 c 0,77,78
 147 -61 147 -61 170 -38 c 0,79,80
 192 -16 192 -16 216 33 c 0,81,82
 250 102 250 102 258 127 c 0,83,84
 267 154 267 154 271 162 c 0,85,86
 274 168 274 168 274 176 c 0,87,88
 274 183 274 183 278 187 c 128,-1,89
 282 191 282 191 284 211 c 2,90,-1
 286 231 l 1,91,-1
 255 262 l 2,92,93
 223 294 223 294 223 301 c 128,-1,94
 223 308 223 308 213 308 c 0,0,1
EndSplineSet
Validated: 1
EndChar

StartChar: z
Encoding: 122 122 79
Width: 485
GlyphClass: 1
Flags: W
LayerCount: 2
Fore
SplineSet
115 402 m 0,0,1
 156 420 156 420 196 420 c 0,2,3
 226 420 226 420 252 408 c 128,-1,4
 278 396 278 396 278 356 c 0,5,6
 278 333 278 333 268 312 c 0,7,8
 265 303 265 303 229.5 266 c 128,-1,9
 194 229 194 229 192 226 c 2,10,-1
 182 214 l 1,11,-1
 209 205 l 2,12,13
 229 198 229 198 246 198 c 0,14,15
 266 198 266 198 297 206 c 0,16,17
 343 217 343 217 360 229 c 0,18,19
 371 236 371 236 381 238 c 0,20,21
 387 240 387 240 391 242.5 c 128,-1,22
 395 245 395 245 399 246.5 c 128,-1,23
 403 248 403 248 414 248 c 0,24,25
 427 248 427 248 429 247 c 128,-1,26
 431 246 431 246 430 240 c 0,27,28
 417 195 417 195 371 164 c 0,29,30
 360 157 360 157 360 148 c 128,-1,31
 360 139 360 139 355 144 c 0,32,33
 349 150 349 150 344.5 149 c 128,-1,34
 340 148 340 148 340 141 c 0,35,36
 340 132 340 132 335 137 c 128,-1,37
 330 142 330 142 314 135 c 0,38,39
 306 131 306 131 248 123 c 1,40,-1
 241 123 l 2,41,42
 229 123 229 123 200.5 128 c 128,-1,43
 172 133 172 133 161 133 c 0,44,45
 145 133 145 133 141 131.5 c 128,-1,46
 137 130 137 130 130 120 c 0,47,48
 117 101 117 101 91 101 c 0,49,50
 86 101 86 101 78 103 c 0,51,52
 55 111 55 111 55 150 c 2,53,-1
 55 156 l 2,54,55
 57 171 57 171 67 191 c 128,-1,56
 77 211 77 211 84 211 c 2,57,-1
 85 211 l 2,58,59
 90 209 90 209 90 213 c 128,-1,60
 90 217 90 217 96 217 c 0,61,62
 99 217 99 217 122 242 c 128,-1,63
 145 267 145 267 146 268 c 2,64,-1
 150 273 l 2,65,66
 155 278 155 278 163.5 287.5 c 128,-1,67
 172 297 172 297 179 305 c 0,68,69
 209 340 209 340 209 349 c 0,70,71
 209 351 209 351 207 351 c 128,-1,72
 205 351 205 351 203 350 c 0,73,74
 195 348 195 348 178 348 c 0,75,76
 157 348 157 348 141 334 c 0,77,78
 125 321 125 321 110 321 c 0,79,80
 87 321 87 321 84 350 c 2,81,-1
 84 357 l 2,82,83
 84 388 84 388 115 402 c 0,0,1
EndSplineSet
Validated: 1
EndChar

